<svg xmlns="http://www.w3.org/2000/svg" width="552.754" height="554.213" viewBox="0 0 552.754 554.213">
  <path id="moonlight" d="M258.911-.054c143.229-2.284,230.242,73.736,271.5,171.049C556,231.342,557.634,317.49,532.318,379.8c-32.175,79.186-93.106,137.077-179.1,163.592-19.182,5.918-39.514,6.963-61.922,10.72q-16.195-.231-32.39-.466c-12.527-2.093-23.4-1.261-34.771-3.729A327.273,327.273,0,0,1,164.124,530.8C86.562,497.476,35.36,436.756,9.321,352.765.362,323.868-6.463,277.645.744,240.441c3.429-17.679,6.333-34.509,11.434-50.337C38.638,108.012,98.411,48.038,177.461,17.19c16.222-6.331,33.823-10.1,52.395-13.982Z" transform="translate(2.276 0.104)" fill="#cddcf0" fill-rule="evenodd"/>
</svg>
