<svg xmlns="http://www.w3.org/2000/svg" viewBox="0 0 2972 1937"><defs><style>.cls-1{fill:#c1c1c1;fill-rule:evenodd;}</style></defs><title>Asset 1</title><g id="Layer_2" data-name="Layer 2"><g id="Layer_1-2" data-name="Layer 1"><path id="Color_Fill_1" data-name="Color Fill 1" class="cls-1" d="M704,0l2,2h-3ZM2768,1h3V2l-3,1ZM329,2h2c-1.39,1.92-.1.6-2,2ZM695,2h3V6l-4-2Zm754,1,3,2h-3ZM2671,5c1.92,1.39.6.1,2,2Zm-31,2c2,1.8.71,0,2,3h-2Zm148,1,5,2c-.33.67-.67,1.33-1,2h-1C2787.27,10,2789.36,12.43,2788,8ZM1478,10c.33.67.67,1.33,1,2C1478.67,11.33,1478.33,10.67,1478,10Zm-31,1h4v1c-1.91,2.42-.64,1.62-4,3Zm1195,4c2.05,1.35,1.61,1.12,3,3-.33.67-.67,1.33-1,2l-4-2Zm61,2,5,2c-.67,1.33-1.33,2.67-2,4C2702,20.79,2702.34,21.28,2703,17ZM325,23h4l-2,4h-1C325.67,25.67,325.33,24.33,325,23Zm1177,8,4,1c-.33,1.67-.67,3.33-1,5-3.64-1.14-2.74-1.13-5-3Zm1313,0,2,2C2815.08,31.61,2816.4,32.9,2815,31Zm-132,4c2.08,2,1.36,1,2,5l-4-2ZM283,36h4v4h-4Zm1095,3h3l-2,2C1378.67,40.33,1378.33,39.67,1378,39ZM346,41l3,4-1,2h-4l-1-3Zm1132,0h3v1l-2,3-2-2C1477.33,42.33,1477.67,41.67,1478,41Zm-109,1h4c.33.67.67,1.33,1,2-.33.67-.67,1.33-1,2h-1C1368.27,44,1370.36,46.43,1369,42ZM282,45c1.63,2.52,1,.17,0,3h-1Zm386,9,5,2v3l-1,1C665.66,58.75,666.36,58,668,54Zm2123,0h3l2,2-2,2h-2C2791.67,56.67,2791.33,55.33,2791,54Zm-108,4c2,1.8.71,0,2,3h-2Zm118,1c2,1.8.71,0,2,3h-1l-2-1C2800.33,60.33,2800.67,59.67,2801,59ZM1472,61l2,2h-3C1471.33,62.33,1471.67,61.67,1472,61Zm-2,5h2c-.33,1-.67,2-1,3h-1l-1-1V67Zm44,0h5c.33,1,.67,2,1,3l-2,3h-3l-1-1ZM603,68h3v1l-3,1Zm498,0h4v5c-3.65-1.06-2.94-.81-5-3C1100.33,69.33,1100.67,68.67,1101,68Zm1656,6,3,3c-.33.67-.67,1.33-1,2l-2,1h-1c-1.3-2.12-1.23-1.45-2-5ZM608,75h3v5C606.47,78.08,607.39,79.35,608,75Zm880,2c4.2,1.54,2.45-.18,4,4h-4Zm-425,1h2C1063.25,79,1064.78,78.91,1063,78ZM654,79c3,1.93,1.62.2,3,4h-4Zm427,4c3.83,1.32,2.08,0,4,3C1081.17,84.68,1082.92,86,1081,83Zm1888,3c3,1.93,1.62.2,3,4h-4C2968.33,88.67,2968.67,87.33,2969,86ZM1362,87h4v1l-4,2ZM892,94l4,2v3l-2,1-3-1-1-4Zm450,0c2,1.8.71,0,2,3h-2Zm1358,3h2C2700.25,98,2701.78,97.91,2700,97Zm47,2,3,2v1h-3ZM985,100h2c-1.39,1.92-.1.6-2,2Zm399,0h3l2,2a11.27,11.27,0,0,1-4,4C1383,103.16,1383.53,104,1384,100Zm-722,1c3,1.94,1,.33,2,3Zm446,1c.33.67.67,1.33,1,2C1108.67,103.33,1108.33,102.67,1108,102Zm1597,0c3,1.93,1.62.2,3,4l-4-2C2704.33,103.33,2704.67,102.67,2705,102Zm-1194,2,2,2C1511.08,104.61,1512.4,105.9,1511,104Zm-540,1c4.2,1.54,2.45-.18,4,4l-5-2Zm-72,1h2c-1.39,1.92-.1.6-2,2Zm81,3h2c-1.39,1.92-.1.6-2,2Zm-14,7h3v1l-3,1Zm1792,1h3l-2,2C2758.67,118.33,2758.33,117.67,2758,117ZM931,118c3,1.93,1.62.2,3,4l-2,1C930.22,120.4,930.4,121.39,931,118Zm95,0h3v5C1024.47,121.08,1025.39,122.35,1026,118Zm-90,1h3l2,2-3,4-2-1Zm39,0h4v1c-1.91,2.42-.64,1.62-4,3Zm-57,1h2c-1.39,1.92-.1.6-2,2Zm-30,1h2l-2,4-2-2v-1Zm24,0,3,2v1h-3Zm572,2h3l2,2c-.33.67-.67,1.33-1,2h-4Zm1442,0,2,2-1,1-2-1v-1Zm20,0c4.5,1.39,3.6.52,5,5l-4,1-2-1C2945.33,126.33,2945.67,124.67,2946,123Zm-1856,1h4v3h-4Zm1027,1,4,2-3,3C2116.22,127.4,2116.4,128.39,2117,125Zm-1084,1h3l-2,2C1033.67,127.33,1033.33,126.67,1033,126Zm-107,1h2c-1.39,1.92-.1.6-2,2Zm1824,0h2c-1.39,1.92-.1.6-2,2Zm-1651,1,2,2C1099.08,128.61,1100.4,129.9,1099,128Zm393,0c3,1.93,1.62.2,3,4h-3Zm165,0h4c.33.67.67,1.33,1,2-.67,1.33-1.33,2.67-2,4l-3-1Zm-722,1c3.83,1.32,2.08,0,4,3C935.17,130.68,936.92,132,935,129Zm1242,1c2,1.8.71,0,2,3h-2Zm-68,1h3v1l-3,1ZM868,132h2c-1.39,1.92-.1.6-2,2Zm113,0h3v4l-4-2Zm507,4h4c-.33,1-.67,2-1,3-.43,2.6,1,.55-1,3l-3-3C1487.33,138,1487.67,137,1488,136Zm33,4h2C1521.25,141,1522.78,140.91,1521,140Zm-568,3,1,2Zm34,0h3l2,2c-.67,2.33-1.33,4.67-2,7h-1c-1.32-3.83,0-2.08-3-4C986.33,146.33,986.67,144.67,987,143Zm1172,0,4,2c-.33.67-.67,1.33-1,2h-4C2158.33,145.67,2158.67,144.33,2159,143Zm-1117,1c.33,1,.67,2,1,3l-2-1C1041.33,145.33,1041.67,144.67,1042,144Zm-110,1h3v1l-3,1Zm1811,1h4c-.67,1.33-1.33,2.67-2,4l-2-1Zm218,0h4c.33.67.67,1.33,1,2-.33,1-.67,2-1,3h-5C2960.33,149.33,2960.67,147.67,2961,146ZM924,147h3c-.33,1.67-.67,3.33-1,5l-1,1-2-1-1-2Zm1514,2h5v3c-.33.67-.67,1.33-1,2-3.63-.64-3-.4-5-2C2437.33,151,2437.67,150,2438,149Zm533,0c.33,1,.67,2,1,3h-1Zm-1676,1c2,1.8.71,0,2,3Zm1406,1,4,2-4,2ZM979,152h4l1,2-1,3-3,1-2-1C978.33,155.33,978.67,153.67,979,152Zm18,0,4,2-2,2h-2Zm42,0c4.2,1.54,2.45-.18,4,4h-4Zm-100,1h5v4l-3,1-3-3Zm541,0c2.42,1.91,1.62.64,3,4-3.06,2.11-2.93,2.22-6,0Zm167,2h5c-.67,1.33-1.33,2.67-2,4Zm-220,1,2,2-1,1C1427.67,158,1427.33,157,1427,156Zm-132,2h3c-.67,1.33-1.33,2.67-2,4l-2-2C1294.33,159.33,1294.67,158.67,1295,158Zm162,0c1.92,1.39.6.1,2,2Zm-561,1,3,1-1,4h-1C895.57,161.14,895.41,162.55,896,159Zm79,1,6,1v1l-3,4-3-1Zm1723,0h2c-1.39,1.92-.1.6-2,2Zm-1071,2h2c-1.39,1.92-.1.6-2,2Zm1014,0c2.21,2.06,1.88,1.38,3,5l-1,1h-4l-1-1v-3C2640.85,162.39,2639.26,164.9,2641,162ZM931,164l4,2v1l-3,3h-1l-2-1Zm496,0c3,1.93,1.62.2,3,4l-2,1-3-1C1425.67,166.67,1426.33,165.33,1427,164Zm9,0,4,1c-.33,1.33-.67,2.67-1,4-3.63-.64-3-.4-5-2Zm108,1c3.84,1.76,2.91.28,4,5-.33.67-.67,1.33-1,2h-1c-2.81-1.56-2.34-1.47-4-4Zm668,0h5c.33,1,.67,2,1,3v1h-2l-4,1c-.33-.67-.67-1.33-1-2C2211.33,167,2211.67,166,2212,165ZM836,166c3,1.94,1,.33,2,3Zm1921,1h3l2,2v2l-1,1h-4c-.33-1-.67-2-1-3C2756.33,168.33,2756.67,167.67,2757,167ZM901,168h2c-1.39,1.92-.1.6-2,2Zm1257,1,6,1c-1.06,3.65-.81,2.94-3,5l-4-3C2157.33,171,2157.67,170,2158,169Zm-1158,1h3l-2,4h-1Zm351,0c2.78,2.26,2.41,1.11,3,6h-3l-2-1C1349.72,171.41,1349.7,172.13,1351,170Zm167,2c2.67,2.71,1.89,2.18,0,5h-1c-.33-.67-.67-1.33-1-2Zm978,1h2c-1.8,2,0,.71-3,2C2495.33,174.33,2495.67,173.67,2496,173Zm-1009,1,7,6c-.33.67-.67,1.33-1,2h-1l-7-5Zm960,0h3v3l-4-1C2446.33,175.33,2446.67,174.67,2447,174Zm-733,1,3,1c.33,1.33.67,2.67,1,4l-1,1c-4.42-.77-3.71-.6-6-3Zm66,0,4,2v3l-5-1C1779.33,177.67,1779.67,176.33,1780,175Zm710,3c3,1.93,1.62.2,3,4l-2,1C2489.22,180.4,2489.4,181.39,2490,178Zm-1017,4h3l2,2v2l-1,1h-4Zm-541,1c1.63,2.52,1,.17,0,3h-1Zm397,0c2.07,2,1,.38,2,4l-3-1C1328.33,185,1328.67,184,1329,183Zm947,0h2c-1.39,1.92-.1.6-2,2Zm-764,1h2c-1.39,1.92-.1.6-2,2Zm258,0,3,3c-.33.67-.67,1.33-1,2l-4-2Zm583,1c3,1.94,1,.33,2,3Zm-663,1,2,2-3,1C1689.33,188,1689.67,187,1690,186Zm-851,1c2.08,2,1.36,1,2,5h-1l-3-2Zm103,0,8,3v3l-1,1-5-1Zm68,0h2c-1.39,1.92-.1.6-2,2Zm670,0h3c.33.67.67,1.33,1,2-.33.67-.67,1.33-1,2l-2,1C1679.22,189.4,1679.4,190.39,1680,187Zm98,0,2,2-2,1Zm835,0c.33.67.67,1.33,1,2C2613.67,188.33,2613.33,187.67,2613,187Zm-1149,1h3v6h-4l-2-2c.33-1,.67-2,1-3Zm-987,1c4,.4,3.91.33,6,2l-2,3c-3.64-.64-3-.4-5-2C476.33,191,476.67,190,477,189Zm964,0,2,2-4,2C1439.67,191.67,1440.33,190.33,1441,189Zm283,0h2c-1.39,1.92-.1.6-2,2Zm547,0c3,1.93,1.62.2,3,4l-2,1-3-1v-1ZM963,190h2c-1.39,1.92-.1.6-2,2Zm1262,0h3v4h-4C2224.33,192.67,2224.67,191.33,2225,190Zm420,0,4,2v1l-2,1h-1c-.33-.67-.67-1.33-1-2ZM928,191h3l1,2-1,2c-2.67-.46-1.51.62-4-2Zm72,1h2c-1.39,1.92-.1.6-2,2Zm1435,0h2c-1.39,1.92-.1.6-2,2Zm-82,1h3v4l-1,1h-1C2352.57,195.14,2352.41,196.55,2353,193Zm-1345,1h4v3C1008.17,195.68,1009.92,197,1008,194Zm499,0h3l-2,3-2-1C1506.33,195.33,1506.67,194.67,1507,194Zm222,0c1.68,2.37,1.9,2,1,5C1728.22,196.4,1728.4,197.39,1729,194Zm-770,2,1,2Zm528,0h2c-1.39,1.92-.1.6-2,2Zm283,1,3,2c-.33.67-.67,1.33-1,2l-3-1C1769.33,199,1769.67,198,1770,197Zm-741,2h3l-2,2C1029.67,200.33,1029.33,199.67,1029,199Zm452,1c.67,1.33,1.33,2.67,2,4l-2,1-2-2Zm1184,0h3c-.33,1-.67,2-1,3ZM541,201h2l-1,3h-1l-1-1v-1Zm322,0c2.78,2.26,2.41,1.11,3,6l-3,1-3-3Zm843,2h4v1c-.33,1-.67,2-1,3l-3-1Zm-380,1,2,2h-3C1325.33,205.33,1325.67,204.67,1326,204Zm100,1h2c-1.39,1.92-.1.6-2,2Zm-412,2,4,2-1,3-3-2Zm705,0h2c-1.39,1.92-.1.6-2,2Zm691,0,5,1c-.64,3.63-.4,3-2,5C2410.57,210.72,2410.82,211.4,2410,207ZM536,208c3,1.93,1.62.2,3,4l-2,1C535.22,210.4,535.4,211.39,536,208Zm941,0h3c-.33,1.33-.67,2.67-1,4l-3-1C1476.33,210,1476.67,209,1477,208Zm1272,0h3c-.67,1.33-1.33,2.67-2,4l-2-2C2748.33,209.33,2748.67,208.67,2749,208ZM989,209c3.64,1.14,2.74,1.13,5,3l-1,2C987.51,212.77,988.39,213.49,989,209Zm-189,1h2c.33,1.67.67,3.33,1,5-3.59-.72-2.87-.7-5-2Zm772,0h2c-.33,1-.67,2-1,3h-1l-1-1v-1Zm-111,1c3,1.93,1.62.2,3,4l-2,2C1459.22,213.51,1459.55,214.85,1461,211Zm754,0h2c-1.39,1.92-.1.6-2,2Zm526,0h2c-1.39,1.92-.1.6-2,2ZM491,212c3,1.93,1.62.2,3,4h-4C490.33,214.67,490.67,213.33,491,212Zm961,0,2,2-3,1C1451.33,214,1451.67,213,1452,212Zm235,0h2c-1.39,1.92-.1.6-2,2Zm52,1,2,2v1h-4v-2Zm-802,2h4l-2,4-3-1Zm1664,0h2c-1.39,1.92-.1.6-2,2Zm-1075,1h2c-1.39,1.92-.1.6-2,2Zm253,0h2c-1.39,1.92-.1.6-2,2Zm830,1c4.2,1.54,2.45-.18,4,4h-4Zm-1551,1,4,2-2,3-2-1Zm-315,1,1,3h-1l-1-1Zm1646,0v5l-2-2Zm-870,1c3,1.93,1.62.2,3,4l-1,1h-1C1518.57,222.14,1518.41,223.55,1519,220Zm-947,1c3,1.94,1,.33,2,3Zm227,0h3v1l-3,1Zm32,0h2C831.26,222,832.78,221.91,831,221Zm79,0h2c-1.39,1.92-.1.6-2,2Zm7,0,5,1-2,3h-1l-3-1Zm63,0,4,3v1l-3,3-3-2v-4Zm482,3h3l-2,2C1462.67,225.33,1462.33,224.67,1462,224Zm1340,2h2c-1.39,1.92-.1.6-2,2ZM954,227c2.07,2,1,.38,2,4h-3Zm43,0h3l3,3-3,3C997.22,230.74,997.59,231.89,997,227Zm65,1h2c-1.39,1.92-.1.6-2,2Zm500,0,3,4-3,1h-1C1561.33,231.33,1561.67,229.67,1562,228Zm189,1h3v1l-3,1Zm-7,1c.67,1.33,1.33,2.67,2,4l-2,1h-2c-.33-.67-.67-1.33-1-2,.33-.67.67-1.33,1-2Zm-209,2,3,1c.33,1.67.67,3.33,1,5l-2,1-4-2v-1C1533.67,234.67,1534.33,233.33,1535,232ZM482,233h2c-1.39,1.92-.1.6-2,2Zm2301,0,3,1c-1.93,3-.2,1.62-4,3C2782.33,235.67,2782.67,234.33,2783,233Zm-1038,3h3l2,2c-.33,1-.67,2-1,3h-4Zm-992,2c1.6,2,1.3,1.39,2,5l-4-2Zm1668,1,4,2v3l-1,1h-4l-1-1C2419.72,240.41,2419.7,241.13,2421,239ZM891,240c3,1.26,1.2,0,3,2h-1Zm1978,0,5,1v4l-2,1-3-1c-.33-.67-.67-1.33-1-2C2868.33,242,2868.67,241,2869,240ZM573,241l2,2-2,3h-1l-1-3,2-1Zm579,1,4,2c-.33,1-.67,2-1,3l-3-1Zm1231,0c3,1.26,1.2,0,3,2h-1ZM780,244l4,2v2l-1,2C776.77,248.58,778.06,248.34,780,244Zm199,0,2,2-1,1-2-1Zm-8,1h2c-.64,3.64-.4,3-2,5l-3-2,1-2Zm191,0c2,1.8.71,0,2,3h-1l-2-1C1161.33,246.33,1161.67,245.67,1162,245Zm1047,0h4v3l-3,3-3-3ZM378,246l1,3h-1l-1-1Zm565,1h3v1l-3,1Zm1498,6,2,2-1,1-2-1C2440.33,254.33,2440.67,253.67,2441,253ZM593,257c2.42,1.92,1.62.64,3,4-3.4,2.07-2.53,1.86-6,0Zm2183,0h3c.67,1.33,1.33,2.67,2,4l-3,1-3-3C2775.33,258.33,2775.67,257.67,2776,257ZM532,260h3v4l-1,1h-1C531.57,262.14,531.41,263.55,532,260Zm118,0c3,1.93,1.62.2,3,4h-4Zm242,0h3l-2,4h-1l-1-3Zm-570,1h4l-3,4Zm319,1h2c-1.39,1.92-.1.6-2,2Zm2212,0,5,1c-.33.67-.67,1.33-1,2l-3,1C2853.67,264.67,2853.33,263.33,2853,262Zm-1296,1c.33.67.67,1.33,1,2C1557.67,264.33,1557.33,263.67,1557,263Zm804,0h2c-1.39,1.92-.1.6-2,2Zm473,0c.33.67.67,1.33,1,2h-2C2833.33,264.33,2833.67,263.67,2834,263ZM365,264h4v1l-4,2Zm1223,1,3,3c-.33.67-.67,1.33-1,2h-4Zm823,0,3,3v1h-4C2410.33,267.67,2410.67,266.33,2411,265Zm-1312,1c2,1.8.71,0,2,3h-2Zm1124,1h5c-.67,1.33-1.33,2.67-2,4ZM317,268h2c-1.39,1.92-.1.6-2,2Zm1929,0h2c-1.39,1.92-.1.6-2,2Zm251,0h4c-.67,1.33-1.33,2.67-2,4C2498.33,270.67,2497.67,269.33,2497,268Zm-131,1c3.4,1.35,2.07.61,4,3v1h-4ZM531,270h2c-1.8,2,0,.71-3,2Zm1921,1h3v4h-1l-3-2C2451.33,272.33,2451.67,271.67,2452,271Zm-1332,1c3.14,2.06,2.07.48,3,5h-5v-1C1118.67,274.67,1119.33,273.33,1120,272ZM39,273l5,2-1,3-2,1-4-2Zm522,0,1,2Zm163,1,3,4v1h-3l-2-4Zm32,0c1.92,1.39.6.1,2,2Zm158,0c3,3.46,2.6,1.8,1,6h-3l-1-3Zm670,1c2,1.8.71,0,2,3h-2Zm919,1c3,1.26,1.2,0,3,2h-1ZM854,281c3,1.93,1.62.2,3,4l-1,1h-1C853.57,283.14,853.41,284.55,854,281Zm-127,3c1.63,2.52,1,.17,0,3h-1Zm459,0c2,1.8.71,0,2,3Zm-714,1h2c-1.39,1.92-.1.6-2,2Zm1950,0h2c-.33,1-.67,2-1,3h-1l-1-1v-1ZM375,286c3,1.93,1.62.2,3,4l-2,2c-3.89-2.72-2.42-.71-3-5Zm543,0h2c-1.39,1.92-.1.6-2,2Zm-221,5h3l-2,2Zm156,0h2c-1.39,1.92-.1.6-2,2Zm58,0,4,2-3,3C910.22,293.4,910.4,294.39,911,291Zm279,0,5,1c-.33,1-.67,2-1,3-2.51-.37-2.08-.22-5-2C1189.33,292.33,1189.67,291.67,1190,291ZM101,292l3,2h-3Zm370,0,3,3-2,2C470.22,294.4,470.4,295.39,471,292Zm2008,1c1.92,1.39.6.1,2,2ZM677,294l3,2-4,2Zm1766,1,5,1v4l-3,1C2442.24,298.26,2442.46,299,2443,295ZM413,297h4v3l-2,3h-1l-2-1ZM52,298l2,4-2,1-2-2Zm44,0c3.14,2.06,2.07.48,3,5H95Zm1033,1c3,1.93,1.62.2,3,4-.33.67-.67,1.33-1,2l-1-1h-4v-2Zm1744,1h3v4h-4C2872.33,302.67,2872.67,301.33,2873,300Zm9,2h2c-1.39,1.92-.1.6-2,2Zm-1461,1h2c-1.78,3.58.53,1.18-3,3C1420.33,305,1420.67,304,1421,303Zm781,1,3,1c-.67,1.33-1.33,2.67-2,4l-3-3Zm-791,1,4,2v2l-2,1h-2Zm782,1h2c-.33,1-.67,2-1,3h-1l-1-1v-1ZM939,309l1,2Zm-505,3,3,4-2,1-2-2Zm2054,0c3,1.93,1.62.2,3,4h-4C2487.33,314.67,2487.67,313.33,2488,312Zm9,2h2C2497.25,315,2498.78,314.91,2497,314ZM664,317l5,1v4l-2,1-3-1-1-2Zm1042,0,2,2C1706.08,317.61,1707.4,318.9,1706,317Zm64,1v5h-3l-2-1v-4ZM42,319h2l-1,3H42l-1-1v-1Zm2882,2,5,1c-.33,1.67-.67,3.33-1,5h-3l-1-1Zm-1215,3,2,3-2,2c-.67-1.33-1.33-2.67-2-4Zm1173,8h2c-1.39,1.92-.1.6-2,2Zm-1737,1,4,2-2,5-4-2Zm27,0,4,1c-.33,1.33-.67,2.67-1,4l-3-2Zm-738,1h2c-1.39,1.92-.1.6-2,2Zm997,0c.33.67.67,1.33,1,2C1431.67,335.33,1431.33,334.67,1431,334Zm1038,1c2,1.8.71,0,2,3h-1l-2-1C2468.33,336.33,2468.67,335.67,2469,335ZM920,336l4,1v1l-4,2Zm829,1c1.78,3.23,2.61,2-1,4C1748.33,339.67,1748.67,338.33,1749,337Zm1153,1c3.83,1.32,2.08,0,4,3h-4ZM948,341c2.78,2.26,2.41,1.11,3,6l-3,1-2-1C946.49,343,946.64,343.26,948,341Zm1493,3h3l-2,2C2441.67,345.33,2441.33,344.67,2441,344Zm21,3,3,2v1h-4v-1C2461.33,348.33,2461.67,347.67,2462,347Zm-1307,2,4,2c-.67,2-1.33,4-2,6h-3l-1-1C1153.29,351.63,1153.58,351.36,1155,349Zm-252,1c2,1.8.71,0,2,3h-2Zm284,1c3,1.94,1,.33,2,3Zm214,0,4,2c-.33.67-.67,1.33-1,2h-4C1400.33,353.67,1400.67,352.33,1401,351Zm1076,4c3,1.93,1.62.2,3,4l-4-2C2476.33,356.33,2476.67,355.67,2477,355Zm-1097,1,2,2-3,1C1379.33,358,1379.67,357,1380,356Zm1549,2c1.92,1.39.6.1,2,2Zm-1178,1h2c-1.39,1.92-.1.6-2,2Zm751,2,4,2v3l-2,2h-1C2501.35,365.12,2501.06,364.79,2502,361ZM187,367l3,1v4C185.47,370.08,186.39,371.35,187,367Zm1237,1,4,2c-1.14,3.64-1.13,2.74-3,5l-3-2v-1C1422.67,370.67,1423.33,369.33,1424,368Zm1049,1h5v3c-.33.67-.67,1.33-1,2-3.63-.64-3-.4-5-2C2472.33,371,2472.67,370,2473,369ZM196,370h2c-1.8,2,0,.71-3,2Zm517,4,4,2v2l-1,1h-4C712.33,377.33,712.67,375.67,713,374Zm453,3h4v1l-2,2Zm808,3c1.92,1.39.6.1,2,2Zm-785,1c.33,1,.67,2,1,3h-1l-1-1C1188.33,382.33,1188.67,381.67,1189,381Zm1719,1,5,1-3,3C2909.33,384.67,2908.67,383.33,2908,382ZM115,383l3,1v3l-3,1-2-2Zm1866,1c3,1.93,1.62.2,3,4l-4-2C1980.33,385.33,1980.67,384.67,1981,384Zm936,2c3,1.94,1,.33,2,3ZM106,388h2c-1.39,1.92-.1.6-2,2Zm2342,1c2.21,2.06,1.88,1.38,3,5-3.59-.72-2.87-.7-5-2Zm31,1c.33.67.67,1.33,1,2C2479.67,391.33,2479.33,390.67,2479,390ZM134,393l3,2h-3Zm1707,5c2.56,2.79,2.47-.07,3,6l-2,1-4-4ZM155,399l3,2v1h-4v-1Zm564,0h3v3l-4-1Zm1731,1c2,1.8.71,0,2,3ZM170,401h2c-1.39,1.92-.1.6-2,2Zm597,0,2,2h-3Zm1319,2,4,3c-.33,1-.67,2-1,3l-5-1v-4Zm-410,1,2,2-3,1C1675.33,406,1675.67,405,1676,404Zm-915,2,2,4h-4Zm-611,4,4,2v1l-4,1Zm483,0c3,1.93,1.62.2,3,4h-4Zm1062,0c3,1.94,1,.33,2,3ZM641,411h3l-2,2Zm491,1,2,2-1,1C1132.67,414,1132.33,413,1132,412Zm8,0,4,2c-.33,1-.67,2-1,3h-1C1140.7,414.88,1140.77,415.55,1140,412Zm539,0h3l2,2-2,2h-2C1679.67,414.67,1679.33,413.33,1679,412Zm-574,2,3,1c.33,1.33.67,2.67,1,4l-1,1c-4.42-.77-3.71-.6-6-3Zm-398,1c-.42.93.8.68-1,2Zm232,0h2c-1.39,1.92-.1.6-2,2Zm761,2,5,1v1c-.33.67-.67,1.33-1,2l-5-2C1699.33,418.33,1699.67,417.67,1700,417Zm-756,4h4v3C944.17,422.68,945.92,424,944,421Zm-780,1,4,1c-1.06,3.65-.81,2.94-3,5-4.2-2-4.63-1.44-5-5C163.06,423,161.4,424,164,422Zm1488,0c.33.67.67,1.33,1,2C1652.67,423.33,1652.33,422.67,1652,422Zm171,0,4,2v1l-2,1h-1c-.33-.67-.67-1.33-1-2ZM119,424c1.68,2.1,1.55,2,2,6h-4l-1-3Zm1683,0h2c-1.39,1.92-.1.6-2,2Zm-340,1c2,1.8.71,0,2,3h-2Zm516,2c3.58,1.78,1.18-.53,3,3h-3Zm105,2c1.85,2.79.72.14,1,4h-1l-2-2v-1Zm-412,2c.33.67.67,1.33,1,2C1671.67,432.33,1671.33,431.67,1671,431Zm186,1h2c-1.8,2,0,.71-3,2C1856.33,433.33,1856.67,432.67,1857,432ZM459,433h3l2,2c-1.83,3.48-.84,2.69-5,4l-1-1Zm-317,1,8,3-2,3h-1l-7-3Zm1813,1c3,1.93,1.62.2,3,4l-2,2c-2.7-2.19-1.9-.71-3-5ZM934,437h2c-1.39,1.92-.1.6-2,2Zm42,0,5,2v3l-1,1c-3.59-.72-2.87-.7-5-2Zm1020,1c1.92,1.39.6.1,2,2Zm68,2h2c-1.39,1.92-.1.6-2,2Zm-962,2,2,2-2,2-3-1v-1l1-1Zm300,1h3v1l-3,1Zm10,0c3.14,2.06,2.07.48,3,5h-3l-2-2Zm-823,1c1.92,1.39.6.1,2,2Zm21,2,3,2v1h-4v-1Zm850,0h3c-.67,1.33-1.33,2.67-2,4h-1c-.33-1-.67-2-1-3Zm-508,1,4,3v1h-4Zm-672,2c3.64,1.14,2.74,1.13,5,3l-3,3C279.24,452.26,279.46,453,280,449Zm1587,1,2,1v4h-1l-3-2Zm259,0,2,2-1,1-2-1v-1Zm55,0,4,1v4h-2l-3,1c-.33-.67-.67-1.33-1-2C2179.67,452.67,2180.33,451.33,2181,450Zm-546,3h4c.33.67.67,1.33,1,2-.33,1.33-.67,2.67-1,4h-4Zm482,0h3c-.67,1.33-1.33,2.67-2,4l-2-2C2116.33,454.33,2116.67,453.67,2117,453Zm-1036,1h3c-.33,1-.67,2-1,3Zm580,0h4v4h-3C1661.67,456.67,1661.33,455.33,1661,454Zm232,2,4,2v2l-2,2h-3C1892.33,460,1892.67,458,1893,456Zm-208,4,3,1c-.33,1.33-.67,2.67-1,4l-3-3C1684.33,461.33,1684.67,460.67,1685,460Zm88,0c.33,1,.67,2,1,3l-2-1C1772.33,461.33,1772.67,460.67,1773,460ZM466,461l4,2v1l-3,1h-1c-.33-1-.67-2-1-3Zm1014,1c2.42,1.92,1.62.64,3,4-3.4,2.07-2.53,1.86-6,0Zm176,0c3.64,1.14,2.74,1.13,5,3-.33,1-.67,2-1,3l-2,1-3-2C1655.33,465.33,1655.67,463.67,1656,462Zm188,0h4v4c-3.59-.72-2.87-.7-5-2v-1Zm-909,1h4l-1,3h-1Zm484,0,4,2-4,2Zm-271,1,2,2-1,1-2-1C1147.33,465.33,1147.67,464.67,1148,464Zm706,0h2c-1.39,1.92-.1.6-2,2Zm808,2,4,2-2,2h-2ZM623,467l4,2v2l-1,1c-3.64-.64-3-.4-5-2Zm287,0,4,2-1,4h-3l-1-1C909.33,470.33,909.67,468.67,910,467Zm229,0h3c-.64,3.64-.4,3-2,5l-3-2Zm483,0c3,1.26,1.2,0,3,2h-1Zm838,0h4v3c-2,1.6-1.39,1.3-5,2C2459.33,470.33,2459.67,468.67,2460,467Zm-689,1,4,2-4,2ZM242,469h3l-2,2Zm21,1h4v1l-4,2Zm2259,0,2,2-1,1-2-1v-1ZM487,471c.33,1,.67,2,1,3h-1l-1-1C486.33,472.33,486.67,471.67,487,471Zm2183,0h3l-2,2C2670.67,472.33,2670.33,471.67,2670,471ZM424,472h2c-1.39,1.92-.1.6-2,2Zm995,0c.33,1,.67,2,1,3h-1l-1-1C1418.33,473.33,1418.67,472.67,1419,472Zm257,0h2c-.33,1-.67,2-1,3h-1l-1-1v-1Zm563,0h2c-1.39,1.92-.1.6-2,2Zm-524,1c3.14,2.06,2.07.48,3,5l-3,1-2-1Zm-228,2h4c.33,1,.67,2,1,3l-2,3h-1l-4-2C1485.67,477.67,1486.33,476.33,1487,475Zm703,0,3,2-4,2C2189.33,477.67,2189.67,476.33,2190,475ZM952,476h2c-1.39,1.92-.1.6-2,2Zm771,0,3,2h-3ZM144,477h3v4h-4l-1-2Zm1557,0c2,1.8.71,0,2,3h-2Zm818,0c2.06,3.25,3.11,2.72-1,5C2518.33,480.33,2518.67,478.67,2519,477Zm-286,1h3v4h-4C2232.33,480.67,2232.67,479.33,2233,478Zm373,0h2c-1.39,1.92-.1.6-2,2Zm-899,4,4,2c-.33.67-.67,1.33-1,2h-4C1706.33,484.67,1706.67,483.33,1707,482ZM294,483l1,2Zm1404,0c2.07,2,1,.38,2,4h-1l-2-2C1697.33,484.33,1697.67,483.67,1698,483Zm68,0c4.5,1.39,3.6.52,5,5l-3,2-3-2v-1C1765.33,485.67,1765.67,484.33,1766,483ZM137,484h2c-1.39,1.92-.1.6-2,2Zm1552,1,4,2v1l-3,1-2-2C1688.33,486.33,1688.67,485.67,1689,485Zm181,0c.33.67.67,1.33,1,2C1870.67,486.33,1870.33,485.67,1870,485Zm-440,1c3.83,1.32,2.08,0,4,3h-5v-1C1429.33,487.33,1429.67,486.67,1430,486Zm186,0,3,2-4,2C1615.33,488.67,1615.67,487.33,1616,486Zm221,0,4,2v2l-2,1-3-3C1836.33,487.33,1836.67,486.67,1837,486Zm-384,1,2,2-1,1C1453.67,489,1453.33,488,1453,487ZM422,488h3v1l-3,1Zm2054,0h3c-.67,1.33-1.33,2.67-2,4h-1Zm148,0c3,1.93,1.62.2,3,4h-1l-3-2C2623.33,489.33,2623.67,488.67,2624,488ZM431,489l4,3-2,2h-2Zm1118,0,2,2-1,1-2-1v-1Zm186,0,3,2v1l-3,1Zm5,0c2.21,2.06,1.88,1.38,3,5h-1C1739.24,491.57,1739.09,492.94,1740,489ZM416,490l3,3-4,2C415.33,493.33,415.67,491.67,416,490ZM72,492l5,1v4C71.3,497.76,71.37,497.87,72,492Zm878,0,4,1-2,4C950.4,495,950.7,495.61,950,492Zm641,2,4,2v3l-1,1c-3.59-.72-2.87-.7-5-2C1589.67,496.67,1590.33,495.33,1591,494Zm587,0c3,1.26,1.2,0,3,2h-1Zm-862,2h2c-.33,1-.67,2-1,3h-1l-1-1v-1Zm524,0h3c-.33,1-.67,2-1,3Zm817,0c.33.67.67,1.33,1,2C2657.67,497.33,2657.33,496.67,2657,496ZM389,497l5,2v1c-.87,4.5-.92,3.44-3,6l-3-1c-.33-1.67-.67-3.33-1-5Zm1158,0,4,2-3,3h-1c-.33-.67-.67-1.33-1-2C1546.33,499,1546.67,498,1547,497Zm-589,2c2,1.8.71,0,2,3h-2Zm-848,2c.33.67.67,1.33,1,2h-2C109.33,502.33,109.67,501.67,110,501Zm136,0,5,1c-.64,3.64-.4,3-2,5a11.27,11.27,0,0,1-4-4Zm1040,0c.33.67.67,1.33,1,2C1286.67,502.33,1286.33,501.67,1286,501Zm213,0,4,2-2,2-3-2C1498.33,502.33,1498.67,501.67,1499,501Zm1195,0c3.48,1.83,2.69.84,4,5h-4l-2-2Zm-1204,1c3.06,4.1,2.64,2.42,0,7h-1l-2-1C1487.87,503.5,1487.92,504.56,1490,502Zm-274,1h2c-1.39,1.92-.1.6-2,2Zm355,0c.33.67.67,1.33,1,2C1571.67,504.33,1571.33,503.67,1571,503Zm29,0h3l-2,2C1600.67,504.33,1600.33,503.67,1600,503Zm-284,1,4,2v2l-2,1C1316.4,507,1316.7,507.61,1316,504Zm96,1c4,1.37,3,1,5,4-.33.67-.67,1.33-1,2-2.9-.53-4.9.79-3-2C1411.05,507.58,1411.41,509.08,1412,505Zm110,1c2,1.8.71,0,2,3h-1l-2-1C1521.33,507.33,1521.67,506.67,1522,506Zm238,2c3,1.26,1.2,0,3,2h-1ZM281,509l4,2-2,2h-2Zm144,0,1,2Zm763,0c.33.67.67,1.33,1,2C1188.67,510.33,1188.33,509.67,1188,509Zm1284,0h2c-1.39,1.92-.1.6-2,2Zm-1114,1c4.2,1.54,2.45-.18,4,4h-3l-2-2C1357.33,511.33,1357.67,510.67,1358,510Zm10,0h2c-1.8,2,0,.71-3,2C1367.33,511.33,1367.67,510.67,1368,510Zm368,0h2c-1.39,1.92-.1.6-2,2Zm-520,1h3l2,2-4,2C1216.67,513.67,1216.33,512.33,1216,511Zm383,0c4.2,1.54,2.45-.18,4,4l-2,1-2-1ZM290,512l3,2h-3Zm1262,1c2.4,3.5,3.12,3.33-2,5Zm188,0,3,1c-1.93,3-.2,1.62-4,3C1739.33,515.67,1739.67,514.33,1740,513Zm409,0c2.42,1.91,1.62.64,3,4-.33.67-.67,1.33-1,2h-1l-4-1C2147.14,514.36,2147.13,515.26,2149,513Zm477,0h3l2,2v2l-1,1h-4Zm-1541,2h2c-1.39,1.92-.1.6-2,2Zm455,2h3l2,2-5,5c-1.36-2.27-1.45-2-2-6Zm107,0,7,1c.33.67.67,1.33,1,2v2l-1,1C1647.53,522.57,1646.38,522,1647,517Zm-138,2,3,2v1l-3,1h-1C1508.33,521.67,1508.67,520.33,1509,519ZM82,520l3,2-1,2H80Zm1535,0c.33.67.67,1.33,1,2C1617.67,521.33,1617.33,520.67,1617,520Zm140,0,2,2h-3C1756.33,521.33,1756.67,520.67,1757,520ZM134,521c3,1.94,1,.33,2,3Zm1122,0h3l2,2-3,5-3-2v-1C1255.33,523.67,1255.67,522.33,1256,521Zm133,0,4,3-3,4h-1l-2-1v-4ZM210,523h2c-1.39,1.92-.1.6-2,2Zm20,0h4v1l-2,2Zm1367,0c.33.67.67,1.33,1,2C1597.67,524.33,1597.33,523.67,1597,523Zm33,1,5,1c-.64,3.64-.4,3-2,5l-3-1Zm46,0,4,2-3,4-3-2C1674.67,526.67,1675.33,525.33,1676,524Zm57,0c.33,1,.67,2,1,3l-2-1C1732.33,525.33,1732.67,524.67,1733,524Zm15,0,6,1v5h-2l-3,1-1-1ZM444,525c3.17,1.83,4.42,2.36,6,6h-5C443,528.16,443.53,529,444,525Zm-30,1,1,2Zm925,0c.67,2.67,1.33,5.33,2,8-7.21-.46-5.53-.87-12,0v-4C1335.68,530.17,1335.46,530.55,1339,526Zm307,0c3,1.93,1.62.2,3,4l-2,1C1645.22,528.4,1645.4,529.39,1646,526Zm1043,0,4,2-2,2C2690.33,528.67,2689.67,527.33,2689,526ZM128,527l4,2v3l-1,1C124.77,531.58,126.06,531.34,128,527Zm269,0c2.07,2,1,.38,2,4l-4-1Zm764,3h4v3l-3,3-3-3Zm447,0,2,2-1,1-2-1v-1Zm49,0,2,2C1657.08,530.61,1658.4,531.9,1657,530Zm985,1,2,2h-3C2641.33,532.33,2641.67,531.67,2642,531Zm-1579,2h3v1l-3,1Zm219,0,6,3v1l-5,1C1281.22,535.4,1281.4,536.39,1282,533Zm279,0,3,4-2,1-2-2C1560.33,535,1560.67,534,1561,533ZM441,534l4,2v2l-2,1h-2Zm124,0h2c-1.39,1.92-.1.6-2,2Zm528,0,3,2-2,2-2-2C1092.33,535.33,1092.67,534.67,1093,534Zm636,0h3l3,8h-2l-3,1c-.33-1-.67-2-1-3Zm-160,1h2c-1.39,1.92-.1.6-2,2Zm29,1c2,1.8.71,0,2,3h-1l-2-1C1597.33,537.33,1597.67,536.67,1598,536Zm1050,0,4,2c-.33.67-.67,1.33-1,2h-3ZM557,537l4,2-2,2h-2Zm775,0,5,2v3l-1,1c-3.63-.64-3-.4-5-2C1331.33,539.67,1331.67,538.33,1332,537Zm130,0h2c-.33,1-.67,2-1,3h-1l-1-1v-1Zm8,0h4v4l-1,1h-1l-3-4Zm-288,1h2c-1.39,1.92-.1.6-2,2Zm406,1,7,4c-2.06,2.21-1.38,1.88-5,3C1588.25,541.71,1587.89,543.67,1588,539Zm49,0c1.63,2.52,1,.17,0,3h-1C1636.33,541,1636.67,540,1637,539ZM69,540h2l-2,3Zm998,0,5,1v1c-.33.67-.67,1.33-1,2C1066.8,542.46,1068.55,544.18,1067,540Zm51,0c4,1.71,2.78.55,4,5l-1,1c-3.63-.64-3-.4-5-2C1116.67,542.67,1117.33,541.33,1118,540Zm67,0,3,3-2,2h-1Zm268,0,5,2-2,3h-3Zm242,0c3.14,2.06,2.07.48,3,5l-3,1-2-1Zm456,0h3v3l-4-1C2150.33,541.33,2150.67,540.67,2151,540ZM306,541l4,2c-1.83,3.48-.84,2.69-5,4l-1-1Zm981,0h2c-1.39,1.92-.1.6-2,2Zm222,0h2c-1.39,1.92-.1.6-2,2Zm65,0c1.6,2,1.3,1.39,2,5h-4Zm115,0c.33,1,.67,2,1,3h-1l-1-1C1688.33,542.33,1688.67,541.67,1689,541Zm-270,1c2,1.8.71,0,2,3h-2Zm209,0,4,2c-.33.67-.67,1.33-1,2h-4C1627.33,544.67,1627.67,543.33,1628,542Zm108,0,6,2c-.33,1.33-.67,2.67-1,4l-3-3C1735,543.06,1737,544.67,1736,542Zm968,0h2c-1.39,1.92-.1.6-2,2ZM348,543h2c-1.39,1.92-.1.6-2,2Zm1130,0c2,1.8.71,0,2,3h-2Zm173,1,4,2v1l-3,1C1651.67,546.67,1651.33,545.33,1651,544Zm55,0h3l2,2v2l-1,1h-4c-.33-1-.67-2-1-3C1705.33,545.33,1705.67,544.67,1706,544ZM384,545l2,2-1,1-2-1v-1Zm994,0h2c-.33,1-.67,2-1,3h-1l-1-1v-1Zm132,0,4,3-2,2h-2Zm45,0,2,2C1555.08,545.61,1556.4,546.9,1555,545Zm-152,1,5,1-2,3Zm62,0,10,4c-2.06,2.21-1.38,1.88-5,3-2.39-2.41-2.35-1.39-6-2-.33-1.33-.67-2.67-1-4Zm152,0,3,3c-.33,1.67-.67,3.33-1,5l-2-1c-.33-.67-.67-1.33-1-2C1616.33,549.33,1616.67,547.67,1617,546ZM100,548h3v4l-4-2Zm1326,0,3,2h-3Zm94,0c1.63,2.52,1,.17,0,3h-1C1519.33,550,1519.67,549,1520,548Zm107,0c2.68,3.5,3.14,1.5,0,5l-2-2Zm106,0h2c-1.39,1.92-.1.6-2,2Zm467,0h2c-1.8,2,0,.71-3,2C2199.33,549.33,2199.67,548.67,2200,548ZM145,549h2c-1.8,2,0,.71-3,2Zm1577,0c2.64,2.47,2,2.11,2,5l-2-1Zm60,0,4,2-4,2Zm219,0c3,1.93,1.62.2,3,4l-1,1-4-2Zm-963,1c1.92,1.39.6.1,2,2Zm268,0,5,2c-.33.67-.67,1.33-1,2h-1C1305.27,552,1307.36,554.43,1306,550Zm9,0h2c-1.39,1.92-.1.6-2,2Zm22,0h3v3l-4-1C1336.33,551.33,1336.67,550.67,1337,550Zm84,0h3l2,2c-.67,2-1.33,4-2,6h-3Zm165,0,4,3c-.33,1.67-.67,3.33-1,5h-1l-5-1v-4ZM135,551h4l1,2-1,2h-1C134.27,553,136.37,555.43,135,551Zm1594,0,4,2c-.33,1.33-.67,2.67-1,4h-3l-1-1C1728.33,554.33,1728.67,552.67,1729,551ZM108,552h3l-2,2Zm223,0,1,4h-4l1-3Zm1423,0,5,1-3,3h-1C1754.67,554.67,1754.33,553.33,1754,552Zm439,0,3,2-2,3-3-2Zm-813,1,5,1v1c-.33.67-.67,1.33-1,2C1379.8,555.46,1381.55,557.18,1380,553Zm-100,1,5,2v4h-3C1281.33,558,1280.67,556,1280,554Zm50,0c3,1.93,1.62.2,3,4h-3c-.33-1-.67-2-1-3Zm20,0h2C1350.25,555,1351.78,554.91,1350,554Zm178,0,4,2v3l-6-1v-1Zm481,0h2c-1.39,1.92-.1.6-2,2Zm-619,1c.33.67.67,1.33,1,2C1390.67,556.33,1390.33,555.67,1390,555Zm313,0c3,1.93,1.62.2,3,4h-3Zm433,0h2c-1.39,1.92-.1.6-2,2Zm-849,1h2c-1.39,1.92-.1.6-2,2Zm275,0h2l-2,3Zm107,1h2c-1.39,1.92-.1.6-2,2Zm-317,1c.33.67.67,1.33,1,2C1352.67,559.33,1352.33,558.67,1352,558Zm434,0h3v1l-3,1Zm577,0c2,1.8.71,0,2,3h-1l-2-1C2362.33,559.33,2362.67,558.67,2363,558Zm-1181,1h3c.33.67.67,1.33,1,2-.33.67-.67,1.33-1,2h-1l-2-1Zm105,0,3,3-4,2c-.33-.67-.67-1.33-1-2Zm317,0c3,1.26,1.2,0,3,2h-1Zm14,1c.33.67.67,1.33,1,2C1618.67,561.33,1618.33,560.67,1618,560Zm111,0h2c-1.39,1.92-.1.6-2,2ZM251,561l4,2-2,2h-2Zm362,1h4c-1.54,4.2.18,2.45-4,4Zm578,0h2c-1.8,2,0,.71-3,2C1190.33,563.33,1190.67,562.67,1191,562Zm250,0c4,.4,3.91.33,6,2l-2,3h-3C1441.67,565.33,1441.33,563.67,1441,562Zm163,0,2,2-2,1Zm8,0,4,2-2,2h-2Zm162,0c3,1.26,1.2,0,3,2h-1ZM260,563c2,1.8.71,0,2,3Zm863,0,4,2c-.33.67-.67,1.33-1,2h-4C1122.33,565.67,1122.67,564.33,1123,563Zm224,0c5.31.43,6.54.9,9,4h-5c-.61.19-11.69,1.46-7-1C1346.18,565.07,1345,566.43,1347,563Zm-215,1h3l-2,2C1132.67,565.33,1132.33,564.67,1132,564Zm395,0h2c-1.39,1.92-.1.6-2,2Zm54,0c4.71.48,6.92.75,9,4,.33,1.33.67,2.67,1,4l-9-2C1581.67,568,1581.33,566,1581,564Zm365,0h3v1l-3,1Zm-222,1c3.65,1.06,2.94.81,5,3l-2,3h-3l-1-1C1723.33,568.33,1723.67,566.67,1724,565ZM48,566c2,1.8.71,0,2,3H48Zm557,0h3l-2,2Zm458,0c4.2,1.54,2.45-.18,4,4C1062.8,568.46,1064.55,570.18,1063,566Zm393,0h4v1l-2,2Zm201,0h2l-2,3Zm9,0h3v4l-1,1h-1C1665.57,568.14,1665.41,569.55,1666,566Zm-571,1c.33.67.67,1.33,1,2C1095.67,568.33,1095.33,567.67,1095,567Zm88,0,5,1c-.33,1.67-.67,3.33-1,5h-1l-4-1C1182.33,570.33,1182.67,568.67,1183,567Zm549,0,4,2v2l-2,1-3-3C1731.33,568.33,1731.67,567.67,1732,567Zm7,0c.67,1.33,1.33,2.67,2,4l-4-1ZM119,568h3l2,2v2l-2,1h-2C119.67,571.33,119.33,569.67,119,568Zm1377,0c.33,1,.67,2,1,3h-1Zm129,0,2,2-1,1-2-1v-1Zm-98,1h2c-1.39,1.92-.1.6-2,2Zm81,0h4v4C1607.8,571.46,1609.55,573.18,1608,569Zm102,0h4c-1.54,4.2.18,2.45-4,4Zm-472,1h4v3l-2,2C1238.4,573,1238.7,573.61,1238,570Zm119,6c-4-.4-3.91-.33-6-2l3-4h1C1356.36,572.27,1356.45,572,1357,576Zm174-6c3,1.93,1.62.2,3,4h-4C1530.33,572.67,1530.67,571.33,1531,570Zm222,0,2,2-1,1-2-1v-1Zm7,0c.33.67.67,1.33,1,2C1760.67,571.33,1760.33,570.67,1760,570Zm791,0c.33.67.67,1.33,1,2C2551.67,571.33,2551.33,570.67,2551,570Zm-1403,1,2,2C1148.08,571.61,1149.4,572.9,1148,571Zm309,0c1.63,2.52,1,.17,0,3h-1C1456.33,573,1456.67,572,1457,571Zm222,0,2,2-1,1-2-1C1678.33,572.33,1678.67,571.67,1679,571Zm26,0h3v4h-5v-1Zm-362,1h2c-1.8,2,0,.71-3,2C1342.33,573.33,1342.67,572.67,1343,572Zm118,1h3v1c-.33,1-.67,2-1,3l-3-1C1460.33,575,1460.67,574,1461,573Zm58,0,5,1-2,3h-4C1518.33,575.67,1518.67,574.33,1519,573Zm446,0c2.41,1.75,1.67,1,3,4l-4-2C1964.33,574.33,1964.67,573.67,1965,573Zm356,0,4,2c-.33,1.33-.67,2.67-1,4h-4c-.33-1-.67-2-1-3Zm-1038,1,2,2-1,1-2-1v-1Zm41,0,3,1-2,5h-1l-2-1Zm248,0c3,1.93,1.62.2,3,4h-3Zm84,0h7c-2.52,4.18-1.51,3-2,7h-4C1656.67,578.67,1656.33,576.33,1656,574Zm144,0,2,2-1,1C1800.67,576,1800.33,575,1800,574Zm549,0c2.41,1.75,1.67,1,3,4l-3,1-2-1v-1ZM67,575l3,2-1,2-3-1Zm1000,0c.33,1,.67,2,1,3h-1l-1-1C1066.33,576.33,1066.67,575.67,1067,575Zm233,0h4c.33.67.67,1.33,1,2-.33,1-.67,2-1,3l-2,1-4-2C1298.67,577.67,1299.33,576.33,1300,575Zm411,0c1.63,2.52,1,.17,0,3h-1C1710.33,577,1710.67,576,1711,575Zm-886,1,4,2-3,4-3-3Zm336,0,5,1c-.33,1.67-.67,3.33-1,5h-3l-1-1Zm62,6c.33-2,.67-4,1-6h4v2c.33,1.33.67,2.67,1,4Zm108-6c.33.67.67,1.33,1,2C1331.67,577.33,1331.33,576.67,1331,576Zm145,0,5,4-2,2a20.21,20.21,0,0,1-4-4C1475.33,577.33,1475.67,576.67,1476,576Zm285,0h4c.33,1,.67,2,1,3l-3,3-3-3C1760.33,578,1760.67,577,1761,576Zm47,0h4v4h-4c-.33-.67-.67-1.33-1-2C1807.33,577.33,1807.67,576.67,1808,576Zm773,0h2c-1.39,1.92-.1.6-2,2Zm-1162,1h3c.33.67.67,1.33,1,2-.33.67-.67,1.33-1,2-3,1.28-2.25.63-4,3l-6-1c.33-1.33.67-2.67,1-4C1418.74,578.9,1417.07,580.78,1419,577Zm172,0,11,5c-.67,1.33-1.33,2.67-2,4h-1l-9-6C1590.33,579,1590.67,578,1591,577Zm128,0,4,2-3,3C1718.22,579.4,1718.4,580.39,1719,577ZM308,578l1,2Zm360,0h2c-1.39,1.92-.1.6-2,2Zm609,0,3,2Zm-727,1,3,1v2l-3,1h-1Zm472,0c2.7,2.19,1.9.71,3,5l-2,2-3-2C1020.93,581.42,1020.55,581.61,1022,579Zm265,0c2.21,2.06,1.88,1.38,3,5h-3c-.67-1.33-1.33-2.67-2-4Zm138,0h2C1425.25,580,1426.78,579.91,1425,579Zm86,0c1.92,1.39.6.1,2,2Zm1005,0,4,3-2,3h-4v-5ZM643,580l4,2v3h-5C642.33,583.33,642.67,581.67,643,580Zm405,0,4,2c-.33,1-.67,2-1,3l-3-2Zm188,0h3v1l-3,1Zm285,0h3v1l-2,3-2-2C1520.33,581.33,1520.67,580.67,1521,580Zm47,0h2c-1.39,1.92-.1.6-2,2Zm-424,1,2,2-2,1Zm222,1h4c.33.67.67,1.33,1,2-.33,1-.67,2-1,3-5.08,1.58-5.68,2.24-9-1C1366.17,584.41,1364,584.76,1366,582Zm216,0c.33.67.67,1.33,1,2C1582.67,583.33,1582.33,582.67,1582,582Zm442,0,5,1v4h-3l-2-1Zm-720,1h2c-.33,1-.67,2-1,3h-1l-1-1v-1Zm1275,0c2.21,2.06,1.88,1.38,3,5l-2,1-2-1v-1C2578.33,585.67,2578.67,584.33,2579,583Zm-1197,1c5.26,2.26,3.26,2.65,8,0,5.28,3.29,8.85,5.28,10,13l-2,1-3-1c-.67-2.67-1.33-5.33-2-8-4.63,1.46-8,.84-13-2Zm61,0c2,1.8.71,0,2,3Zm244,0h2c-1.39,1.92-.1.6-2,2Zm-951,1h4l-2,4-3-1Zm592,0,7,1v1c-.33,1.33-.67,2.67-1,4h-4l-2-2Zm292,0,4,2v1l-3,1C1620.67,587.67,1620.33,586.33,1620,585Zm-971,1,3,2v1l-2,1-2-1Zm577,0c2,1.8.71,0,2,3h-2Zm89,0h6c-.51,7.46-.26,3.37,1,10l-3,2q-2.51-4-5-8C1314.33,588.67,1314.67,587.33,1315,586Zm58,0h2c-1.8,2,0,.71-3,2C1372.33,587.33,1372.67,586.67,1373,586Zm4,0h2c-1.39,1.92-.1.6-2,2Zm35,0h3l-2,2C1412.67,587.33,1412.33,586.67,1412,586Zm124,0c2,1.8.71,0,2,3h-1l-2-1C1535.33,587.33,1535.67,586.67,1536,586ZM530,587h2c-1.39,1.92-.1.6-2,2Zm198,0h2l-1,3h-1l-1-1v-1Zm538,0h2C1266.25,588,1267.78,587.91,1266,587Zm80,0,4,2c-1.26,3,0,1.2-2,3l-3,1c-.33-.67-.67-1.33-1-2C1344.67,589.67,1345.33,588.33,1346,587Zm102,0h2c-1.78,3.58.53,1.18-3,3C1447.33,589,1447.67,588,1448,587Zm8,0c1.63,2.52,1,.17,0,3h-1C1455.33,589,1455.67,588,1456,587Zm142,0c5,.82,3-.67,5,3-1.87,2.09-.55.69-1,4l-2-3C1597.93,589,1599,590.63,1598,587Zm144,0,2,2-2,2h-1C1741.33,589.67,1741.67,588.33,1742,587Zm-622,1h3v1l-3,1Zm300,0,4,2-4,2Zm82,0c.33,1,.67,2,1,3h-1l-1-1C1501.33,589.33,1501.67,588.67,1502,588Zm252,0,2,2-3,1C1753.33,590,1753.67,589,1754,588Zm-496,1,6,1-2,5h-3l-1-1Zm98,1,4,2-2,2C1357.33,592.67,1356.67,591.33,1356,590Zm358,0,10,3c-.33,1.67-.67,3.33-1,5C1716.9,597.31,1713.39,594.88,1714,590Zm-310,1,2,2-1,1-2-1C1403.33,592.33,1403.67,591.67,1404,591Zm91,0h2c-1.39,1.92-.1.6-2,2Zm38,0c3.58,1.78,1.18-.53,3,3C1532,592.58,1534.21,593.59,1533,591Zm152,0h2C1685.25,592,1686.78,591.91,1685,591Zm61,0c1.6,2,1.3,1.39,2,5h-4v-4ZM570,592l4,2-3,4-2-1v-1Zm536,0c3.27,2.14,2.74,1.74,3,7l-3,1-3-2v-4Zm422,0h3c.33.67.67,1.33,1,2-.33.67-.67,1.33-1,2h-1l-2-1Zm27,0,3,4h-3l-2-1v-1ZM115,593c2.21,2.56,1.2.58,1,4l-3-1Zm1057,0,4,3-4,2Zm203,0c2.41,1.75,1.67,1,3,4h-4C1374.33,595.67,1374.67,594.33,1375,593Zm249,0h4c.33,1,.67,2,1,3-2.74,2.76-2,2.54-6,2-2.83,2.07-1.23,1.48-4,2v-5C1624.21,595.32,1621.12,597.55,1624,593Zm-498,1c5,1,1.48,1,6,0,.33,1.67.67,3.33,1,5h-8C1125.33,597.33,1125.67,595.67,1126,594Zm348,0,4,2-4,2Zm106,0h2c-1.39,1.92-.1.6-2,2Zm24,0,4,2-4,2c-.33-.67-.67-1.33-1-2v-1ZM125,595h4v3h-4Zm1160,0h4c-.67,1.33-1.33,2.67-2,4h-1C1285.67,597.67,1285.33,596.33,1285,595Zm65,0,2,2C1350.08,595.61,1351.4,596.9,1350,595Zm102,0c3.4,2.07,3.36,1.74,3,5h-4C1451.33,598.33,1451.67,596.67,1452,595Zm52,0h2C1504.25,596,1505.78,595.91,1504,595Zm7,0,6,1c-.33,1-.67,2-1,3l-2,1-3-2ZM330,596c2.07,2,1,.38,2,4h-4v-3Zm874,0c2,1.8.71,0,2,3h-2Zm101,0,5,1c2,1.35,1.61,1.12,3,3h-8Zm78,0,3,2-4,2C1382.33,598.67,1382.67,597.33,1383,596Zm105,0h3v4l-4-1C1487.33,598,1487.67,597,1488,596Zm8,1h3v4l-4-2C1495.33,598.33,1495.67,597.67,1496,597Zm61,0h3c-.67,1.33-1.33,2.67-2,4h-1Zm16,0,4,4v1h-5c-.33-1.33-.67-2.67-1-4Zm117,0,4,2c-.33.67-.67,1.33-1,2h-3Zm276,0,5,1q2,4.5,4,9c-3.65-.91-2,0-4-2C1967.71,602.54,1966.92,602.19,1966,597Zm-903,1h2c-.33,1-.67,2-1,3h-1l-1-1v-1Zm13,0,3,2h-3Zm165,0c2,1.8.71,0,2,3h-1l-2-1C1240.33,599.33,1240.67,598.67,1241,598Zm9,0,4,2c-.84,4.3-1.43,6.58-4,9l-2-1c-.33-1-.67-2-1-3Zm287,0c3,1.93,1.62.2,3,4l-4-2C1536.33,599.33,1536.67,598.67,1537,598Zm170,0h3v4l-4-2C1706.33,599.33,1706.67,598.67,1707,598ZM105,599l2,2-1,1-2-1Zm1093,0,4,3-2,3h-1l-4-2v-1Zm102,0h2c-1.39,1.92-.1.6-2,2Zm342,0,4,2v3l-1,1C1638.77,603.58,1640.06,603.34,1642,599Zm894,0,3,4-3,1h-1C2535.33,602.33,2535.67,600.67,2536,599ZM45,600c3.65,1.06,2.94.81,5,3l-2,3H47l-4-2v-1C45.3,600.48,45.79,602.94,45,600Zm27,0,4,2-2,4-3-1C71,602,70.79,603,72,600Zm10,0h2C82.26,601,83.78,600.91,82,600Zm1016,0,3,2v1h-5Zm360,0h4v4l-2,1-2-1Zm122,0c3.4,1.35,2.07.61,4,3-.33.67-.67,1.33-1,2h-1C1580.7,602.88,1580.77,603.55,1580,600Zm103,0,4,2c-.33,1.33-.67,2.67-1,4h-3l-1-1C1682.33,603.33,1682.67,601.67,1683,600Zm-847,1h4v1l-1,2-3-1Zm813,0,6,1v3l-1,1-5-1Zm88,0c.33.67.67,1.33,1,2C1737.67,602.33,1737.33,601.67,1737,601ZM96,602l2,2-1,1-2-1v-1Zm227,0,1,3h-1l-1-1Zm991,0c2,1.8.71,0,2,3h-1l-2-1C1313.33,603.33,1313.67,602.67,1314,602Zm185,0h4c.33,1,.67,2,1,3l-2,3h-3Zm-871,1c3.4,2.07,3.36,1.74,3,5h-3Zm806,0c1.92,1.39.6.1,2,2Zm52,0h4c.33,1,.67,2,1,3l-2,3C1483.33,607.1,1484.37,607.27,1486,603Zm22,0h2c-1.39,1.92-.1.6-2,2Zm-277,1c2.07,2,1,.38,2,4l-4-1Zm-373,1,1,3-2-1Zm838,0h2c-1.39,1.92-.1.6-2,2Zm12,0h4c-.33,1.67-.67,3.33-1,5h-3Zm85,0c1.92,1.39.6.1,2,2Zm221,0c3,1.93,1.62.2,3,4h-3ZM637,606l7,2c1.52,2,2.89,2.67,5,4l-2,3h-3C641.84,610.38,639.53,609.75,637,606Zm586,0,3,5c-.33.67-.67,1.33-1,2h-4v-6Zm107,0,4,2-2,3-2,1-2-1C1328.72,607.41,1328.7,608.13,1330,606Zm76,0h4v5l-3,1-2-1C1405.33,609.33,1405.67,607.67,1406,606Zm-244,1,2,2-1,1-2-1v-1Zm5,0h3l2,2a11.27,11.27,0,0,1-4,4l-2-1C1166.33,610.33,1166.67,608.67,1167,607Zm289,0h2c-1.39,1.92-.1.6-2,2Zm106,0,2,2-1,1-2-1C1561.33,608.33,1561.67,607.67,1562,607Zm15,0h2c-1.39,1.92-.1.6-2,2Zm-226,1h2c-1.39,1.92-.1.6-2,2Zm986,0h2c-1.39,1.92-.1.6-2,2Zm-1000,1c.67,1.33,1.33,2.67,2,4l-3,1C1336.33,612.33,1336.67,610.67,1337,609Zm216,0h3c-.67,1.33-1.33,2.67-2,4l-2-2C1552.33,610.33,1552.67,609.67,1553,609Zm-275,1h3l-2,2C1278.67,611.33,1278.33,610.67,1278,610Zm89,0h2c-1.39,1.92-.1.6-2,2Zm92,0c3,1.94,1,.33,2,3Zm128,0c3.4,1.35,2.07.61,4,3C1587.17,611.68,1588.92,613,1587,610ZM147,611l4,2c-1.44,5-2.76,4.56-6,2Zm1007,0,4,2c-.33.67-.67,1.33-1,2h-4C1153.33,613.67,1153.67,612.33,1154,611Zm441,0c3.61,1.65,2.35.27,4,4C1594.8,613.46,1596.55,615.18,1595,611ZM109,612c2.62,1.78,1.36.06,1,3h-1Zm679,1c3,1.94,1,.33,2,3Zm480,0c6.47.09,6.45.25,9,4l-2,3-6,1-3-4C1266.67,615.67,1267.33,614.33,1268,613Zm246,0c4,1.49,4,1.79,6,5h-2l-2,3-2-2c-2.08-2-1.36-1-2-5Zm56,0,4,3-6,10-9-8v-1h2c3.3-.94,3.6-.07,7,1Zm-598,1,4,2v3l-1,1c-4.42-.77-3.71-.6-6-3Zm211,0,2,2-1,1-2-1C1182.33,615.33,1182.67,614.67,1183,614Zm20,0c4.79,2.2,4.39,5,4,12,4.26.77,2.22-1.67,4,3h-2l-3,1-5-5C1201.65,621.28,1201.09,617.39,1203,614Zm13,0h3c-.36,2.76,0,2.16-2,5C1215.22,616.4,1215.4,617.39,1216,614Zm-623,1h2c-1.39,1.92-.1.6-2,2Zm793,0h2c-1.39,1.92-.1.6-2,2Zm-156,1c2.41,1.75,1.67,1,3,4l-4,1C1229.33,619.33,1229.67,617.67,1230,616Zm391,0h3l-2,3-2-1C1620.33,617.33,1620.67,616.67,1621,616Zm747,0,3,3c-.33.67-.67,1.33-1,2h-4c-.33-.67-.67-1.33-1-2Zm-1133,1h2C1235.25,618,1236.78,617.91,1235,617Zm80,0,5,1v4l-1,1c-4.42-.77-3.71-.6-6-3Zm16,0,3,2h-3ZM156,618l2,2-1,1-2-1v-1Zm612,0,3,2-1,2h-4Zm752,0h4v1c-.33.67-.67,1.33-1,2l-3,1ZM104,619c3.4,1.35,2.07.61,4,3l-2,2h-2l-1-2Zm495,0,4,3v1h-4Zm685,0h3c-.33,1-.67,2-1,3l-3-1C1283.33,620.33,1283.67,619.67,1284,619Zm249,0c.33.67.67,1.33,1,2h-2C1532.33,620.33,1532.67,619.67,1533,619Zm289,0,4,2-2,2-3-2C1821.33,620.33,1821.67,619.67,1822,619ZM147,620h3l-2,4-2-2Zm1224,0h5c.33,1,.67,2,1,3-.33.67-.67,1.33-1,2l-5-1Zm219,0c.33,1,.67,2,1,3h-1l-1-1C1589.33,621.33,1589.67,620.67,1590,620Zm16,0,2,2h-3C1605.33,621.33,1605.67,620.67,1606,620Zm-495,1,4,2v3l-2,1-3-1C1110,623,1109.78,624,1111,621Zm106,0h2c-1.39,1.92-.1.6-2,2Zm44,0,4,1-2,3-3-2C1260.33,622.33,1260.67,621.67,1261,621Zm41,0c2,1.35,1.61,1.12,3,3-.33.67-.67,1.33-1,2l-3-3C1301.33,622.33,1301.67,621.67,1302,621ZM225,622h3l2,2a11.27,11.27,0,0,1-4,4l-2-1C224.33,625.33,224.67,623.67,225,622Zm430,0h2c-1.39,1.92-.1.6-2,2Zm1190,0c.33,1,.67,2,1,3h-1l-1-1C1844.33,623.33,1844.67,622.67,1845,622Zm-505,1,4,2-2,3-3-3C1339.33,624.33,1339.67,623.67,1340,623Zm425,0c3,1.93,1.62.2,3,4h-4C1764.33,625.67,1764.67,624.33,1765,623Zm768,0h2c-1.39,1.92-.1.6-2,2ZM59,624c3,1.93,1.62.2,3,4H58Zm1231,0h2c-1.39,1.92-.1.6-2,2Zm430,0h2c-1.39,1.92-.1.6-2,2Zm-438,1,4,3-3,4-2-1C1281.33,629,1281.67,627,1282,625Zm41,0c2,1.8.71,0,2,3Zm9,0h2c-1.8,2,0,.71-3,2C1331.33,626.33,1331.67,625.67,1332,625Zm28,0h2c-1.39,1.92-.1.6-2,2Zm195,0,4,2c-1.54,4.2.18,2.45-4,4-.33-1-.67-2-1-3C1554.33,627,1554.67,626,1555,625Zm469,0h2c-1.39,1.92-.1.6-2,2Zm339,0c.33,1,.67,2,1,3h-1l-1-1C2362.33,626.33,2362.67,625.67,2363,625Zm226,0h2c-1.39,1.92-.1.6-2,2Zm-1343,1c.33.67.67,1.33,1,2C1246.67,627.33,1246.33,626.67,1246,626Zm-59,1c3.63,2.61,1.31-.26,2,4h-1l-3-1Zm359,0c2.42,1.91,1.62.64,3,4l-3,3-2-1v-1C1544.72,628.41,1544.7,629.13,1546,627Zm65,0h2c-1.39,1.92-.1.6-2,2Zm-109,1,2,2-1,1-2-1v-1Zm210,0h2c-1.39,1.92-.1.6-2,2Zm-372,1,4,2c-.33.67-.67,1.33-1,2h-4c-.33-.67-.67-1.33-1-2Zm104,0h2c-1.39,1.92-.1.6-2,2ZM278,630h2c-1.39,1.92-.1.6-2,2Zm1036,0c.33.67.67,1.33,1,2C1314.67,631.33,1314.33,630.67,1314,630Zm89,0c2,1.8.71,0,2,3h-1l-2-1C1402.33,631.33,1402.67,630.67,1403,630Zm177,0h3c.33.67.67,1.33,1,2-.33.67-.67,1.33-1,2h-2C1580.67,632.67,1580.33,631.33,1580,630Zm-246,1h2c-1.39,1.92-.1.6-2,2Zm-737,1c1.92,1.39.6.1,2,2Zm1165,0,2,2-1,1-2-1v-1ZM577,633l1,3h-1l-1-1Zm451,0h4v4c-.33.67-.67,1.33-1,2h-3l-1-1C1027.33,636.33,1027.67,634.67,1028,633Zm200,0c2,1.8.71,0,2,3h-2Zm297,0,6,1v1c-.33,1.33-.67,2.67-1,4h-6C1524.33,637,1524.67,635,1525,633Zm-713,1,3,1-1,4-3-3Zm447,0h2c-1.39,1.92-.1.6-2,2Zm191,0,2,2-1,1-2-1C1449.33,635.33,1449.67,634.67,1450,634Zm-647,1h3l-2,2Zm-531,1h4l-2,4Zm294,0,2,2-1,1-2-1Zm66,0,1,2Zm513,0c3,1.93,1.62.2,3,4h-4C1144.33,638.67,1144.67,637.33,1145,636Zm295,0h4c-.67,1.33-1.33,2.67-2,4h-2Zm-158,1c4.53.86,3-.12,5,3,.33,1.33.67,2.67,1,4l-1,1c-3.63-.64-3-.4-5-2h-2v-4Zm520,0c4,1.37,3,1,5,4-.33.67-.67,1.33-1,2-3.63-.64-3-.4-5-2C1801.33,639.67,1801.67,638.33,1802,637ZM598,638c3,1.93,1.62.2,3,4h-4l-1-2Zm641,1,2,2C1239.08,639.61,1240.4,640.9,1239,639Zm167,0h2c-1.39,1.92-.1.6-2,2Zm-143,1,4,2-4,2Zm42,0,7,2c-.67,1.33-1.33,2.67-2,4l-5-2Zm254,0c3,1.93,1.62.2,3,4-.33.67-.67,1.33-1,2h-3l-1-1C1557.72,641.41,1557.7,642.13,1559,640Zm-349,1c3.63.64,3,.4,5,2v1l-3,1C1211.33,643.67,1210.67,642.33,1210,641Zm461,0h4v4c-.33.67-.67,1.33-1,2h-3l-1-1C1670.33,644.33,1670.67,642.67,1671,641ZM631,642l5,1c-.33,1.67-.67,3.33-1,5h-1C630,645.8,630.34,646.28,631,642Zm335,0h4v1l-2,3-3-2Zm192,0c.33.67.67,1.33,1,2h-2C1157.33,643.33,1157.67,642.67,1158,642Zm246,0,4,2-2,5-3,1-2-2ZM241,643h4v1l-1,2h-1l-3-1Zm21,0c3,1.26,1.2,0,3,2h-1Zm494,0,5,2v3l-1,1c-3.64-.64-3-.4-5-2Zm545,0c.33.67.67,1.33,1,2h-2C1300.33,644.33,1300.67,643.67,1301,643Zm397,0h3v3l-4,1C1697.33,645.67,1697.67,644.33,1698,643ZM51,644l3,3-1,2c-4.2-1.54-2.45.18-4-4Zm517,0c3,1.93,1.62.2,3,4l-2,2-3-2Zm343,0h2c-1.39,1.92-.1.6-2,2Zm229,0h2l-2,3Zm291,0h2c-.67,1.33-1.33,2.67-2,4l-2-1Zm-361,1h2c-1.39,1.92-.1.6-2,2Zm1514,0,4,1v1l-4,2Zm-1357,1,2,2-3,1C1226.33,648,1226.67,647,1227,646Zm58,0,4,2c-.33,1.67-.67,3.33-1,5-3.59-.72-2.87-.7-5-2l1-1C1284.1,646.89,1283.39,648.84,1285,646Zm-172,1c3.65,1.06,2.94.81,5,3l-3,3-3-1c-.33-.67-.67-1.33-1-2Zm122,0,4,2v2l-2,1c-4-1.42-2.82,1.09-5-3Zm-280,1h2c-1.39,1.92-.1.6-2,2Zm636,1h3l-2,2C1591.67,650.33,1591.33,649.67,1591,649Zm-541,1c2.07,2,1,.38,2,4l-4-2Zm174,0c.33.67.67,1.33,1,2C1224.67,651.33,1224.33,650.67,1224,650Zm105,2c3.48,1.83,2.69.84,4,5l-3,1c-2.21-2.06-1.88-1.38-3-5Zm-383,1,7,1c-1.54,4.2.18,2.45-4,4C947.85,654.73,947.62,655.28,946,653Zm98,0,4,3-3,3c-2.7-2.19-1.9-.71-3-5Zm166,0,4,3-2,2h-2Zm378,0h2c-1.39,1.92-.1.6-2,2Zm-566,1,5,1v4l-3,1C1021.24,657.26,1021.46,658,1022,654Zm204,0h2c-1.39,1.92-.1.6-2,2Zm8,0,4,2-4,5-2-1v-1Zm20,0c3,1.93,1.62.2,3,4l-2,1-3-1v-1Zm346,0,3,2h-3Zm975,0h3l2,2c-1.56,2.81-1.47,2.34-4,4l-2-1C2574.33,657.33,2574.67,655.67,2575,654Zm33,0,2,2-1,1-2-1v-1ZM211,655h2C211.26,656,212.78,655.91,211,655Zm942,0h3v3l-2,1-2-1C1152.33,657,1152.67,656,1153,655Zm183,0h4v2c.33,1,.67,2,1,3l-2,1C1335,658.8,1335.34,659.28,1336,655Zm1225,0c4.08,1.89,3.2.65,4,6h-3l-2-1v-1C2560.33,657.67,2560.67,656.33,2561,655Zm-1302,1c3.84,1.76,2.91.28,4,5-.33.67-.67,1.33-1,2h-3l-1-1C1258.33,660,1258.67,658,1259,656Zm-434,1h3l2,2v2l-4,2-2-1v-1Zm37,1h2C862.26,659,863.78,658.91,862,658Zm306,0h2c-1.8,2,0,.71-3,2C1167.33,659.33,1167.67,658.67,1168,658Zm8,0,4,3-4,2c-.33-1-.67-2-1-3C1175.33,659.33,1175.67,658.67,1176,658Zm363,0c.67,1.33,1.33,2.67,2,4l-2,1-2-1C1537.67,660.67,1538.33,659.33,1539,658Zm41,0,6,2v3l-2,1C1580.6,661.52,1580,661.52,1580,658Zm-265,1h2c-1.39,1.92-.1.6-2,2Zm94,1h3l2,2c-1.83,3.48-.84,2.69-5,4Zm-798,1c3.19,2.1,2.48,1,3,6h-2c-3.15.86-3.18.3-6-1l1-3Zm309,0c1.6,2,1.3,1.39,2,5l-3-1Zm297,0c2,1.8.71,0,2,3h-1l-2-1C1216.33,662.33,1216.67,661.67,1217,661Zm-326,1,4,2-3,4-2-1C890.33,665.33,890.67,663.67,891,662Zm421,0c2,2.7.85.54,1,5h-1l-2-2Zm33,0h2C1345.25,663,1346.78,662.91,1345,662Zm101,0c.33.67.67,1.33,1,2h-2C1445.33,663.33,1445.67,662.67,1446,662Zm-377,1c3,1.94,1,.33,2,3Zm181,1h2c-1.39,1.92-.1.6-2,2Zm-115,1h2c-1.39,1.92-.1.6-2,2Zm41,0,4,2c-1,5.84.17,2.23,1,9-4.46-1.75-3.06-3-7-5-2.47,2.39-2.51,1.73-6,1l2-3C1175.41,668.14,1173.8,668.66,1176,665Zm-197,1,1,2Zm34,0c1.63,2.52,1,.17,0,3h-1Zm-69,1,4,2-2,4h-1l-2-1C943.33,670.33,943.67,668.67,944,667Zm61,1,2,4-2,1h-2l-1-2,1-2Zm335,0h3v4h-4C1339.33,670.67,1339.67,669.33,1340,668Zm-434,1,2,2-1,1Zm117,0,1,2h-2Zm32,0h2C1055.25,670,1056.78,669.91,1055,669Zm-10,1c4.32,1,2.8.35,5,3h-5Zm395,0,2,2C1440.08,670.61,1441.4,671.9,1440,670Zm1222,0h4v3l-2,2C2662.4,673,2662.7,673.61,2662,670Zm-1514,1h2c0,3.26.16-.08,2,4-.33.67-.67,1.33-1,2-4.42-.77-3.71-.6-6-3Zm149,0h3v3l-2,1-2-1C1296.33,673,1296.67,672,1297,671Zm-408,1c2.62,1.78,1.36.06,1,3h-1Zm24,0,4,1c-1.06,3.65-.81,2.94-3,5l-3-3Zm249,0h3l-2,2C1162.67,673.33,1162.33,672.67,1162,672Zm1455,0h3l2,2v2l-1,1h-4Zm-1510,2c3,1.93,1.62.2,3,4h-3Zm111,0h3v1l-3,1Zm-286,1c4,1.55,3.53.71,5,5h-3l-2-1Zm168,0,2,2h-3C1099.33,676.33,1099.67,675.67,1100,675Zm-198,1,3,1-3,4-2-4Zm507,0h3v3C1410.1,677.63,1410.36,678,1409,676Zm69,8h-6l-2-2v-5l1-1,3,1C1476.93,679.85,1477.09,678.44,1478,684ZM284,677h4l-2,4-2-1Zm658,1h3v1l-3,1Zm116,0h2c-.33,1-.67,2-1,3h-1l-1-1v-1Zm1531,0c1.29,3.28,1.19,1.07-1,5l-3-2Zm79,0c3,1.94,1,.33,2,3ZM450,679h3l2,2v2l-2,1-4-2Zm435,0c3.09,1.59,4.33,3.07,6,6h-1l-6-1C884.33,682.33,884.67,680.67,885,679Zm27,0,3,2-1,2-4-2v-1Zm97,0h4v3l-2,1-2-1Zm441,0h3l2,2c-.33,1-.67,2-1,3h-4c-.33-1-.67-2-1-3C1449.33,680.33,1449.67,679.67,1450,679Zm79,0h2c-1.39,1.92-.1.6-2,2ZM309,680h4v3l-1,2h-3Zm986,0h5c1.46,3.37,1.71,2.87,4,5v1h-1c-4.56-1-5.51-.26-9-3C1294.33,682,1294.67,681,1295,680ZM220,681l5,1v1l-1,2C219.8,683.46,221.55,685.18,220,681Zm677,0,4,2-1,2h-4Zm142,0h4c.67,2,1.33,4,2,6l-8,1C1037.67,685.67,1038.33,683.33,1039,681Zm428,0,4,2c-.77,4.42-.6,3.71-3,6-3.06-2-2.59-1-4-5Zm1140,0,3,1c.33,1.33.67,2.67,1,4l-1,1C2603.77,685.58,2605.06,685.34,2607,681ZM839,682h3v4h-4Zm586,0h3v1c-2.09,3.48-2.61,4.57-7,6C1422.1,684.61,1422.86,684.79,1425,682Zm291,0c3,1.93,1.62.2,3,4h-4c-.33-.67-.67-1.33-1-2Zm902,0,2,2-1,1-2-1C2617.33,683.33,2617.67,682.67,2618,682ZM213,683h2c-1.8,2,0,.71-3,2Zm775,0c2,1.8.71,0,2,3Zm76,0c3.14,2.06,2.07.48,3,5C1062.47,686.08,1063.39,687.35,1064,683Zm33,0h4v4C1096.8,685.46,1098.55,687.18,1097,683Zm316,0c1.6,2,1.3,1.39,2,5h-4Zm1140,0h2v1l-2,2h-1C2552.33,685,2552.67,684,2553,683Zm-1479,1h4v1l-2,3-2-1Zm373,0h3c-1.54,4.2.18,2.45-4,4C1446.33,686.67,1446.67,685.33,1447,684Zm1143,0h4v3c-3.4,2.07-2.53,1.85-6,0ZM613,685l2,2-3,1Zm318,1,1,2Zm1652,4,2,2-1,1C2583.67,692,2583.33,691,2583,690Zm-1294,1h2c-1.39,1.92-.1.6-2,2Zm422,0h2c-1.39,1.92-.1.6-2,2ZM270,692h2c-1.39,1.92-.1.6-2,2Zm752,0,2,2-1,1-2-1v-1Zm99,0c3.74,3.08,2.29,5.56-2,7-.33-1-.67-2-1-3Zm322,0c.33,1,.67,2,1,3l-2-1C1442.33,693.33,1442.67,692.67,1443,692Zm-404,1h4c-.67,1.33-1.33,2.67-2,4h-2Zm-147,2,4,2-2,2Zm31,0,4,3-2,2C923.4,698,923.7,698.61,923,695Zm42,0h3l-2,4h-1l-1-3Zm167,0,4,2v1l-3,1-2-2C1131.33,696.33,1131.67,695.67,1132,695Zm-141,1h4l1,2-1,3-4,1Zm40,1h2c-1.39,1.92-.1.6-2,2Zm1575,0,5,1c-.33,1.67-.67,3.33-1,5h-1c-2.81-1.56-2.34-1.47-4-4C2605.33,698.33,2605.67,697.67,2606,697ZM769,698l3,4-1,2-5-1v-4Zm341,0h3l-2,2C1110.67,699.33,1110.33,698.67,1110,698Zm144,0c2.62,1.78,1.36.06,1,3h-1Zm202,0,2,1v4h-1l-3-1C1454.67,700.67,1455.33,699.33,1456,698Zm1001,0,2,2C2457.08,698.61,2458.4,699.9,2457,698Zm121,0h4c-.67,1.33-1.33,2.67-2,4C2579.33,700.67,2578.67,699.33,2578,698ZM858,699l2,2-1,1Zm248,0h3l-2,2C1106.67,700.33,1106.33,699.67,1106,699Zm-280,1c4.36,1.22,5.37,2.06,7,6h-1l-7-3Zm233,0c.67,1.33,1.33,2.67,2,4v6h-1l-4-2v-1Zm354,0,3,2h-3Zm627,0,5,2v1l-4,3-3-3Zm424,0,4,2-2,2-3-1C2463.33,702,2463.67,701,2464,700ZM945,701h2c-1.39,1.92-.1.6-2,2Zm253,0h4c.33,1.67.67,3.33,1,5l-3,1-3-1C1197,703,1196.78,704,1198,701Zm77,0,5,1c-.33.67-.67,1.33-1,2h-1C1275.3,702.4,1276.62,703.66,1275,701Zm294,0,5,1c-.33,1-.67,2-1,3C1568.8,703.46,1570.55,705.18,1569,701Zm-733,1h2c-1.8,2,0,.71-3,2Zm82,0h4l1,3-1,2h-1C916.47,705.08,917.39,706.35,918,702Zm1703,0c3.63,2.61,1.31-.26,2,4l-3-1C2620.33,704,2620.67,703,2621,702Zm-1537,1h2c-1.8,2,0,.71-3,2C1083.33,704.33,1083.67,703.67,1084,703Zm-639,1c3.4,1.35,2.07.61,4,3h-4Zm439,0,1,3h-1l-1-1Zm11,0h2c-1.39,1.92-.1.6-2,2Zm228,0h2c-1.39,1.92-.1.6-2,2Zm1464,0h3l2,2v2l-1,1h-4Zm54,0h2c-1.39,1.92-.1.6-2,2Zm-1608,1,5,1v4l-5,4-2-1v-1C1031.67,709.67,1032.33,707.33,1033,705Zm43,0c2,1.35,1.61,1.12,3,3-.33.67-.67,1.33-1,2l-4-2Zm89,0c1.92,1.39.6.1,2,2Zm248,0,2,2-1,1-2-1v-1Zm149,0h2c-1.39,1.92-.1.6-2,2ZM398,706h2c-1.39,1.92-.1.6-2,2Zm462,1h3v4h-4Zm7,2c2,1.8.71,0,2,3h-2Zm37,0,3,2v1h-4v-1Zm42,0c3.58,1.78,1.18-.53,3,3C945,710.58,947.21,711.59,946,709Zm440,0h4v2c.33,1,.67,2,1,3l-2,1C1385,712.8,1385.34,713.28,1386,709Zm1212,0h4c-.33,1.33-.67,2.67-1,4ZM404,711c3,1.93,1.62.2,3,4h-4Zm547,0h2c-1.39,1.92-.1.6-2,2Zm58,0c3.65,1.06,2.94.81,5,3l-1,2c-4-.4-3.91-.33-6-2Zm-248,1,4,1c-1.06,3.65-.81,2.94-3,5l-3-3Zm563,0,4,3-2,3h-1l-4-2v-1Zm1224,0h2c-.33,1-.67,2-1,3h-1l-1-1v-1Zm8,0,4,2c-.33,1-.67,2-1,3h-1C2556.7,714.88,2556.77,715.55,2556,712ZM708,713h2c-1.39,1.92-.1.6-2,2Zm386,0,2,2C1094.08,713.61,1095.4,714.9,1094,713Zm-168,1,5,1v2h-6Zm20,1h3l2,2-1,4-4-1Zm90,0h4c-1.14,4-1.37,3.83-4,6l-3-3v-1l1-1Zm10,0,2,2-1,1-2-1C1045.33,716.33,1045.67,715.67,1046,715Zm-174,1h2c-1.8,2,0,.71-3,2Zm1747,0h2c-1.39,1.92-.1.6-2,2ZM920,717h4l-2,4-2-1Zm387,0c1.92,1.39.6.1,2,2Zm-594,2c2.06,3.25,3.11,2.72-1,5C712.33,722.33,712.67,720.67,713,719Zm291,0,1,2Zm-545,1,1,3-2-1Zm641,0h4v1l-2,3-2-1Zm1642,0h3l-2,2C2742.67,721.33,2742.33,720.67,2742,720ZM901,721c3,1.93,1.62.2,3,4h-3l-2-2Zm558,0,2,2-3,1C1458.33,723,1458.67,722,1459,721Zm-704,1c2.4,1.75,1.67,1,3,4l-4-2Zm1978,0h4c-1.54,4.2.18,2.45-4,4-.33-.67-.67-1.33-1-2v-1ZM393,723h3l2,2c-1.56,2.81-1.47,2.34-4,4l-2-1C392.33,726.33,392.67,724.67,393,723Zm665,0h3l-2,2C1058.67,724.33,1058.33,723.67,1058,723Zm-109,1c3,1.94,1,.33,2,3Zm-69,1,3,4v1C878.47,728.08,879.39,729.35,880,725Zm12,0c2,1.8.71,0,2,3h-2Zm13,0,4,2-1,4h-3Zm1142,1,5,1-2,3ZM777,728h2c-1.39,1.92-.1.6-2,2Zm274,0c4.31.75,6.08.5,8,4l-2,2-8-1C1049.72,729.41,1049.7,730.13,1051,728Zm142,0,4,3v1h-4Zm132,0h2c-1.39,1.92-.1.6-2,2Zm-467,1h3l2,2-2,4-3,1h-1C857.33,733.67,857.67,731.33,858,729Zm29,0h2c-1.39,1.92-.1.6-2,2Zm7,0h5l-2,4Zm1838,0h4c.33.67.67,1.33,1,2v2l-1,1h-4ZM829,730h5c-.33,2-.67,4-1,6h-3l-1-1Zm125,0h3l2,2-1,4C952.94,734.45,953.33,734.47,954,730Zm1637,0h4v1l-2,2ZM914,731l4,1c.67,3,1.33,6,2,9l-1,1h-4l-1-1C913.35,734.6,912.4,735.3,914,731Zm-117,1,4,3h-5Zm236,1,4,2v1l-3,1C1033.67,735.67,1033.33,734.33,1033,733Zm1593,0h4c.33,1,.67,2,1,3l-3,3C2625.24,736.26,2625.46,737,2626,733ZM802,734h2c-1.39,1.92-.1.6-2,2Zm339,0h3v1l-3,1Zm15,0,4,2-3,3C1155.22,736.4,1155.4,737.39,1156,734Zm174,0c4.66,3.07,5,6.88,2,10l-3-6C1329.33,736.67,1329.67,735.33,1330,734Zm738,0c3,1.26,1.2,0,3,2h-1ZM908,735h2c-1.39,1.92-.1.6-2,2Zm258,0,2,2-3,1C1165.33,737,1165.67,736,1166,735Zm208,0,4,2-4,2Zm1226,1h3c.33.67.67,1.33,1,2-.33,1-.67,2-1,3-3.63-.64-3-.4-5-2Zm-1478,1,4,1v4l-8,5c-.67-1.33-1.33-2.67-2-4Zm-117,1,3,1v3h-3l-1-3Zm48,0h2c-1.78,3.58.53,1.18-3,3C1052.33,740,1052.67,739,1053,738Zm96,0c2.21,2.06,1.88,1.38,3,5l-5,3C1147.67,743.33,1148.33,740.67,1149,738Zm1412,0h2c-1.39,1.92-.1.6-2,2ZM767,739h4v1l-2,2Zm75,0,4,2c-1.54,4.2.18,2.45-4,4l-1-3Zm1726,0,5,1v1c-.33.67-.67,1.33-1,2C2567.8,741.46,2569.55,743.18,2568,739Zm23,0h2c-1.39,1.92-.1.6-2,2ZM826,740l3,2v1C825,741.58,827.21,742.59,826,740Zm474,0c.33.67.67,1.33,1,2C1300.67,741.33,1300.33,740.67,1300,740Zm1311,0h2c-1.39,1.92-.1.6-2,2Zm-1511,1,4,2c-.33,1.67-.67,3.33-1,5-3.65-1.06-2.94-.81-5-3C1098.67,743.67,1099.33,742.33,1100,741Zm1375,0c2.05,1.35,1.61,1.12,3,3-3.63-.64-3-.4-5-2ZM763,742c-.42.93.8.68-1,2Zm141,1h3l-2,2Zm23,0,1,2Zm52,1h4v4l-1,2h-3l-1-2Zm311,0h3l2,2c-.33.67-.67,1.33-1,2h-4Zm1259,0,2,2-3,1C2548.33,746,2548.67,745,2549,744ZM818,746c3,1.93,1.62.2,3,4l-4-1Zm139,0h2c-1.8,2,0,.71-3,2Zm251,0,3,2h-3Zm1287,0h2C2495.25,747,2496.78,746.91,2495,746ZM788,747l2,2-1,1-2-1v-1Zm198,0,1,3h-1l-1-1Zm65,0c1.63,2.52,1,.17,0,3h-1C1050.33,749,1050.67,748,1051,747Zm249,0c2.62,1.78,1.36.06,1,3h-1Zm1204,0h4c.33.67.67,1.33,1,2-.33,1-.67,2-1,3l-4,1-1-1C2503.33,750.33,2503.67,748.67,2504,747Zm-1152,1h2c-1.39,1.92-.1.6-2,2Zm1398,0c.33.67.67,1.33,1,2C2750.67,749.33,2750.33,748.67,2750,748Zm-1667,1c.33.67.67,1.33,1,2C1083.67,750.33,1083.33,749.67,1083,749Zm-681,1,5,1-3,3Zm2146,0,2,2h-3C2547.33,751.33,2547.67,750.67,2548,750ZM370,751l1,2Zm593,0,4,2-1,2h-3Zm29,0,4,1-2,4C992.4,754,992.7,754.61,992,751Zm13,0,4,2-2,3-2-1Zm1550,1,4,3v1l-3,1h-1c-.33-.67-.67-1.33-1-2C2554.33,754,2554.67,753,2555,752Zm-1428,1h3v4h-4c-.33-.67-.67-1.33-1-2Zm-319,1c3,1.93,1.62.2,3,4l-1,2h-1l-4-3Zm1199,0,2,1-3,2C2006.33,756,2006.67,755,2007,754Zm582,0h2c-1.39,1.92-.1.6-2,2ZM854,755l4,2-4,2Zm165,0h3l-2,2Zm365,0,2,2-1,1C1384.67,757,1384.33,756,1384,755Zm631,0,4,2-2,3-3-3C2014.33,756.33,2014.67,755.67,2015,755Zm717,0,4,2v1l-3,1C2732.67,757.67,2732.33,756.33,2732,755Zm-278,1c3.65,1.06,2.94.81,5,3-.33.67-.67,1.33-1,2h-4Zm77,0c2.07,2,1,.38,2,4h-4C2529.67,758.67,2530.33,757.33,2531,756ZM424,758h2c-1.39,1.92-.1.6-2,2Zm-135,1h3l2,2v2l-1,1h-4l-1-2Zm601,0c1.92,1.39.6.1,2,2Zm952,1c2.21,2.06,1.88,1.38,3,5l-2,1-4-3ZM806,761c2,1.8.71,0,2,3Zm1915,3,4,1-3,3-2-1C2720.33,766,2720.67,765,2721,764ZM726,765h3l-2,2Zm399,0,5,3-3,1C1126.33,767.67,1125.67,766.33,1125,765Zm-901,1c3.65,1.06,2.94.81,5,3l-1,2C222.08,770.06,223.31,770.63,224,766Zm510,0,4,1-2,4C734.4,769,734.7,769.61,734,766Zm78,0c4.2,1.54,2.45-.18,4,4h-4Zm49,0,4,3-2,2C859.92,768.08,861,770.6,861,766Zm1664,1h2c-1.39,1.92-.1.6-2,2ZM351,768h2c-1.39,1.92-.1.6-2,2Zm2165,0,4,2-2,2C2517.33,770.67,2516.67,769.33,2516,768Zm-1224,1c1.63,2.52,1,.17,0,3h-1C1291.33,771,1291.67,770,1292,769Zm1393,0h2c-1.39,1.92-.1.6-2,2Zm15,0h2c-1.39,1.92-.1.6-2,2Zm50,0h2c-1.39,1.92-.1.6-2,2Zm-1450,1,4,2-3,3C1299.22,772.4,1299.4,773.39,1300,770Zm808,1c4.2,1.54,2.45-.18,4,4h-3l-2-2C2107.33,772.33,2107.67,771.67,2108,771Zm9,0h3l-2,2C2117.67,772.33,2117.33,771.67,2117,771ZM868,772h3l-2,2Zm8,0c3,1.93,1.62.2,3,4h-4l-1-2Zm62,0h4l-1,4-2-1Zm77,0c2,1.8.71,0,2,3h-2Zm87,0c1.63,2.52,1,.17,0,3h-1C1101.33,774,1101.67,773,1102,772Zm1590,0c4.2,1.54,2.45-.18,4,4l-2,1-2-1ZM209,773h2c-1.39,1.92-.1.6-2,2Zm703,0h3l2,2-1,4c-3.65-1.06-2.94-.81-5-3Zm-76,1,1,2Zm-489,1c3,1.93,1.62.2,3,4h-4Zm519,0c2,1.8.71,0,2,3h-2Zm279,2h2c-1.39,1.92-.1.6-2,2Zm-40,3c.33.67.67,1.33,1,2h-2C1104.33,781.33,1104.67,780.67,1105,780Zm1636,0,4,2c-1.56,2.81-1.47,2.34-4,4l-2-1ZM305,781l2,4h-4Zm56,0h3v1l-3,1Zm510,0h2c-1.39,1.92-.1.6-2,2Zm-501,1c4.2,1.54,2.45-.18,4,4-3.59-.72-2.87-.7-5-2v-1Zm62,2c3.65,2.24,4.67,1.77,2,5l-3,1-1-1Zm1398,1,3,2-2,2-3-3ZM810,788l4,3v1h-4Zm144,0h2c-1.39,1.92-.1.6-2,2Zm126,0h3v1l-3,1Zm9,2,4,2-3,3C1088.22,792.4,1088.4,793.39,1089,790Zm720,1h2c-1.39,1.92-.1.6-2,2ZM203,793l4,2-3,3h-1Zm19,0,4,2v1l-2,1h-1l-1-2Zm885,0h4v4h-3C1107.67,795.67,1107.33,794.33,1107,793Zm902,0c3,1.93,1.62.2,3,4l-2,2-3-1c-.33-.67-.67-1.33-1-2ZM817,796h2c-1.39,1.92-.1.6-2,2Zm336,1h4v3l-2,2C1153.4,800,1153.7,800.61,1153,797Zm-177,2c1.78,3.23,2.61,2-1,4Zm153,1h3l2,2c-.33.67-.67,1.33-1,2-3.59-.72-2.87-.7-5-2v-1Zm1407,1c.67,1.33,1.33,2.67,2,4l-2,1h-2c-.33-.67-.67-1.33-1-2,.33-.67.67-1.33,1-2ZM298,802l2,2h-3Zm-120,1h2l5,8-4,2c-2.19-4.33-6.34-5.34-6-9C177.6,803.58,175.55,805,178,803Zm944,3h3c-.33,1-.67,2-1,3Zm37,0c1.63,2.52,1,.17,0,3h-1C1158.33,808,1158.67,807,1159,806Zm-666,1h2c-1.8,2,0,.71-3,2Zm2008,0,4,3-3,1C2501.67,809.67,2501.33,808.33,2501,807ZM239,808h2c-1.39,1.92-.1.6-2,2Zm2242,1,2,3Zm46,0h3v1l-3,1ZM443,810l2,4h-4Zm1645,0,3,1c-.33,1-.67,2-1,3h-1l-3-1Zm-22,1h2c-1.39,1.92-.1.6-2,2ZM487,813h3v4l-2,1C486.22,815.4,486.4,816.39,487,813Zm605,3,5,1c-.33,1.67-.67,3.33-1,5h-1C1091,819.8,1091.34,820.28,1092,816Zm779,0c2,1.8.71,0,2,3h-2Zm-905,3h3l-2,4h-1Zm891,0h3c-.67,1.33-1.33,2.67-2,4l-2-2C1856.33,820.33,1856.67,819.67,1857,819Zm9,0h2c-.33,1.33-.67,2.67-1,4l-5,1v-4Zm-736,1c.33.67.67,1.33,1,2C1130.67,821.33,1130.33,820.67,1130,820Zm869,0h4c-.67,1.33-1.33,2.67-2,4l-3-2C1998.33,821.33,1998.67,820.67,1999,820ZM923,821c3,1.93,1.62.2,3,4l-2,1C922.22,823.4,922.4,824.39,923,821Zm1115,1h2c-1.39,1.92-.1.6-2,2ZM237,823l4,2v1l-1,2h-4C236.33,826.33,236.67,824.67,237,823Zm1606,0c3,1.93,1.62.2,3,4l-4-2C1842.33,824.33,1842.67,823.67,1843,823ZM530,824l2,2-1,1Zm1989,1,4,3c-.33,1-.67,2-1,3-3.63-.64-3-.4-5-2C2517.67,827.67,2518.33,826.33,2519,825Zm-667,1h2C1852.25,827,1853.78,826.91,1852,826ZM538,827h3v4l-4-2Zm1441,0c2,1.8.71,0,2,3ZM206,828c1.92,1.39.6.1,2,2Zm225,2c2,1.8.71,0,2,3h-2Zm320,0h2c-1.39,1.92-.1.6-2,2Zm167,0h2c-1.39,1.92-.1.6-2,2Zm1186,0,4,2c-.33,1-.67,2-1,3l-4,1-1-1C2102.72,831.41,2102.7,832.13,2104,830ZM236,833l2,2-1,1Zm461,0h3l-2,4-2-2Zm1139,4c3.64,1.14,2.74,1.13,5,3l-2,3h-1c-3.4-1.35-2.07-.61-4-3ZM690,840h3l-2,2Zm287,1,5,1-1,3-5,1C976.33,844.33,976.67,842.67,977,841Zm1067,0h3c.33.67.67,1.33,1,2-.33.67-.67,1.33-1,2h-1l-2-1ZM944,843l1,2Zm-207,2h4v1l-4,2Zm-189,1,4,2-2,4-3-1C547,848,546.78,849,548,846Zm1247,3,2,2-2,1Zm292,0,4,2v2l-2,1C2087.4,852,2087.7,852.61,2087,849Zm-55,1c.67,1.33,1.33,2.67,2,4l-2,1-3-2c.33-.67.67-1.33,1-2Zm7,0c3,1.26,1.2,0,3,2h-1Zm-607,4c.33,1,.67,2,1,3h-1l-1-1C1431.33,855.33,1431.67,854.67,1432,854Zm383,0c.67,1.33,1.33,2.67,2,4l-4-1Zm277,4,2,2-1,1-2-1C2091.33,859.33,2091.67,858.67,2092,858Zm-557,3h2c-1.39,1.92-.1.6-2,2Zm494,0c4.5.87,3.44.92,6,3l-3,3C2029.22,864.74,2029.59,865.89,2029,861Zm-597,1,4,2v1l-4,2c-.33-1-.67-2-1-3C1431.33,863.33,1431.67,862.67,1432,862Zm-408,2h2c-1.39,1.92-.1.6-2,2Zm837,0h3v3l-2,1-2-1C1860.33,866,1860.67,865,1861,864Zm-22,1,4,2c-.33.67-.67,1.33-1,2h-3Zm-362,1h4l-2,5-3-2C1476.33,868,1476.67,867,1477,866Zm588,2c.33.67.67,1.33,1,2C2065.67,869.33,2065.33,868.67,2065,868ZM742,869l4,1-1,4c-3.64-.64-3-.4-5-2Zm-195,1,4,2-4,4-3-1v-1Zm476,2h4c-1.54,4.2.18,2.45-4,4Zm448,1h2c-1.39,1.92-.1.6-2,2Zm371,0h2c-1.8,2,0,.71-3,2C1841.33,874.33,1841.67,873.67,1842,873ZM569,875l3,2-1,2-3-1Zm1315,1h4c.33.67.67,1.33,1,2v1c-2.27,1.36-2,1.45-6,2C1883.33,879.33,1883.67,877.67,1884,876Zm-363,1,4,1-3,3-2-1C1520.33,879,1520.67,878,1521,877Zm303,0,4,1-2,5-4-1Zm33,1h2c-1.39,1.92-.1.6-2,2Zm-775,4,4,2c-.33,1.33-.67,2.67-1,4-4.5-1.39-3.6-.52-5-5Zm295,0,4,2v1l-3,4-3-2v-1C1375.67,884.67,1376.33,883.33,1377,882Zm331,0c3.14,2.06,2.07.48,3,5C1706.47,885.08,1707.39,886.35,1708,882Zm10,0c1.63,2.52,1,.17,0,3h-1C1717.33,884,1717.67,883,1718,882ZM526,884h4c.33,2,.67,4,1,6l-2,1-3-1Zm1267,2h3l-2,2C1793.67,887.33,1793.33,886.67,1793,886Zm8,2,4,3-4,2c-.33-.67-.67-1.33-1-2C1800.33,890,1800.67,889,1801,888ZM591,892h3v1l-3,1Zm809,1,4,2-2,3-2-1Zm-816,1,3,2-3,3-2-2Zm1178,0,4,2c-.33,1.33-.67,2.67-1,4h-4C1760.43,896.51,1760.65,897.07,1762,894Zm-269,1c.33.67.67,1.33,1,2C1493.67,896.33,1493.33,895.67,1493,895Zm-433,1c2.07,2,1,.38,2,4l-4-1Zm745,6c3,1.94,1,.33,2,3Zm-278,1,4,1c-.33,1.67-.67,3.33-1,5h-4l-1-1C1525.72,904.41,1525.7,905.13,1527,903ZM478,908l1,2Zm1307,1h3v1c-.33,1-.67,2-1,3l-4-1ZM442,912h3l2,2v2l-1,1h-4Zm122,1,4,2v3h-4l-2-2Zm842,2h2c-1.39,1.92-.1.6-2,2Zm-900,3h2l-2,3Zm550,0,3,2h-3Zm-159,3,1,2Zm32,2c3.64,1.14,2.74,1.13,5,3l-1,2C927.51,926.77,928.39,927.49,929,923Zm737,0h2c-1.39,1.92-.1.6-2,2Zm21,0,4,2v1l-2,1-3-1C1686.33,925,1686.67,924,1687,923Zm459,1h3l2,2-3,4C2145.24,927.26,2145.46,928,2146,924ZM502,925c3.4,2.07,3.36,1.74,3,5h-3l-1-2Zm369,6,2,2-1,1-2-1v-1Zm-412,3c3,1.93,1.62.2,3,4l-4-1Zm177,2h3l-1,3Zm238,2c3.4,1.35,2.07.61,4,3v1h-4Zm1230,0h3v1l-3,1ZM561,940l4,2-4,2Zm1564,2,4,2v1l-3,1h-1c-.33-1-.67-2-1-3Zm468,1h5v4h-4l-2-2C2592.33,944.33,2592.67,943.67,2593,943ZM917,944l3,4h-4Zm787,0,5,2c-2.76,4.21-2.78,4.27-7,2C1702.67,946.67,1703.33,945.33,1704,944Zm105,4v5h-3l-2-1v-4ZM512,950c3,1.26,1.2,0,3,2h-1Zm7,4c4.2,1.54,2.45-.18,4,4h-4Zm1259,0h4v4h-3l-2-2C1777.33,955.33,1777.67,954.67,1778,954ZM454,956h2c-1.39,1.92-.1.6-2,2Zm122,0h3v1l-3,1Zm1870,0h2c-1.39,1.92-.1.6-2,2ZM635,957l3,1v1c-1.91,2.42-.64,1.62-4,3C634.33,960.33,634.67,958.67,635,957Zm1135,2h3c-.33,1-.67,2-1,3Zm-397,3h2l-2,3Zm393,0h2c-1.39,1.92-.1.6-2,2Zm678,2h3c-.67,1.33-1.33,2.67-2,4l-2-2C2443.33,965.33,2443.67,964.67,2444,964ZM924,965h2c-1.39,1.92-.1.6-2,2Zm862,0,3,1-2,3-2-2C1785.33,966.33,1785.67,965.67,1786,965Zm814,2c3.63,2.61,1.31-.26,2,4l-3-1C2599.33,969,2599.67,968,2600,967Zm-1231,2,3,2-2,3-3-2Zm1279,0,6,1v4h-6ZM611,972c5.13,2.34,5.48,3.42,2,7l-3-1C610.33,976,610.67,974,611,972Zm2031,2c2.07,2,1,.37,2,4h-4C2640.67,976.67,2641.33,975.33,2642,974ZM434,977h2c-1.39,1.92-.1.6-2,2Zm965,0c.33.67.67,1.33,1,2C1399.67,978.33,1399.33,977.67,1399,977Zm-357,1c3,1.93,1.62.2,3,4h-4c-.33-.67-.67-1.33-1-2Zm-367,1,4,2v1l-1,2h-4C674.33,982.33,674.67,980.67,675,979Zm376,2h2c-1.39,1.92-.1.6-2,2Zm-625,1h4l-2,4-3-1Zm2161,2h2c-1.39,1.92-.1.6-2,2Zm-452,1,4,2c-.33.67-.67,1.33-1,2l-2,1C2134.22,987.39,2134.4,988.39,2135,985ZM590,987l4,2c-1.83,3.48-.84,2.69-5,4l-1-1Zm1907,0,5,1c-.33,1.67-.67,3.33-1,5l-4-1ZM127,989c2,1.8.71,0,2,3Zm2017,0,2,2-1,1C2144.67,991,2144.33,990,2144,989ZM676,990h2l-1,3h-1l-1-1v-1Zm-32,1,2,2C644.08,991.61,645.4,992.9,644,991Zm-192,1h3l2,2v2l-1,1h-4l-1-2Zm2022,4c2.07,2,1,.37,2,4h-1l-2-2C2473.33,997.33,2473.67,996.67,2474,996ZM125,997h3l-2,4h-1l-1-3Zm2532,0c2.07,2,1,.37,2,4l-1,1-3-1v-1ZM651,998h2l-2,3Zm338,4h2c-1.39,1.92-.1.6-2,2Zm1719,0h2c-.33,1-.67,2-1,3h-1l-1-1v-1Zm-2257,1,1,2Zm195,2,4,2-2,3-3-1Zm771,0c3.65,1.06,2.94.81,5,3l-3,3C1416.24,1008.26,1416.46,1009,1417,1005Zm296,0h2c-1.39,1.92-.1.6-2,2Zm84,1c3,1.93,1.62.2,3,4h-4C1796.33,1008.67,1796.67,1007.33,1797,1006Zm876,1h5v3c-.33.67-.67,1.33-1,2-3.63-.64-3-.4-5-2C2672.33,1009,2672.67,1008,2673,1007Zm28,0h3v5C2699.47,1010.08,2700.39,1011.35,2701,1007Zm-1691,1,3,2-2,2-3-1Zm380,0h4c-.67,1.33-1.33,2.67-2,4l-2-1Zm-1280,2h3l2,2-1,3h-5C109.33,1013.33,109.67,1011.67,110,1010Zm493,0,3,2-4,2Zm1202,0h2c-1.39,1.92-.1.6-2,2Zm-96,1,3,1c-.67,1.33-1.33,2.67-2,4l-3-2Zm-1591,1h2c-1.39,1.92-.1.6-2,2Zm395,0h3l-2,2Zm425,4h2C938.26,1017,939.78,1016.91,938,1016Zm1703,0c3,1.26,1.2,0,3,2h-1Zm-2518,1c4.2,1.54,2.45-.18,4,4C122.8,1019.46,124.55,1021.18,123,1017Zm341,0c2.07,2,1,.37,2,4h-3C463.33,1019.67,463.67,1018.33,464,1017Zm2003,0h2c-1.39,1.92-.1.6-2,2Zm-1959,1h3v4h-4C507.33,1020.67,507.67,1019.33,508,1018Zm-331,1h4l1,2v1l-1,2c-3.65-1.06-2.94-.81-5-3Zm33,3h3l2,2v2l-1,1h-4Zm1169,4h2c-1.8,2,0,.71-3,2C1378.33,1027.33,1378.67,1026.67,1379,1026Zm-1224,1,2,2-1,3-3-2Zm273,0h4l-3,4Zm2259,3h4c-.33,1.33-.67,2.67-1,4h-1C2688.33,1032.67,2687.67,1031.33,2687,1030Zm-2093,1c3,1.26,1.2,0,3,2h-1Zm423,1h3l2,2-2,3h-3Zm1088,0,4,2c-.33.67-.67,1.33-1,2h-4C2104.33,1034.67,2104.67,1033.33,2105,1032Zm604,1h2c-1.39,1.92-.1.6-2,2Zm-1766,1c3,1.93,1.62.2,3,4h-1l-2-2Zm-823,1h5l-3,3Zm459,0h2c-1.39,1.92-.1.6-2,2Zm-126,1h4l1,3-2,3h-4C452.33,1040,452.67,1038,453,1036Zm1643,0h3c-.33,1-.67,2-1,3ZM88,1037l3,2-4,2Zm2423,0,4,2-3,4-3-3Zm-2101,1,2,2-1,1-2-1C409.33,1039.33,409.67,1038.67,410,1038Zm2144,1,2,2C2554.08,1039.61,2555.4,1040.9,2554,1039Zm-2412,1h2c-1.39,1.92-.1.6-2,2Zm842,3,2,4-2,1Zm1228,0h2c-.33,1-.67,2-1,3h-1l-1-1v-1Zm-2056,1,2,2-3,1Zm44,1h2l-2,3Zm1554,2h3l2,2c-.67,1.33-1.33,2.67-2,4l-3-2Zm-1607,1,5,2-2,4h-2l-1-2Zm2389,0c2.07,2,1,.37,2,4l-4-1Zm-2327,1,1,4-4-1v-1l1-1Zm1521,0h2c-.67,1.33-1.33,2.67-2,4h-1c-.33-1-.67-2-1-3Zm432,0c3,1.94,1,.33,2,3Zm-1593,3,3,4-3,1h-1C568.33,1055.33,568.67,1053.67,569,1052Zm360,0,3,1,1,4-2,1-3-1C928.33,1055.33,928.67,1053.67,929,1052Zm58,0h2c-1.39,1.92-.1.6-2,2Zm-787,1,4,2-2,2Zm344,2c3.19,2.1,2.48,1,3,6h-3l-2-1v-1Zm1598,3,4,2c-.33.67-.67,1.33-1,2h-4C2141.33,1060.67,2141.67,1059.33,2142,1058Zm-2024,1,3,1v3h-1l-3-2Zm232,1h3l2,2v2l-2,1-4-2Zm-160,1,1,3h-1l-1-1Zm2027,2h3v4h-3c-.33-1-.67-2-1-3Zm-108,1h2c-1.39,1.92-.1.6-2,2ZM93,1065l5,1v4l-2,1-7-2,1-2Zm-12,2h3v1l-3,1Zm1636,0c1.92,1.39.6.1,2,2Zm201,0c3,1.26,1.2,0,3,2h-1Zm745,0h4c-.67,1.33-1.33,2.67-2,4C2664.33,1069.67,2663.67,1068.33,2663,1067Zm-8,1h2c-1.39,1.92-.1.6-2,2Zm-2509,1,4,2-1,3h-4C145,1070.44,144.09,1071.91,146,1069Zm27,0h2C173.26,1070,174.78,1069.91,173,1069Zm-47,1,4,2v4l-2,1-3-2-1-2Zm126,1h2c-1.39,1.92-.1.6-2,2Zm1603,0,4,3c-.33.67-.67,1.33-1,2-5.37-.89-3.47.8-5-4Zm-1720,1,2,2-1,1-2-1v-1Zm2107,0,4,3-2,3h-3l-1-1Zm-1997,1,2,4-2,1-2-4Zm1714,2,4,2v3l-1,1h-4C1958.33,1079,1958.67,1077,1959,1075Zm-85,2c2,1.8.71,0,2,3h-2Zm-520,2c4,1.71,2.78.55,4,5l-3,1c-2.21-2.06-1.88-1.38-3-5Zm-1186,1,4,2-2,2Zm1766,0,3,3v1h-4C1933.33,1082.67,1933.67,1081.33,1934,1080Zm202,4h3l3,3-4,3-3-3C2135.33,1086,2135.67,1085,2136,1084ZM85,1086l2,2-1,1-2-1v-1Zm259,0h4v1l-2,2Zm220,0,1,2Zm-451,2h3l2,2v2l-1,1h-4l-1-2Zm479,1c3,1.93,1.62.2,3,4l-4,1C591.33,1092.33,591.67,1090.67,592,1089Zm-487,1,5,1-1,2-3,1Zm2434,0c.67,1.33,1.33,2.67,2,4h-4v-3Zm-354,1,3,3-4,2c-.33-.67-.67-1.33-1-2Zm-2033,4h4l-3,4Zm175,0h2C327.26,1096,328.78,1095.91,327,1095Zm1435,0,5,1v4l-2,1-3-2Zm769,1h2c-1.39,1.92-.1.6-2,2Zm-682,2c3.4,1.35,2.07.61,4,3h-4Zm30,0c2.08,2,1.36,1,2,5h-1l-3-2Zm-1291,1c3,1.26,1.2,0,3,2h-1Zm-415,2h3l-2,2Zm2013,0h2l-2,3Zm-2009,1,4,2c-1.63,4.37,0,2.94-5,4C176.33,1106,176.67,1104,177,1102Zm1625,1h2c-1.8,2,0,.71-3,2C1801.33,1104.33,1801.67,1103.67,1802,1103Zm-1667,3c2.68,3.5,3.14,1.5,0,5h-1l-1-2Zm1215,1,4,2v1l-3,1C1350.67,1109.67,1350.33,1108.33,1350,1107Zm457,1c4.2,1.54,2.45-.18,4,4h-4Zm-206,1h5c.33.67.67,1.33,1,2v1c-.33.67-.67,1.33-1,2h-4C1600.77,1111,1600.7,1112.17,1601,1109Zm303,0c3.19,2.1,2.48,1,3,6l-3,1-3-3Zm-1517,1,2,2-1,1-2-1v-1Zm1335,0h2c-1.39,1.92-.1.6-2,2Zm-1600,2,4,1-2,3-2-1Zm256,0h3c-.67,1.33-1.33,2.67-2,4l-2-2C377.33,1113.33,377.67,1112.67,378,1112Zm1364,1,4,2-2,2h-1C1742.67,1115.67,1742.33,1114.33,1742,1113Zm121,1,2,2-2,1Zm-560,3h2c-1.39,1.92-.1.6-2,2Zm-1161,2h2c-1.39,1.92-.1.6-2,2Zm1168,2,3,1c-.67,1.33-1.33,2.67-2,4C1309.22,1123.39,1309.4,1124.39,1310,1121Zm612,0,3,1c-.67,1.33-1.33,2.67-2,4C1921.22,1123.39,1921.4,1124.39,1922,1121Zm-556,2h2c-1.39,1.92-.1.6-2,2Zm476,4,4,2v3c-3.65-1.06-2.94-.81-5-3C1841.33,1128.33,1841.67,1127.67,1842,1127Zm86,2,2,2-1,1-2-1v-1Zm-1810,3,4,2-3,3C117.57,1134.14,117.41,1135.55,118,1132Zm1471,0,4,1-3,3-2-2C1588.33,1133.33,1588.67,1132.67,1589,1132Zm286,1c.33.67.67,1.33,1,2h-2C1874.33,1134.33,1874.67,1133.67,1875,1133Zm-1748,3h2c-1.39,1.92-.1.6-2,2Zm1441,0h2c-1.39,1.92-.1.6-2,2Zm276,1,2,2-3,1C1843.33,1139,1843.67,1138,1844,1137ZM84,1141h2C84.26,1142,85.78,1141.91,84,1141Zm8,0,4,1-1,3-4-2Zm1662,15,5,1v1c-.33.67-.67,1.33-1,2C1753.23,1158.55,1755.5,1160.7,1754,1156Zm10,3,2,2-1,1C1764.67,1161,1764.33,1160,1764,1159Zm285,7c3.64,1.14,2.74,1.13,5,3l-3,3C2048.24,1169.26,2048.46,1170,2049,1166Zm-525,2h2c-1.39,1.92-.1.6-2,2Zm59,0c3.4,1.35,2.07.61,4,3l-2,2h-2Zm31,0,4,2-3,3C1613.22,1170.39,1613.4,1171.39,1614,1168Zm9,1c3,1.94,1,.33,2,3Zm1012,4c.67,1.33,1.33,2.67,2,4l-2,1Zm-1044,2h2c-.33,1-.67,2-1,3h-1l-1-1v-1Zm1001,0c3,1.93,1.62.2,3,4-3.06,2.11-2.93,2.22-6,0Zm-552,2c3.83,1.32,2.08,0,4,3h-4Zm11,0h3c-.33,1.67-.67,3.33-1,5h-3c-.33-.67-.67-1.33-1-2Zm-512,6c4.2,1.54,2.45-.18,4,4h-1l-3-1Zm-26,1h2c-1.8,2,0,.71-3,2C1512.33,1185.33,1512.67,1184.67,1513,1184Zm1104,1h3v3l-2,1-2-2C2616.33,1186.33,2616.67,1185.67,2617,1185Zm-604,2,2,2-1,1-2-1v-1Zm20,0,4,1-3,3h-1c-.33-1-.67-2-1-3ZM593,1197l4,2C595.65,1203.26,591.08,1201,593,1197Zm1037,5h3l2,2c-1.83,3.48-.84,2.69-5,4l-1-1C1629.33,1205.33,1629.67,1203.67,1630,1202Zm-126,1,3,4-3,1h-1C1503.33,1206.33,1503.67,1204.67,1504,1203Zm-130,1c3.48,1.83,2.69.84,4,5l-2,2h-3l-1-1C1372.67,1208,1373.33,1206,1374,1204Zm303,3h2c-1.39,1.92-.1.6-2,2Zm-142,2h5c.33,1,.67,2,1,3l-3,3-3-1Zm-60,1,5,1v4C1474.3,1215.76,1474.37,1215.87,1475,1210Zm1123,2c.33.67.67,1.33,1,2C2598.67,1213.33,2598.33,1212.67,2598,1212Zm-941,3c4,2,1.18,1.11,3,4h-5v-1Zm417,3,3,4-2,1-3-1v-1Zm22,0h2c-1.39,1.92-.1.6-2,2Zm-1042,2h3l2,2v2l-2,1-4-3C1053.33,1221.33,1053.67,1220.67,1054,1220Zm-891,1c-.42.93.8.68-1,2Zm-38,1h3l2,2c-1.83,3.48-.84,2.69-5,4l-1-1C124.33,1225.33,124.67,1223.67,125,1222Zm1928,2,4,2v3l-3,2-3-1c-.33-1-.67-2-1-3Zm-1454,1,3,2-1,2h-4Zm1462,3h2c-1.39,1.92-.1.6-2,2Zm-1120,1,2,2-1,1-2-1Zm1681,0h4c-.67,1.33-1.33,2.67-2,4h-2Zm-1972,2,2,2-1,1-2-1Zm723,0,2,2-2,2-3-1v-1l1-1Zm-1182,2c2.62,1.78,1.36.06,1,3h-1Zm2426,2c.33,1,.67,2,1,3h-1l-1-1C2616.33,1236.33,2616.67,1235.67,2617,1235Zm-1974,1c3.14,2.06,2.07.48,3,5h-4l-1-2Zm373,1h2c-1.39,1.92-.1.6-2,2Zm518,1,4,2c-2.06,2.21-1.38,1.88-5,3C1533.33,1241.33,1533.67,1239.67,1534,1238Zm-498,1,5,1v1l-2,1C1036.3,1240.4,1037.62,1241.66,1036,1239Zm466,0c.33.67.67,1.33,1,2C1502.67,1240.33,1502.33,1239.67,1502,1239Zm-1315,1,3,1v4h-4C186.33,1243.33,186.67,1241.67,187,1240Zm1813,0,2,2-1,1C2000.67,1242,2000.33,1241,2000,1240Zm-367,1c.33.67.67,1.33,1,2C1633.67,1242.33,1633.33,1241.67,1633,1241Zm422,6c.4-4,.33-3.91,2-6a11.27,11.27,0,0,1,4,4c-.33.67-.67,1.33-1,2Zm-1471-4c4,2.18,4.39,6.52-2,8l-1-2Zm770,1h2c-1.39,1.92-.1.6-2,2Zm-1212,2c1.93,1.52,1.77,1.79,3,4l-3,1-2-1Zm788,1c2.4,1.75,1.67,1,3,4l-3,1h-1C929.33,1250.33,929.67,1248.67,930,1247Zm1071,1h3c-.64,3.63-.4,3-2,5C2000.22,1250.39,2000.4,1251.39,2001,1248Zm-470,1h3v1l-3,1Zm-629,1h4v2l1,3-1,1h-4l-1-3Zm515,0h3v1l-3,1Zm645,0,4,2v3l-2,1-4-3Zm-653,3,4,2-2,2h-2Zm-342,1c.33.67.67,1.33,1,2C1067.67,1255.33,1067.33,1254.67,1067,1254Zm302,1c3.65,1.06,2.94.81,5,3l-2,3h-3l-1-1C1368.33,1258.33,1368.67,1256.67,1369,1255Zm287,7h4v4h-3l-2-2C1655.33,1263.33,1655.67,1262.67,1656,1262Zm-596,2,2,2-1,1-2-1v-1Zm8,1,4,2v1l-3,1-2-2C1067.33,1266.33,1067.67,1265.67,1068,1265Zm-933,3,2,2-1,1-2-1Zm460,0,4,1-2,3-3-2Zm1053,0h3c-.33,1-.67,2-1,3Zm393,0c3,1.93,1.62.2,3,4l-4-1C2040.33,1270,2040.67,1269,2041,1268Zm-1425,3,2,2-2,1Zm2072,5c2,1.8.71,0,2,3Zm-1636,3h4c-1.54,4.2.18,2.45-4,4Zm330,1,5,1-2,3Zm-321,2,3,2h-3Zm344,1c2,1.8.71,0,2,3h-2Zm1277,0h4c-.67,1.33-1.33,2.67-2,4C2683.33,1285.67,2682.67,1284.33,2682,1283Zm-1728,2c3,1.93,1.62.2,3,4l-2,1-3-1v-1Zm1087,6h2c-1.39,1.92-.1.6-2,2Zm-1091,4h2c-1.39,1.92-.1.6-2,2Zm1761,0c.33.67.67,1.33,1,2C2711.67,1296.33,2711.33,1295.67,2711,1295Zm-2141,7h4l-2,4Zm-8,1h2c-1.39,1.92-.1.6-2,2Zm527,0c.67,1.33,1.33,2.67,2,4l-4-2v-1Zm21,1,2,2-1,1-2-1v-1Zm230,6c.33.67.67,1.33,1,2h-2C1339.33,1311.33,1339.67,1310.67,1340,1310Zm261,2h2c-.33,1-.67,2-1,3h-1l-1-1v-1Zm-251,5,2,2-1,1-2-1C1349.33,1318.33,1349.67,1317.67,1350,1317Zm8,0h4c-.67,1.33-1.33,2.67-2,4C1359.33,1319.67,1358.67,1318.33,1358,1317Zm374,1,2,2-2,1Zm-128,1,4,1c-.67,1.33-1.33,2.67-2,4l-3-3C1603.33,1320.33,1603.67,1319.67,1604,1319Zm-533,4,5,1v4h-3l-2-1Zm321,1h3v4l-4-2C1391.33,1325.33,1391.67,1324.67,1392,1324Zm333,0,4,1c-.33.67-.67,1.33-1,2l-3,1Zm972,1h3c-.67,1.33-1.33,2.67-2,4h-1c-.33-1-.67-2-1-3Zm25,1h4c.33,1,.67,2,1,3-2.06,2.21-1.38,1.88-5,3-.33-1-.67-2-1-3C2721.33,1328,2721.67,1327,2722,1326Zm-1372,1c2.07,2,1,.37,2,4h-1l-2-2C1349.33,1328.33,1349.67,1327.67,1350,1327Zm224,0c.33.67.67,1.33,1,2C1574.67,1328.33,1574.33,1327.67,1574,1327Zm-22,2c2,1.8.71,0,2,3h-2Zm-154,3h2c-1.39,1.92-.1.6-2,2Zm-171,1h3l2,2-3,4-3-3C1226.33,1335,1226.67,1334,1227,1333Zm333,0c3.14,2.06,2.07.48,3,5h-3c-.67-1.33-1.33-2.67-2-4Zm189,6c2.07,2,1,.37,2,4l-4-1Zm934,2,2,2-1,1C2683.67,1343,2683.33,1342,2683,1341Zm-1916,2,2,1c-.33,1.67-.67,3.33-1,5h-3l-1-3Zm41,2,1,3-2-1Zm533,5,4,3c-3,2.86-5.14,4.09-6-2Zm-552,5c4,1.45.62.08,3,3l-4-1Zm765,0,4,2c-.33,1.33-.67,2.67-1,4h-1l-4-3Zm-19,1,2,2C1535.08,1356.61,1536.4,1357.9,1535,1356Zm-295,1h3c.33.67.67,1.33,1,2-.33.67-.67,1.33-1,2h-1l-2-1Zm341,1,4,2-2,2C1582.33,1360.67,1581.67,1359.33,1581,1358Zm-320,3c2,1.8.71,0,2,3Zm824,0c.67,1.33,1.33,2.67,2,4l-4-2v-1Zm-353,4c1.31,2.72.44,1.92-1,4h-1v-3Zm360,1h2c-1.39,1.92-.1.6-2,2Zm-62,4h2c-1.39,1.92-.1.6-2,2Zm-277,1,4,2v3l-3,1C1752,1374.16,1752.53,1375,1753,1371Zm-322,2h2c-1.39,1.92-.1.6-2,2Zm628,1c2,1.8.71,0,2,3h-1l-2-1C2058.33,1375.33,2058.67,1374.67,2059,1374Zm8,0h4v4h-4c-.33-.67-.67-1.33-1-2C2066.33,1375.33,2066.67,1374.67,2067,1374Zm-473,3h2c-1.39,1.92-.1.6-2,2Zm120,1h2c-1.39,1.92-.1.6-2,2Zm-156,2h3v4h-1l-3-2C1557.33,1381.33,1557.67,1380.67,1558,1380Zm490,0c.67,1.33,1.33,2.67,2,4l-4-2v-1Zm-1347,1h3l2,2-2,3h-3Zm786,6,3,2c-.33,1-.67,2-1,3h-1C1485.13,1388.51,1485.48,1390.8,1487,1387Zm46,3a11.27,11.27,0,0,1,4,4l-3,3c-2.78-2.26-2.41-1.11-3-6Zm-92,1h4v4h-1l-2-1C1441.67,1393,1441.33,1392,1441,1391Zm137,0h3v1l-3,1Zm-371,1h2c-1.39,1.92-.1.6-2,2Zm8,0,4,2-2,2C1216.33,1394.67,1215.67,1393.33,1215,1392Zm277,4h3l-2,2C1492.67,1397.33,1492.33,1396.67,1492,1396Zm229,1,4,2c-.67,1.33-1.33,2.67-2,4l-3-1C1720,1399,1719.78,1400,1721,1397Zm-933,1h4l-2,4-3-1Zm-71,4c3.63,2.61,1.31-.26,2,4l-3-1Zm21,1,2,2-1,1-2-1v-1Zm43,0h3l-1,4h-1Zm1267,1h4v3c-.33.67-.67,1.33-1,2h-3Zm-98,4h2c-.33,1-.67,2-1,3h-1l-1-1v-1Zm-242,1c3.65,1.06,2.94.81,5,3-.33,1.33-.67,2.67-1,4h-5C1707.33,1413.67,1707.67,1411.33,1708,1409Zm-276,5,5,1v4l-3,1C1431.24,1417.26,1431.46,1418,1432,1414Zm73,0c3.65,1.06,2.94.81,5,3l-2,3h-5c-.33-.67-.67-1.33-1-2Zm585,0c.67,1.33,1.33,2.67,2,4h-4v-3Zm21,0c2,1.8.71,0,2,3h-2Zm165,2c2,1.8.71,0,2,3h-2Zm-899,1h2c-1.8,2,0,.71-3,2C1376.33,1418.33,1376.67,1417.67,1377,1417Zm553,1c3.48,1.83,2.69.84,4,5h-4c-.67-1.33-1.33-2.67-2-4Zm354,0h4v4h-4c-.33-.67-.67-1.33-1-2C2283.33,1419.33,2283.67,1418.67,2284,1418Zm-572,5h4v1l-2,3-3-2C1711.33,1424.33,1711.67,1423.67,1712,1423Zm-336,2,4,2-4,2c-.33-.67-.67-1.33-1-2v-1Zm568,3h2c-.33,1.67-.67,3.33-1,5h-2c-.33-1.33-.67-2.67-1-4Zm-252,3c3,1.26,1.2,0,3,2h-1Zm-375,3,4,2v3l-3,1-2-1C1316.33,1437.33,1316.67,1435.67,1317,1434Zm754,2h3l3,3c-2.06,2.21-1.38,1.88-5,3,0-3.4.19-.14-2-3C2070.33,1438,2070.67,1437,2071,1436Zm-172,1h3v5C1897.47,1440.08,1898.39,1441.35,1899,1437Zm-699,1h2l-2,3Zm506,0,4,2-4,2Zm-1010,1,4,1-1,3-4-2Zm-8,2h2c-1.39,1.92-.1.6-2,2Zm821,0,2,2-4,2C1507.67,1443.67,1508.33,1442.33,1509,1441Zm415,3h3v1c-.33,1-.67,2-1,3l-3-1C1923.33,1446,1923.67,1445,1924,1444Zm345,2,2,2C2269.08,1446.61,2270.4,1447.9,2269,1446Zm-374,1h3v1l-3,1Zm-555,1,3,4-2,1C1339.22,1450.39,1339.4,1451.39,1340,1448Zm620,0c1.6,2,1.3,1.39,2,5-3.5.74-3.38,1-6-1l2-3Zm-301,2h2c-1.39,1.92-.1.6-2,2Zm257,0h5v4l-5,1c-.33-.67-.67-1.33-1-2C1915.33,1452,1915.67,1451,1916,1450Zm-773,2,4,2v2l-4,1Zm611,0,3,2h-3Zm-198,1h2c-1.8,2,0,.71-3,2C1555.33,1454.33,1555.67,1453.67,1556,1453Zm167,0,2,2h-3C1722.33,1454.33,1722.67,1453.67,1723,1453Zm22,0h4c-.67,1.33-1.33,2.67-2,4h-2Zm160,0c2,1.8.71,0,2,3Zm-239,1,4,2c-.33.67-.67,1.33-1,2l-3,1c-.33-1-.67-2-1-3C1665.33,1455.33,1665.67,1454.67,1666,1454Zm-478,2,4,1v1l-4,2Zm304,1c1.92,1.39.6.1,2,2Zm56,0h3v4h-4C1547.33,1459.67,1547.67,1458.33,1548,1457Zm-410,4h3l-2,2C1138.67,1462.33,1138.33,1461.67,1138,1461Zm1161,0c.67,1.33,1.33,2.67,2,4l-4-2v-1Zm612,2h4c-1.54,4.2.18,2.45-4,4Zm-935,2h2c-1.8,2,0,.71-3,2C1975.33,1466.33,1975.67,1465.67,1976,1465Zm344,0c1.63,2.52,1,.17,0,3h-1C2319.33,1467,2319.67,1466,2320,1465Zm583,3c3,1.26,1.2,0,3,2h-1Zm-1582,1,5,2v3l-1,1c-3.63-.64-3-.4-5-2C1320.33,1471.67,1320.67,1470.33,1321,1469Zm644,0h3l-2,2C1965.67,1470.33,1965.33,1469.67,1965,1469Zm-7,1c.67,1.33,1.33,2.67,2,4l-1,1h-1c-.67-1.33-1.33-2.67-2-4Zm-616,1h3l-2,2C1342.67,1472.33,1342.33,1471.67,1342,1471Zm629,0,3,2-2,3-3-1C1969.67,1473.67,1970.33,1472.33,1971,1471Zm-42,1c.67,1.33,1.33,2.67,2,4h-4v-1Zm1040,1,2,2-1,1-2-1v-1Zm-1690,5c.33,1,.67,2,1,3h-1l-1-1C1278.33,1479.33,1278.67,1478.67,1279,1478Zm999,0a20.48,20.48,0,0,1,4,4c-.33.67-.67,1.33-1,2h-1l-4-1C2276.72,1479.41,2276.7,1480.13,2278,1478Zm-1081,3c4,.4,3.91.33,6,2-.33,1-.67,2-1,3h-5c-.33-.67-.67-1.33-1-2C1196.33,1483,1196.67,1482,1197,1481Zm1753,3,4,2v1l-3,1C2950.67,1486.67,2950.33,1485.33,2950,1484Zm-1652,1c3.65,1.06,2.94.81,5,3l-3,1C1299.33,1487.67,1298.67,1486.33,1298,1485Zm620,7h2c-1.39,1.92-.1.6-2,2Zm-748,2h2l-2,3Zm156,13c.33.67.67,1.33,1,2C1326.67,1508.33,1326.33,1507.67,1326,1507Zm1621,2,6,1v1l-2,3C2945.51,1512.77,2946.39,1513.49,2947,1509Zm-1773,5c.67,1.33,1.33,2.67,2,4l-2,1h-1c-.33-.67-.67-1.33-1-2Zm1354,2h2c-1.39,1.92-.1.6-2,2Zm-1332,10,4,2c-1.44,5-2.76,4.56-6,2C1194.67,1528.67,1195.33,1527.33,1196,1526Zm108,4h3l2,2-2,2h-2C1304.67,1532.67,1304.33,1531.33,1304,1530Zm1231,4c.67,1.33,1.33,2.67,2,4l-4-1Zm-1221,1h2c-1.39,1.92-.1.6-2,2Zm830,4c3,1.93,1.62.2,3,4-.33.67-.67,1.33-1,2h-3l-1-1C2142.72,1540.41,2142.7,1541.13,2144,1539Zm-1007,2h3v4l-1,1-3-3C1136.33,1542.33,1136.67,1541.67,1137,1541Zm1420,0c3.84,1.76,2.91.28,4,5-.33.67-.67,1.33-1,2h-1l-4-2v-1C2555.67,1543.67,2556.33,1542.33,2557,1541Zm369,3,4,2c-1.83,3.48-.84,2.69-5,4-.33-1-.67-2-1-3Zm-1867,3,2,2-2,1Zm109,1c.33.67.67,1.33,1,2h-2C1167.33,1549.33,1167.67,1548.67,1168,1548Zm-147,2c2,1.8.71,0,2,3h-2Zm117,1h2c-.33,1-.67,2-1,3h-1l-1-1v-1Zm1047,1,2,2-1,1-2-1v-1Zm-1181,5h4l-2,4Zm769,0,6,1v3l-1,1h-5Zm390,0h4c-.33,1-.67,2-1,3C2162,1558.58,2164.21,1559.59,2163,1557Zm-1117,6h3v3l-3,1Zm17,0,5,1v4l-1,1h-4Zm-64,1h2c-1.39,1.92-.1.6-2,2Zm1505,0c3,1.93,1.62.2,3,4l-4-2C2503.33,1565.33,2503.67,1564.67,2504,1564Zm461,0c3.14,2.06,2.07.48,3,5h-5v-4Zm-1960,1h5l1,2v1c-2.27,1.36-2,1.45-6,2l-1-2Zm1672,0c.33.67.67,1.33,1,2C2677.67,1566.33,2677.33,1565.67,2677,1565Zm-1641,1c3,1.93,1.62.2,3,4h-4C1035.33,1568.67,1035.67,1567.33,1036,1566Zm1906,0h4v1c-.33,1-.67,2-1,3l-3-1Zm-303,7c.3-3.08-.95-6,2-4,2.86-1.65.28-1.47,4,0v3l-1,1Zm-385-3h2C2254.25,1571,2255.78,1570.91,2254,1570Zm-59,1c3,1.93,1.62.2,3,4l-3,2-2-1C2193.72,1572.41,2193.7,1573.13,2195,1571Zm-358,2c2,1.8.71,0,2,3h-2Zm669,0,2,2-2,1Zm-369,2c.33.67.67,1.33,1,2C2137.67,1576.33,2137.33,1575.67,2137,1575Zm570,1c.33,1,.67,2,1,3h-1l-1-1C2706.33,1577.33,2706.67,1576.67,2707,1576Zm-2358,1,4,2v3l-2,1h-2l-1-1C348.33,1580.33,348.67,1578.67,349,1577Zm1902,0h3v4l-4-2C2250.33,1578.33,2250.67,1577.67,2251,1577Zm-1944,1h2c-1.39,1.92-.1.6-2,2Zm2606,0c.33.67.67,1.33,1,2C2913.67,1579.33,2913.33,1578.67,2913,1578Zm-1081,2c3,1.93,1.62.2,3,4l-2,1C1831.22,1582.39,1831.4,1583.39,1832,1580Zm-1491,1,3,1-3,4-2-2Zm1446,0c1.93,1.52,1.77,1.79,3,4h-4C1786.33,1583.67,1786.67,1582.33,1787,1581Zm-1330,2h3l2,2v2l-2,1-4-3C456.33,1584.33,456.67,1583.67,457,1583Zm2031,0,2,2-1,1-2-1v-1Zm214,0c2.42,1.91,1.62.64,3,4l-2,2C2701,1586.16,2701.53,1587,2702,1583Zm-206,1,4,2-2,2h-2Zm-2163,2,2,2-1,1-2-1v-1Zm719,0h5c-1.06,3.65-.81,2.94-3,5l-3-3C1051.33,1587.33,1051.67,1586.67,1052,1586Zm14,1h2c-1.8,2,0,.71-3,2C1065.33,1588.33,1065.67,1587.67,1066,1587Zm-741,1,4,2-4,2Zm692,2,2,4h-4Zm1195,0c1.78,3.23,2.61,2-1,4C2211.33,1592.67,2211.67,1591.33,2212,1590Zm445,1c2.41,1.75,1.67,1,3,4h-4C2656.33,1593.67,2656.67,1592.33,2657,1591Zm-2260,1c2,1.8.71,0,2,3h-2Zm663,1h3v4h-4C1059.33,1595.67,1059.67,1594.33,1060,1593Zm-706,1h2c-1.39,1.92-.1.6-2,2Zm395,3c2,1.8.71,0,2,3Zm301,1c.33.67.67,1.33,1,2C1050.67,1599.33,1050.33,1598.67,1050,1598Zm1431,0,5,1c-.33,1.33-.67,2.67-1,4h-5C2480.33,1601.33,2480.67,1599.67,2481,1598Zm-329,1,5,1-2,3C2152.58,1601.09,2153.38,1602.36,2152,1599Zm-1395,1h3v4l-4-2Zm186,1,5,1v4h-4C942.22,1603.39,942.4,1604.39,943,1601Zm834,1c3,1.94,1,.33,2,3Zm155,0,6,2v1c-.33.67-.67,1.33-1,2h-4l-2-2C1931.33,1604,1931.67,1603,1932,1602Zm213,1h2c-1.39,1.92-.1.6-2,2Zm-1766,1h3v3l-4-1C378.33,1605.33,378.67,1604.67,379,1604Zm62,1h4v1l-2,2Zm1818,0,2,2-1,1-2-1v-1Zm665,0,3,1c-.67,1.33-1.33,2.67-2,4l-3-2Zm-2576,1h2c-1.39,1.92-.1.6-2,2Zm73,0h2c-1.39,1.92-.1.6-2,2Zm565,1,2,2C986.08,1607.61,987.4,1608.9,986,1607Zm33,1,4,3-1,2h-1l-4-2Zm1896,0h2c-1.39,1.92-.1.6-2,2Zm-1910,2h2c-1.39,1.92-.1.6-2,2Zm1203,1h2c-1.39,1.92-.1.6-2,2Zm-1861,2c2,1.8.71,0,2,3Zm2304,0c1.63,2.52,1,.17,0,3h-1C2650.33,1615,2650.67,1614,2651,1613Zm-2295,1h3l-1,4h-1Zm1365,1h3c-.33,1-.67,2-1,3Zm-1057,1h4l1,3-2,2-4-3Zm314,0h2C978.25,1617,979.78,1616.91,978,1616Zm-32,1c2.78,2.26,2.41,1.11,3,6h-3l-2-1v-1Zm78,0c2.62,1.78,1.36.06,1,3h-1Zm-52,4h2l-2,4-2-1Zm1545,1c2.21,2.56,1.2.58,1,4l-3-1Zm-2157,1,3,3c-.33.67-.67,1.33-1,2h-1C359.57,1625.14,359.41,1626.55,360,1623Zm1359,0h4l-2,5h-1C1718.57,1625.14,1718.41,1626.55,1719,1623Zm33,0c.33.67.67,1.33,1,2C1752.67,1624.33,1752.33,1623.67,1752,1623Zm737,0h4v1l-2,2Zm48,0c2,1.8.71,0,2,3Zm-2151,1a11.27,11.27,0,0,1,4,4l-2,3h-3l-1-1Zm1865,0h3c-.67,1.33-1.33,2.67-2,4h-1Zm-329,2h4v1l-2,2Zm-1526,2h3v4h-3l-1-3Zm551,0c2.07,2,1,.37,2,4h-4v-3Zm1261,0h4c-.67,1.33-1.33,2.67-2,4C2209.33,1630.67,2208.67,1629.33,2208,1628Zm-1833,2c5.45.51,4.37-.41,6,4h-2l-3,1C375.67,1633.33,375.33,1631.67,375,1630Zm134,0h3l2,2c-1.83,3.48-.84,2.69-5,4l-1-1C508.33,1633.33,508.67,1631.67,509,1630Zm2000,0c1.92,1.39.6.1,2,2Zm-2171,1h4l1,3c-.33.67-.67,1.33-1,2h-4Zm1455,0,4,2v3l-2,1-4-1v-4Zm109,0h2c-1.39,1.92-.1.6-2,2Zm-1578,1,4,2-2,2h-2Zm75,5,2,2C399.08,1637.61,400.4,1638.9,399,1637Zm1806,0h2C2205.25,1638,2206.78,1637.91,2205,1637Zm-1873,1h2l-1,3h-1l-1-1v-1Zm321,1h4v1l-2,2Zm344,0,3,2h-3Zm1504,1a11.27,11.27,0,0,1,4,4c-.33.67-.67,1.33-1,2h-4c-.33-1-.67-2-1-3Zm-1734,1,4,2-2,4-4-3Zm-306,2h4c-.67,1.33-1.33,2.67-2,4h-2Zm173,0,2,2-1,1Zm356,0c2,1.36,1.61,1.12,3,3l-1,2-4-2Zm-61,1h3v1l-3,1Zm-459,1h2c-1.39,1.92-.1.6-2,2Zm50,0,4,2-3,4-3-3Zm1745,0c3.14,2.06,2.07.48,3,5h-5v-4Zm-487,1,4,3c-.33,1-.67,2-1,3l-4,1-1-1C1776.49,1648,1776.64,1648.26,1778,1646Zm-990,2,1,3-2-1Zm1709,0,5,2v1l-4,3-2-1C2496.33,1651.33,2496.67,1649.67,2497,1648Zm-1273,1h2c-.33,1-.67,2-1,3h-1l-1-1v-1Zm-214,1h2c-1.39,1.92-.1.6-2,2Zm1441,0h2c-1.39,1.92-.1.6-2,2Zm8,1,4,1c-.33,1-.67,2-1,3l-4-2C2458.33,1652.33,2458.67,1651.67,2459,1651Zm-1287,1,4,2v2l-2,1-4-2Zm-649,2,5,1-2,3Zm555,0h2c-1.39,1.92-.1.6-2,2Zm-532,2c2,1.8.71,0,2,3h-2Zm200,0c4.5,1.39,3.6.52,5,5l-2,1-3-1Zm1006,0c2.07,2,1,.37,2,4l-1,1-3-2Zm-1384,1c.33.67.67,1.33,1,2C368.67,1658.33,368.33,1657.67,368,1657Zm855,0c3.4,1.35,2.07.61,4,3l-4,2c-.33-.67-.67-1.33-1-2C1222.33,1659,1222.67,1658,1223,1657Zm565,0h3c-.33,1.33-.67,2.67-1,4l-3-1C1787.33,1659,1787.67,1658,1788,1657Zm-722,1c5.41.86,3.8.34,6,4l-3,3-4-4C1065.33,1660,1065.67,1659,1066,1658Zm885,0h3v4l-4-2C1950.33,1659.33,1950.67,1658.67,1951,1658Zm9,0h2c-1.39,1.92-.1.6-2,2Zm-974,3,3,2-2,2-3-1Zm-647,1,3,3-2,2-3-2Zm221,0c2,1.8.71,0,2,3h-2Zm1129,2c3.65,1.06,2.94.81,5,3-.33.67-.67,1.33-1,2-4-.4-3.91-.33-6-2Zm-1151,1h4v3C538.17,1666.68,539.92,1668,538,1665Zm484,2,4,2-2,2-3-2Zm51,0c2.74,1.58,1.74-.07,1,3C1073.67,1669,1073.33,1668,1073,1667Zm696,0h2c-1.39,1.92-.1.6-2,2Zm276,0h2c-.33,1-.67,2-1,3h-1l-1-1v-1Zm-1064,2h2C981.25,1670,982.78,1669.91,981,1669Zm57,0h4v5h-4c-.33-1-.67-2-1-3C1037.33,1670.33,1037.67,1669.67,1038,1669Zm27,0,3,2-4,2C1064.33,1671.67,1064.67,1670.33,1065,1669Zm98,0h3l2,2c-1.83,3.48-.84,2.69-5,4Zm-820,2c1.63,2.52,1,.17,0,3h-1Zm338,0h4c-1.54,4.2.18,2.45-4,4l-1-2v-1Zm9,0,3,2h-3Zm1783,1,3,2-4,2C2472.33,1674.67,2472.67,1673.33,2473,1672ZM79,1674h3l-2,2Zm2425,0h4v1l-2,2Zm-458,1h4v4C2045.8,1677.46,2047.55,1679.18,2046,1675Zm-868,1,4,1v2l-2,1h-1c-.33-.67-.67-1.33-1-2ZM18,1677h3l2,2-1,3H18Zm892,0,2,2-1,1-2-1v-1Zm834,1c2,1.8.71,0,2,3h-1l-2-1C1743.33,1679.33,1743.67,1678.67,1744,1678Zm89,1,2,3-3-1C1832.33,1680.33,1832.67,1679.67,1833,1679Zm-1418,1h3v1l-3,1Zm96,0c.33.67.67,1.33,1,2C511.67,1681.33,511.33,1680.67,511,1680Zm-434,1c3,1.93,1.62.2,3,4l-2,1C76.21,1683.39,76.4,1684.39,77,1681Zm1748,0,3,2-2,3-3-2Zm700,0c.33,1,.67,2,1,3l-2-1C2524.33,1682.33,2524.67,1681.67,2525,1681Zm-2119,1c4.2,1.54,2.45-.18,4,4l-3,1C405.21,1684.39,405.4,1685.39,406,1682Zm196,0c2.62,1.78,1.36.06,1,3h-1Zm584,1,4,2-3,3h-1Zm11,2c1.92,1.39.6.1,2,2Zm624,0h2c-1.39,1.92-.1.6-2,2Zm-160,1c.33.67.67,1.33,1,2C1661.67,1687.33,1661.33,1686.67,1661,1686Zm-1454,1c2,1.8.71,0,2,3h-2Zm388,1h3l2,2-3,3-2-1-1-2Zm-169,1,4,2v3h-4c-.67-1.33-1.33-2.67-2-4Zm25,0c.33.67.67,1.33,1,2C451.67,1690.33,451.33,1689.67,451,1689Zm-107,1h4v4h-4Zm10,0h2c-1.39,1.92-.1.6-2,2Zm145,0,5,3-3,4h-1l-3-6Zm203,1h2c-1.39,1.92-.1.6-2,2Zm990,0,5,1-3,3h-1C1692.67,1693.67,1692.33,1692.33,1692,1691Zm-1201,1c2.62,1.78,1.36.06,1,3h-1Zm-10,1c2,1.8.71,0,2,3h-2Zm483,0h4v3l-2,2C964.4,1696,964.7,1696.61,964,1693Zm50,0,5,1-2,5h-3l-1-1C1013.33,1696.33,1013.67,1694.67,1014,1693Zm-977,2,2,4-2,1H36C36.33,1698.33,36.67,1696.67,37,1695Zm173,0,4,2v2l-2,1-3-3Zm709,1h4v4h-1Zm-222,2h4l-2,4Zm-280,1,4,3-4,4-2-1v-4Zm1576,0c2.42,1.91,1.62.64,3,4-.33.67-.67,1.33-1,2h-3l-1-1Zm471,1h2c-1.39,1.92-.1.6-2,2Zm-2284,1,1,2Zm298,0,4,2v2l-4,1Zm492,0,3,2h-3Zm168,0h2c-1.39,1.92-.1.6-2,2Zm1334,0,4,2-2,3-3-3C2471.33,1702.33,2471.67,1701.67,2472,1701Zm496,0c3,1.93,1.62.2,3,4h-3c-.33-1-.67-2-1-3Zm-1822,1,4,2c-.33.67-.67,1.33-1,2h-3Zm566,0h3l-2,2C1712.67,1703.33,1712.33,1702.67,1712,1702Zm1206,0c3,1.26,1.2,0,3,2h-1Zm-1088,2c2.7,2.19,1.9.71,3,5h-1l-3-3C1829.33,1705.33,1829.67,1704.67,1830,1704Zm-1304,1,3,3-1,2c-3.64-.64-3-.4-5-2l1-2Zm1350,0h4v3l-2,2C1876.4,1708,1876.7,1708.61,1876,1705Zm-687,1,2,2-1,1-2-1v-1Zm829,1c3,1.93,1.62.2,3,4l-2,1-1-1Zm906,0c3.4,1.35,2.07.61,4,3l-4,2Zm-2407,1,2,2-2,1Zm566,0h4v3l-3,1-2-2C1082.33,1709.33,1082.67,1708.67,1083,1708ZM60,1710h2l-2,3Zm366,0h2C426.26,1711,427.78,1710.91,426,1710Zm1221,2,3,2h-3ZM53,1714l3,2-2,2-3-1Zm399,0c.33.67.67,1.33,1,2C452.67,1715.33,452.33,1714.67,452,1714Zm1203,0,4,1c-.67,1.33-1.33,2.67-2,4C1655.4,1717,1655.7,1717.61,1655,1714Zm227,0c2.62,1.78,1.36.06,1,3h-1Zm-1463,1h3v1l-1,3-3-1Zm1732,0c2,1.8.71,0,2,3h-2Zm-1072,1h2c-1.39,1.92-.1.6-2,2ZM34,1717l2,2-1,1-2-1v-1Zm-34,1H2c-1.39,1.92-.1.6-2,2Zm437,0,3,4-3,1h-1C436.33,1721.33,436.67,1719.67,437,1718Zm459,1h4l1,2-1,3-5,1-1-1Zm-540,1c.33.67.67,1.33,1,2C356.67,1721.33,356.33,1720.67,356,1720Zm553,0,5,1v4h-5l-1-3Zm1240,2c3.65,1.06,2.94.81,5,3-.33,1-.67,2-1,3l-4,1-1-1C2148.33,1726,2148.67,1724,2149,1722Zm-1749,1,2,2-1,1-2-1v-1Zm533,0h2C933.26,1724,934.78,1723.91,933,1723Zm-428,1,3,3-1,3c-3.65-1.06-2.94-.81-5-3Zm2443,2,4,2c-.33,1-.67,2-1,3l-2,1-3-3Zm-2789,2,4,2-1,4-2,1-3-2v-1Zm238,0,4,1c-.33.67-.67,1.33-1,2l-2,1-2-1Zm1630,0h2c-1.39,1.92-.1.6-2,2Zm872,0c2,1.8.71,0,2,3h-2Zm-2596,1h2l-2,3Zm21,0,4,3-3,1-2-1Zm1492,0h3l3,3c-.33,1-.67,2-1,3-4.5-.87-3.44-.92-6-3C1815.33,1731,1815.67,1730,1816,1729Zm38,1c1.92,1.39.6.1,2,2Zm1004,1,4,2c-.33,1.33-.67,2.67-1,4h-4C2857.15,1732.43,2856.52,1734.42,2858,1731Zm-2673,2,4,2-2,3-2-1Zm191,0,2,2-1,1-2-1C375.33,1734.33,375.67,1733.67,376,1733Zm231,0h4l-2,4-2-1Zm135,0,4,2-2,4C741.24,1736.26,741.46,1737,742,1733Zm-731,2c3,1.93,1.62.2,3,4H13l-3-2Zm64,0,1,2Zm643,0h2l-2,4h-1Zm-680,1c2.21,2.06,1.88,1.38,3,5l-2,1H37l-1-1Zm596,1c4,.58,3,0,5,2l1,3-3,2-5-1Zm1573,1c4.74,1.47,5.35,1.14,6,7l-2,1-5-2C2206.33,1742,2206.67,1740,2207,1738Zm-1248,1h3v1l-3,1Zm1924,0h3v4h-5v-1Zm-2421,2c1.63,2.52,1,.17,0,3h-1Zm249,0h2c-1.39,1.92-.1.6-2,2Zm-544,1h3l2,2v2l-1,1c-4-.4-3.91-.33-6-2Zm267,0h3v1l-3,1Zm18,1h4c-.67,1.33-1.33,2.67-2,4h-2Zm-33,1h3c.67,1.33,1.33,2.67,2,4-1.57,1.6-.32-.13-1,2h-3l-2-1v-1Zm489,1c3,1.93,1.62.2,3,4h-4Zm46,0c3.14,2.06,2.07.48,3,5h-4C953.33,1748.33,953.67,1746.67,954,1745Zm-465,2,4,1-3,3h-1l-1-3Zm102,0,2,2-1,1Zm-250,2c2.42,1.91,1.62.64,3,4-3.06,2.11-2.93,2.22-6,0Zm128,1h2c-1.39,1.92-.1.6-2,2Zm1716,2h3v4l-1,1-3-3C2184.33,1753.33,2184.67,1752.67,2185,1752Zm-1479,1h2c-1.39,1.92-.1.6-2,2Zm1809,0,4,2v3l-2,1c-3.48-1.83-2.69-.84-4-5Zm-2319,1h2c-1.39,1.92-.1.6-2,2Zm376,0c2,1.8.71,0,2,3Zm-520,4h4v1l-4,2Zm27,0c3,1.93,1.62.2,3,4H78Zm10,0,1,3H89l-1-1Zm112,1c-.42.93.8.68-1,2Zm504,0c1.85,2.79.72.14,1,4l-2,1-1-3Zm-128,2c3,1.93,1.62.2,3,4l-1,1h-1C576.57,1763.14,576.41,1764.55,577,1761Zm45,2c3,1.93,1.62.2,3,4l-4-2Zm40,2,3,2-2,3C661.22,1767.39,661.4,1768.39,662,1765Zm235,1h3v1l-3,1Zm223,0,3,1c-.33,1.67-.67,3.33-1,5l-4-1C1118.72,1767.41,1118.7,1768.13,1120,1766ZM76,1767l4,3-2,3H75l-1-2Zm1085,0,2,2-1,1-2-1v-1Zm1703,0c.33.67.67,1.33,1,2C2864.67,1768.33,2864.33,1767.67,2864,1767ZM34,1768h2c-1.39,1.92-.1.6-2,2Zm135,1h2l-1,4h-1l-3-1v-1l1-1Zm489,5h2c-1.39,1.92-.1.6-2,2Zm1523,0,2,2-1,1-2-1v-1Zm-1039,3h3v3h-4C1141.33,1779,1141.67,1778,1142,1777Zm720,1h3l-2,2C1862.67,1779.33,1862.33,1778.67,1862,1778Zm640,0,4,1-3,3-2-2C2501.33,1779.33,2501.67,1778.67,2502,1778Zm-1785,2h4v3c-2,1.6-1.39,1.3-5,2C716.33,1783.33,716.67,1781.67,717,1780Zm-274,1c2.05,1.36,1.61,1.12,3,3l-2,2-3-2Zm2445,1h3v4h-4C2887.33,1784.67,2887.67,1783.33,2888,1782Zm-2737,1,2,2-1,1-2-1Zm67,0h2c-1.8,2,0,.71-3,2Zm414,0,2,2-1,1-2-1Zm1849,0h2c-1.39,1.92-.1.6-2,2Zm-2351,1,1,2Zm29,0h2c-1.39,1.92-.1.6-2,2Zm351,0h4v3l-2,1-2-1Zm-59,1c3,1.94,1,.33,2,3Zm68,0h2c-1.39,1.92-.1.6-2,2Zm-308,1,2,4-2,1-3-1,1-3Zm-73,1h3l2,2v2l-2,1h-2C138.67,1790.33,138.33,1788.67,138,1787Zm-48,2,1,2Zm2792,0,2,2-1,1-2-1v-1Zm-2724,2,3,1v4C156.47,1794.08,157.39,1795.35,158,1791Zm-121,7h2c-1.39,1.92-.1.6-2,2Zm21,0,4,2-1,2H60l-3-1Zm1801,0,3,2-2,2h-1c-.33-1-.67-2-1-3ZM98,1799h4v3l-3,3-2-1C97.33,1802.33,97.67,1800.67,98,1799Zm291,2h2l-2,3Zm318,4h3l-2,2Zm-298,4c.67,1.33,1.33,2.67,2,4l-4-1Zm1427,0,4,3v3l-2,1-3-1c-.33-.67-.67-1.33-1-2C1834.67,1811.67,1835.33,1810.33,1836,1809Zm-1706,2,4,1-2,3-2-1Zm539,1c2.21,2.06,1.88,1.38,3,5l-1,1h-4v-3Zm-549,2,3,4-2,1-2-2Zm2408,0h4v1c-.33,1-.67,2-1,3l-4-2C2527.33,1815.33,2527.67,1814.67,2528,1814Zm9,0c3,1.94,1,.33,2,3Zm-2425,3,1,3-2-1Zm582,0c-.17,3.46,1.87,1.76-2,4v-3Zm-619,2,4,2-1,3-4,1-1-1C73.72,1820.41,73.7,1821.13,75,1819Zm1069,0c.67,1.33,1.33,2.67,2,4h-4v-3Zm-687,4,3,2-4,2Zm1437,1,4,2-4,2Zm-758,2h2c-1.39,1.92-.1.6-2,2Zm-687,1,2,2h-3C448.33,1828.33,448.67,1827.67,449,1827Zm2285,1c5.63.73,4.67,0,6,5h-4l-2-1Zm-840,6h2c-1.39,1.92-.1.6-2,2Zm806,0c1.92,1.39.6.1,2,2Zm-2286,1c3.65,1.06,2.94.81,5,3l-3,3-4-3Zm-293,2c2,1.8.71,0,2,3Zm390,2,2,2-1,1Zm-343,1h2c-1.39,1.92-.1.6-2,2Zm-9,1h4v3l-2,1-2-1Zm334,7,3,2c-.33.67-.67,1.33-1,2h-4C491.67,1850.67,492.33,1849.33,493,1848Zm2182,3h2c-1.8,2,0,.71-3,2C2674.33,1852.33,2674.67,1851.67,2675,1851Zm-2214,3c.33.67.67,1.33,1,2C461.67,1855.33,461.33,1854.67,461,1854Zm2265,0,4,3v1h-4Zm-46,3c4.88,1.6,5.51,3.18,6,9h-5C2680.67,1863,2680.33,1860,2680,1857Zm-1977,1h3l-2,4-2-2Zm-5,7,2,2-2,1Zm1923,1h2c-1.39,1.92-.1.6-2,2Zm-2448,7c3,1.93,1.62.2,3,4h-4Zm314,0,5,3-2,3h-3l-1-1C486.33,1876.33,486.67,1874.67,487,1873Zm2137,0c3,1.93,1.62.2,3,4h-4C2623.33,1875.67,2623.67,1874.33,2624,1873Zm-2442,1h2c-1.39,1.92-.1.6-2,2Zm2556,0h3v1l-3,1Zm-72,8c1.93,1.52,1.77,1.79,3,4h-4C2665.33,1884.67,2665.67,1883.33,2666,1882ZM183,1903l1,2Zm2487,1h3l-2,2C2670.67,1905.33,2670.33,1904.67,2670,1904Zm-2539,7,2,2-1,1-2-1v-1Zm21,0,3,3v1h-5Zm14,21h3l2,2-1,3h-5C165.33,1935.33,165.67,1933.67,166,1932Z"/></g></g></svg>