<svg xmlns="http://www.w3.org/2000/svg" width="100%" height="100%" viewBox="0 0 1920 1420"><style><![CDATA[.G{stroke-width:9.566}.H{fill-rule:evenodd}.I{fill:#1d324e}.J{stroke:#f2f5f9}.K{fill:#f2f5f9}.L{font-family:DeathStar,Death Star}]]></style><defs><style>
@font-face{
    font-family:'Nasalization';
    src:url("../../fonts/nasalization/onlinewebfonts.eot");
    src:url("../../fonts/nasalization/onlinewebfonts.eot?#iefix") 
    format("embedded-opentype"), 
    url("../../fonts/nasalization/onlinewebfonts.woff2") format("woff2"), 
    url("../../fonts/nasalization/onlinewebfonts.woff") format("woff"), 
    url("../../fonts/nasalization/onlinewebfonts.ttf") format("truetype"), 
    url("../../fonts/nasalization/onlinewebfonts.svg#NasalizationRg-Regular") 
    format("svg")
}
@font-face {font-family: "Death Star";
  src: url("../../fonts/deathstar/onlinewebfonts.eot"); /* IE9*/
  src: url("../../fonts/deathstar/onlinewebfonts.eot?#iefix") format("embedded-opentype"), /* IE6-IE8 */
  url("../../fonts/deathstar/onlinewebfonts.woff2") format("woff2"), /* chrome、firefox */
  url("../../fonts/deathstar/onlinewebfonts.woff") format("woff"), /* chrome、firefox */
  url("../../fonts/deathstar/onlinewebfonts.ttf") format("truetype"), /* chrome、firefox、opera、Safari, Android, iOS 4.2+*/
  url("../../fonts/deathstar/onlinewebfonts.svg#DeathStar") format("svg"); /* iOS 4.1- */
}
</style><clipPath id="A"><path transform="translate(-51 2388)" d="M0 0h1920v1420H0z" fill="#fff"/></clipPath></defs><g clip-path="url(#A)" transform="translate(51 -2388)"><g class="J G"><path d="M449.346 2862.2l-1.053.54-25.725-20.18 1.053-.54z" fill="#39656d" opacity=".62" class="H"/><g fill="none"><path d="M1725.073 3492.112v-2.542l310.626.635v2.54z"/><ellipse cx="908.627" cy="3041.504" rx="442.722" ry="442.419"/></g><g class="H K"><path d="M198.06 2464.087l2.6.147-60.388 1020.96-2.593-.152zm1371.68 19.207l2.6-.148 60.385 1006.347-2.6.152zM1113.5 3490.836v-2.54l510.335-.633v2.54z"/></g></g><path d="M1615.628 2485.126q40.965 505.153 81.93 1010.4c-10.36.147-63.534 3.568-68.737-.635q-24.643-376.4-49.3-752.873-5.55-91.556-11.108-183.132c-1.93-11.58-7.176-66.134-3.47-73.76zm424.915 1064.453v211.747H-52.808v-4.45h-6.25v-184.408c5.393-.152 5.756-1.64 8.332-2.544q149.6-1.593 299.248-3.18l386.73-3.814q163.145-1.268 326.326-2.544z" class="H I"/><ellipse cx="423.309" cy="2791.187" rx="55.03" ry="50.451" fill="none" stroke="#71efe9" opacity=".5" class="G"/><g class="H"><path d="M-58.363 3494.014l2098.9 1.4v74.2q-347.82 8.262-695.7 16.52-76.7-13.03-153.44-26.05-38.18.638-76.375 1.27-36.8.638-73.6 1.27L922 3564.53q-79.84 1.267-159.692 2.54-410.64 6.368-821.365 12.713z" class="I"/><path d="M2040.55 3528.324v41.3q-347.82 8.262-695.7 16.518-76.718-13.03-153.448-26.05-38.18.638-76.375 1.27-36.8.638-73.6 1.27l-119.422 1.906q-79.84 1.267-159.692 2.54-410.643 6.357-821.37 12.702v-50.826q1049.7-.314 2099.606-.634z" fill="#091626"/><path d="M-59.057 3761.487v-113.1L24.7 3636.96l99.34-9.53 96.744-5.718q35.386-1.592 70.772-3.177l64.28-1.906q54.535-.638 109.08-1.27 57.13.638 114.274 1.27 23.043.638 46.1 1.27 31.8 1.267 63.63 2.54 52.582 3.174 105.185 6.353c45 6.93 89.95 5.286 132.454 12.7 73.427 12.82 144.963 17.94 205.823 41.3 15.343 5.9 56.65 19.434 50.644 43.2-3.662 14.5-23.134 22.315-36.36 27.954l-23.375 9.53z" fill="#cddcf0"/><g class="J K G"><path d="M135.08 3494.013v-2.54l631.1-.632v2.54zm-57.132-6.098l-.01 1.02-131.5-.254.01-1.017z"/></g><path d="M198.7 2485.126c3.046 21.786 1.08 53.346-2.6 76.874q-2.6 42.884-5.195 85.767-7.467 123.56-14.932 247.145-18.18 301.747-36.36 603.556-32.14-.314-64.28-.636 38.306-505.665 76.617-1011.435h2.6c3.082-2.87 36.626-1.4 44.15-1.27z" class="I"/><path d="M198.06 2482.506l2.6.15-61.685 1010.167-2.592-.152z" class="G J K"/></g><ellipse cx="907.253" cy="3043.444" rx="483.871" ry="479.287" fill="none" stroke="#1d324e" stroke-width="59.387"/><g class="H"><path d="M2039.858 2479.982l-2098.915-2.305c.927-22.194.048-48.087 0-73.3l695.7-16.517q76.708 13.024 153.438 26.048l269.396-4.446 981.067-15.24q-.345 42.883-.685 85.772z" fill="#091626"/><path d="M2039.858 2506.178l-2096.83-.635-2.086-74.97 695.7-16.518q76.708 13.024 153.438 26.048l269.396-4.446 981.067-15.24q-.345 42.883-.685 85.772z" fill="#fff"/><path d="M2040.744 2519.146l-2099.777-.986c-.818-22.406.048-49.764 0-74.975l695.688-16.517q76.706 13.024 153.435 26.048l269.4-4.446 981.045-15.24.22 86.128z" class="I"/><path d="M-59.05 3727.824v62.155l80.538 6.285 95.522 5.24 93.02 3.143 68.05 1.747 61.8 1.046q52.437.353 104.887.7 54.93-.35 109.88-.7 22.157-.35 44.327-.7 30.586-.7 61.184-1.4l101.137-3.487c43.266-3.8 86.494-2.9 127.362-6.985 70.6-7.047 139.387-9.86 197.9-22.7 14.757-3.234 54.476-10.676 48.702-23.735-3.52-7.97-22.245-12.268-34.963-15.365l-22.476-5.24z" fill="#cddcf0"/></g></g><text fill="#fff" font-size="25" font-family="NasalizationRg-Regular,Nasalization"><tspan y="505" x="618">CMTeens is an annual event held by Nurul Fikri </tspan><tspan y="535" x="618">Boarding School’s student organization, is it </tspan><tspan y="565" x="618">intended to prepare the next generation for the </tspan><tspan y="595" x="618">future of humanity in Southeast Asia especially in </tspan><tspan y="625" x="618">Indonesia.</tspan><tspan y="685" xml:space="preserve" x="618"> We hold CMTeens event aimed at building the </tspan><tspan y="715" x="618">spirit of young people especially students. The aim </tspan><tspan y="745" x="618">is to make this generation more loving the </tspan><tspan y="775" x="618">homeland and spread the spirit of unity, especially </tspan><tspan y="805" x="618">in terms of uniting differences between tribes, </tspan><tspan y="835" x="618">religion, develop creativity, and self-development. </tspan><tspan y="865" x="618">In addition, this event is also intended as a means </tspan><tspan y="895" xml:space="preserve" x="618">of adhesive of solidarity between Southeast Asian </tspan><tspan y="925" x="618">students and self actualization media.</tspan></text><text fill="#d2861e" font-size="51" letter-spacing="0.15em" class="L"><tspan x="683" y="425">WHAT IS CMTEENS?</tspan></text><text fill="#fff" letter-spacing="0.15em" font-size="49" class="L"><tspan x="694" y="422">WHAT IS CMTEENS?</tspan></text></svg>