<svg xmlns="http://www.w3.org/2000/svg" xmlns:xlink="http://www.w3.org/1999/xlink" width="375" height="438" viewBox="0 0 375 438">
  <defs>
    <clipPath id="clip-path">
      <rect id="Rectangle_10" data-name="Rectangle 10" width="375" height="438" transform="translate(0 297)" fill="#fff" stroke="#707070" stroke-width="1"/>
    </clipPath>
  </defs>
  <g id="what_is_cmt_mobile" transform="translate(0 -297)" clip-path="url(#clip-path)">
    <g id="what_is_cmt" data-name="what is cmt" transform="translate(-11.001 -98.742)">
      <g id="Window" transform="translate(-74.725 395.752)">
        <g id="window-2" data-name="window" transform="translate(0 0)">
          <path id="Path_11" data-name="Path 11" d="M139.278,112.966l-.318.166-7.763-6.223.318-.166Z" transform="translate(4.172 33.309)" fill="#39656d" stroke="#f2f5f9" stroke-width="1.874" fill-rule="evenodd" opacity="0.62"/>
          <path id="Path_12" data-name="Path 12" d="M480.178,301.2v-.784l93.73.2v.784Z" transform="translate(15.006 39.321)" fill="none" stroke="#f2f5f9" stroke-width="1.874" fill-rule="evenodd"/>
          <ellipse id="Ellipse_6" data-name="Ellipse 6" cx="133.589" cy="136.431" rx="133.589" ry="136.431" transform="translate(139.794 65.137)" fill="none" stroke="#f2f5f9" stroke-width="1.874"/>
          <path id="Path_13" data-name="Path 13" d="M75.8-6.293l.784.045L58.359,308.592l-.782-.047Z" transform="translate(1.887 29.799)" fill="#f2f5f9" stroke="#f2f5f9" stroke-width="1.874" fill-rule="evenodd"/>
          <path id="Path_14" data-name="Path 14" d="M443.125-.547l.784-.046,18.221,310.334-.784.047Z" transform="translate(13.856 29.976)" fill="#f2f5f9" stroke="#f2f5f9" stroke-width="1.874" fill-rule="evenodd"/>
          <path id="Path_15" data-name="Path 15" d="M312.2,300.829v-.784l153.992-.2v.784Z" transform="translate(9.791 39.303)" fill="#f2f5f9" stroke="#f2f5f9" stroke-width="1.874" fill-rule="evenodd"/>
          <path id="Color_Fill_4" data-name="Color Fill 4" d="M470.817,0q11.517,155.777,23.033,311.584c-2.912.045-17.862,1.1-19.325-.2Q467.6,195.315,460.666,79.22q-1.561-28.234-3.123-56.474C457,19.175,455.525,2.352,456.567,0ZM590.278,328.252v65.3H1.757v-1.373H0V335.31c1.516-.047,1.618-.506,2.342-.784l84.13-.98,53.875-.588,54.851-.588,91.743-.784Z" transform="translate(0.099 29.995)" fill="#1d324e" fill-rule="evenodd"/>
          <ellipse id="Ellipse_7" data-name="Ellipse 7" cx="16.605" cy="15.558" rx="16.605" ry="15.558" transform="translate(119.748 108.819)" fill="none" stroke="#71efe9" stroke-width="1.874" opacity="0.49"/>
          <path id="Color_Fill_6" data-name="Color Fill 6" d="M.2,301.75c196.479.065,393.563.366,590.081.432,0,6.941-.014,15.109,0,22.882l-195.588,5.094q-21.566-4.018-43.138-8.033l-21.472.392-20.691.392-33.574.588-44.9.784Q115.471,326.242,0,328.2Z" transform="translate(0.099 39.362)" fill="#1d324e" fill-rule="evenodd"/>
          <path id="Color_Fill_5" data-name="Color Fill 5" d="M590.278,312.011v12.735L394.69,329.84q-21.568-4.018-43.14-8.033l-21.472.392-20.691.392-33.574.588-44.9.784Q115.471,325.924,0,327.881V312.207Z" transform="translate(0.099 39.681)" fill="#091626" fill-rule="evenodd"/>
          <path id="Color_Fill_3" data-name="Color Fill 3" d="M0,383.105V348.232l25.273-3.527,29.975-2.939L84.441,340l21.355-.98,19.4-.588,32.914-.392,34.482.392,13.91.392,19.2.784,31.739,1.959c13.577,2.137,27.142,1.63,39.967,3.919,22.156,3.954,43.742,5.533,62.106,12.735,4.63,1.816,17.094,5.993,15.282,13.322-1.1,4.471-6.98,6.881-10.971,8.62l-7.053,2.939Z" transform="translate(0.099 40.489)" fill="#cddcf0" fill-rule="evenodd"/>
          <path id="Path_16" data-name="Path 16" d="M56.816,301.779V301l190.433-.195v.784Z" transform="translate(1.863 39.333)" fill="#f2f5f9" stroke="#f2f5f9" stroke-width="1.874" fill-rule="evenodd"/>
          <path id="Path_17" data-name="Path 17" d="M36.64,299.928l0,.314-39.679-.078,0-.314Z" transform="translate(4.8 39.303)" fill="#f2f5f9" stroke="#f2f5f9" stroke-width="1.874" fill-rule="evenodd"/>
          <path id="Color_Fill_2" data-name="Color Fill 2" d="M76.558,0c.919,6.718.326,16.451-.784,23.706q-.784,13.224-1.567,26.449-2.253,38.1-4.506,76.214Q64.216,219.425,58.73,312.5l-19.4-.2Q50.892,156.364,62.452.4h.784C64.167-.488,74.288-.035,76.558,0Z" transform="translate(1.32 29.99)" fill="#1d324e" fill-rule="evenodd"/>
          <path id="Path_18" data-name="Path 18" d="M75.808-.783l.784.047L57.979,310.774l-.782-.047Z" transform="translate(1.875 29.97)" fill="#f2f5f9" stroke="#f2f5f9" stroke-width="1.874" fill-rule="evenodd"/>
          <ellipse id="Ellipse_8" data-name="Ellipse 8" cx="146.006" cy="147.801" rx="146.006" ry="147.801" transform="translate(127.228 54.366)" fill="none" stroke="#1d324e" stroke-width="11.631"/>
          <path id="Color_Fill_6_copy" data-name="Color Fill 6 copy" d="M581.153,19.857-8.931,19.147c.261-6.844.013-14.829,0-22.6L186.657-8.551,229.794-.518,251.267-.91,271.958-1.3l33.572-.588,44.9-.784L581.346-6.593Q581.249,6.631,581.153,19.857Z" transform="translate(9.03 8.551)" fill="#091626" fill-rule="evenodd"/>
          <path id="Color_Fill_6_copy-2" data-name="Color Fill 6 copy" d="M581.153,19.857l-589.5-.2c-.231-6.91-.573-15.344-.586-23.119L186.657-8.551,229.794-.518,251.267-.91,271.958-1.3l33.572-.588,44.9-.784L581.346-6.593Q581.249,6.631,581.153,19.857Z" transform="translate(9.03 16.629)" fill="#fff" fill-rule="evenodd"/>
          <path id="Color_Fill_6_copy-3" data-name="Color Fill 6 copy" d="M581.444,19.967l-590.338-.3c-.23-6.91.013-15.346,0-23.121L186.693-8.551,229.83-.518,251.3-.91,271.995-1.3l33.572-.588,44.9-.784L581.382-6.593C581.318,2.224,581.506,11.15,581.444,19.967Z" transform="translate(8.994 20.519)" fill="#1d324e" fill-rule="evenodd"/>
          <path id="Color_Fill_3-2" data-name="Color Fill 3" d="M360.556,24.767V5.6l-24.3-1.938L307.431,2.046l-28.07-.969L258.827.539,240.177.215,208.528,0,175.372.215,162,.431,143.534.862,113.017,1.939c-13.055,1.175-26.1.9-38.431,2.154-21.3,2.173-42.059,3.041-59.719,7-4.453,1-16.438,3.293-14.7,7.32C1.234,20.87,6.884,22.2,10.722,23.15L17.5,24.766Z" transform="translate(360.656 437.98) rotate(180)" fill="#cddcf0" fill-rule="evenodd"/>
        </g>
      </g>
    </g>
  </g>
</svg>
