<svg xmlns="http://www.w3.org/2000/svg" width="1973.486" height="1463.879" viewBox="0 0 1973.486 1463.879">
  <g id="window" transform="translate(16.555 115)">
    <path id="Path_11" data-name="Path 11" d="M717.452,582.546l-1.062.556-25.945-20.8,1.062-.556Z" transform="translate(-254.548 -208.648)" fill="#39656d" stroke="#f2f5f9" stroke-width="9.86" fill-rule="evenodd" opacity="0.62"/>
    <path id="Path_12" data-name="Path 12" d="M2527,1583.619V1581l313.277.655v2.619Z" transform="translate(-888.481 -560.47)" fill="none" stroke="#f2f5f9" stroke-width="9.86" fill-rule="evenodd"/>
    <ellipse id="Ellipse_6" data-name="Ellipse 6" cx="446.5" cy="456" rx="446.5" ry="456" transform="translate(450.683 102.709)" fill="none" stroke="#f2f5f9" stroke-width="9.86"/>
    <path id="Path_13" data-name="Path 13" d="M363.9-33.116l2.619.152-60.9,1052.3-2.615-.157Z" transform="translate(-120.813 -3.317)" fill="#f2f5f9" stroke="#f2f5f9" stroke-width="9.86" fill-rule="evenodd"/>
    <path id="Path_14" data-name="Path 14" d="M2332-2.964l2.62-.153,60.9,1037.242-2.619.157Z" transform="translate(-821.172 -13.672)" fill="#f2f5f9" stroke="#f2f5f9" stroke-width="9.86" fill-rule="evenodd"/>
    <path id="Path_15" data-name="Path 15" d="M1643,1581.274v-2.619l514.692-.655v2.619Z" transform="translate(-583.346 -559.435)" fill="#f2f5f9" stroke="#f2f5f9" stroke-width="9.86" fill-rule="evenodd"/>
    <path id="Color_Fill_4" data-name="Color Fill 4" d="M1573.627,0q38.493,520.66,76.985,1041.423c-9.734.151-59.7,3.677-64.589-.655Q1562.869,652.809,1539.7,264.78q-5.216-94.367-10.438-188.754C1527.449,64.09,1522.523,7.86,1526,0Zm399.279,1097.131v218.246H5.872v-4.588H0V1120.725c5.068-.157,5.409-1.691,7.829-2.622q140.581-1.642,281.191-3.277l180.067-1.966,183.329-1.966q153.3-1.307,306.635-2.622Z" transform="translate(-16.223 -14.748)" fill="#1d324e" fill-rule="evenodd"/>
    <ellipse id="Ellipse_7" data-name="Ellipse 7" cx="55.5" cy="52" rx="55.5" ry="52" transform="translate(383.683 248.709)" fill="none" stroke="#71efe9" stroke-width="9.86" opacity="0.49"/>
    <path id="Color_Fill_6" data-name="Color Fill 6" d="M.652,1588c656.7.216,1315.423,1.224,1972.253,1.444-.015,23.2-.046,50.5,0,76.48q-326.831,8.516-653.721,17.026Q1247.1,1669.523,1175,1656.1q-35.876.658-71.766,1.31-34.575.658-69.156,1.309l-112.216,1.965q-75.021,1.306-150.056,2.619Q385.942,1669.86,0,1676.4Z" transform="translate(-16.223 -562.886)" fill="#1d324e" fill-rule="evenodd"/>
    <path id="Color_Fill_5" data-name="Color Fill 5" d="M1972.906,1642v42.564q-326.831,8.516-653.721,17.025Q1247.1,1688.162,1175,1674.741q-35.876.658-71.766,1.31-34.575.658-69.156,1.31l-112.216,1.965q-75.021,1.306-150.056,2.619Q385.942,1688.5,0,1695.041v-52.386Q986.355,1642.334,1972.906,1642Z" transform="translate(-16.223 -581.526)" fill="#091626" fill-rule="evenodd"/>
    <path id="Color_Fill_3" data-name="Color Fill 3" d="M0,1929.61V1813.051l84.472-11.787,100.188-9.822,97.569-5.893q35.688-1.641,71.376-3.274l64.828-1.965q55-.658,110.011-1.31,57.619.658,115.249,1.31,23.24.658,46.493,1.31,32.08,1.306,64.173,2.619,53.031,3.271,106.082,6.548c45.38,7.144,90.719,5.448,133.584,13.1,74.054,13.214,146.2,18.492,207.579,42.564,15.474,6.07,57.133,20.031,51.076,44.528-3.693,14.943-23.331,23-36.67,28.812l-23.574,9.822Z" transform="translate(-16.223 -628.815)" fill="#cddcf0" fill-rule="evenodd"/>
    <path id="Path_16" data-name="Path 16" d="M299,1586.274v-2.619L935.49,1583v2.619Z" transform="translate(-119.431 -561.16)" fill="#f2f5f9" stroke="#f2f5f9" stroke-width="9.86" fill-rule="evenodd"/>
    <path id="Path_17" data-name="Path 17" d="M116.622,1578.262l-.011,1.05-132.62-.262L-16,1578Z" transform="translate(5.329 -559.435)" fill="#f2f5f9" stroke="#f2f5f9" stroke-width="9.86" fill-rule="evenodd"/>
    <path id="Color_Fill_2" data-name="Color Fill 2" d="M331.417-.266c3.072,22.455,1.088,54.984-2.619,79.234q-2.619,44.2-5.239,88.4Q316.028,294.72,308.5,422.1q-18.335,311.01-36.67,622.084-32.414-.324-64.828-.655Q245.631,522.34,284.269,1.044h2.619C290-1.914,323.83-.4,331.417-.266Z" transform="translate(-87.675 -14.482)" fill="#1d324e" fill-rule="evenodd"/>
    <path id="Path_18" data-name="Path 18" d="M363.211-4.119l2.619.156L303.622,1037.208l-2.614-.157Z" transform="translate(-120.124 -13.326)" fill="#f2f5f9" stroke="#f2f5f9" stroke-width="9.86" fill-rule="evenodd"/>
    <ellipse id="Ellipse_8" data-name="Ellipse 8" cx="488" cy="494" rx="488" ry="494" transform="translate(408.683 66.709)" fill="none" stroke="#1d324e" stroke-width="61.21"/>
    <path id="Color_Fill_6_copy" data-name="Color Fill 6 copy" d="M1925.255,49.95-47,47.574c.871-22.875.045-49.563,0-75.549L606.721-45Q678.8-31.576,750.9-18.152l71.77-1.31,69.157-1.31,112.21-1.964,150.056-2.619,771.811-13.1Q1925.58,5.744,1925.255,49.95Z" transform="translate(30.777 -70)" fill="#091626" fill-rule="evenodd"/>
    <path id="Color_Fill_6_copy-2" data-name="Color Fill 6 copy" d="M1925.255,49.95l-1970.3-.655C-45.812,26.2-46.955-1.989-47-27.975L606.721-45Q678.8-31.576,750.9-18.152l71.77-1.31,69.157-1.31,112.21-1.964,150.056-2.619,771.811-13.1Q1925.58,5.744,1925.255,49.95Z" transform="translate(30.777 -43)" fill="#fff" fill-rule="evenodd"/>
    <path id="Color_Fill_6_copy-3" data-name="Color Fill 6 copy" d="M1926.108,50.317-47,49.3c-.769-23.094.045-51.292,0-77.277L606.721-45Q678.8-31.576,750.9-18.152l71.77-1.31,69.157-1.31,112.21-1.964,150.056-2.619,771.811-13.1C1925.689-8.988,1926.325,20.847,1926.108,50.317Z" transform="translate(30.777 -30)" fill="#1d324e" fill-rule="evenodd"/>
    <path id="Color_Fill_3-2" data-name="Color Fill 3" d="M1205.1,1861.778v-64.063l-81.225-6.478-96.337-5.4L933.72,1782.6q-34.316-.9-68.632-1.8l-62.336-1.08q-52.885-.362-105.782-.72-55.4.362-110.819.72-22.346.362-44.705.72-30.847.718-61.706,1.44l-102,3.6c-43.635,3.927-87.232,2.994-128.449,7.2-71.207,7.263-140.576,10.164-199.6,23.394C34.808,1819.407-5.25,1827.08.574,1840.544c3.551,8.213,22.435,12.644,35.261,15.836l22.668,5.4Z" transform="translate(1188.878 3127.879) rotate(180)" fill="#cddcf0" fill-rule="evenodd"/>
  </g>
</svg>
