<svg xmlns="http://www.w3.org/2000/svg" xmlns:xlink="http://www.w3.org/1999/xlink" width="1930" height="1420" viewBox="0 0 1930 1420">
  <defs>
    <clipPath id="clip-path">
      <rect id="Rectangle_11" data-name="Rectangle 11" width="1930" height="1420" transform="translate(-51 2388)" fill="#fff"/>
    </clipPath>
  </defs>
  <g id="Window" transform="translate(51 -2388)" clip-path="url(#clip-path)">
    <g id="Group_98" data-name="Group 98" transform="translate(-37.176 66.821)">
      <g id="window-2" data-name="window" transform="translate(-22.21 2321.039)">
        <path id="Path_11" data-name="Path 11" d="M696.659,565.2l-1.053.539-25.725-20.18,1.053-.539Z" transform="translate(-187.927 -90.859)" fill="#39656d" stroke="#f2f5f9" stroke-width="9.566" fill-rule="evenodd" opacity="0.62"/>
        <path id="Path_12" data-name="Path 12" d="M2451.736,1536.454v-2.542l310.626.635v2.541Z" transform="translate(-667.277 -432.202)" fill="none" stroke="#f2f5f9" stroke-width="9.566" fill-rule="evenodd"/>
        <ellipse id="Ellipse_6" data-name="Ellipse 6" cx="442.722" cy="442.419" rx="442.722" ry="442.419" transform="translate(525.291 211.225)" fill="none" stroke="#f2f5f9" stroke-width="9.566"/>
        <path id="Path_13" data-name="Path 13" d="M354.36-32.13l2.6.147L296.572,988.976l-2.593-.152Z" transform="translate(-96.915 108.357)" fill="#f2f5f9" stroke="#f2f5f9" stroke-width="9.566" fill-rule="evenodd"/>
        <path id="Path_14" data-name="Path 14" d="M2262.544-2.876l2.6-.148,60.385,1006.347-2.6.152Z" transform="translate(-633.417 98.31)" fill="#f2f5f9" stroke="#f2f5f9" stroke-width="9.566" fill-rule="evenodd"/>
        <path id="Path_15" data-name="Path 15" d="M1594.065,1534.174v-2.541L2104.4,1531v2.541Z" transform="translate(-421.178 -431.198)" fill="#f2f5f9" stroke="#f2f5f9" stroke-width="9.566" fill-rule="evenodd"/>
        <path id="Color_Fill_4" data-name="Color Fill 4" d="M1674.685,0q40.965,505.153,81.929,1010.4c-10.359.147-63.534,3.568-68.737-.635q-24.643-376.4-49.3-752.873-5.551-91.556-11.108-183.132C1625.539,62.181,1620.293,7.626,1624,0ZM2099.6,1064.453V1276.2H6.249v-4.451H0V1087.341c5.393-.152,5.756-1.641,8.332-2.544q149.609-1.593,299.248-3.179l191.631-1.907,195.1-1.907q163.145-1.268,326.326-2.544Z" transform="translate(0.329 97.266)" fill="#1d324e" fill-rule="evenodd"/>
        <ellipse id="Ellipse_7" data-name="Ellipse 7" cx="55.03" cy="50.451" rx="55.03" ry="50.451" transform="translate(427.665 352.876)" fill="none" stroke="#71efe9" stroke-width="9.566" opacity="0.49"/>
        <path id="Color_Fill_6" data-name="Color Fill 6" d="M.694,1540.7c698.872.209,1399.894,1.188,2098.9,1.4-.016,22.509-.049,49,0,74.2q-347.819,8.262-695.7,16.519-76.71-13.03-153.44-26.05-38.18.638-76.375,1.271-36.8.638-73.6,1.27l-119.422,1.906q-79.839,1.267-159.692,2.541Q410.726,1620.125,0,1626.47Z" transform="translate(0.329 -434.546)" fill="#1d324e" fill-rule="evenodd"/>
        <path id="Color_Fill_5" data-name="Color Fill 5" d="M2099.606,1593.095v41.3q-347.82,8.262-695.7,16.518-76.718-13.029-153.448-26.049-38.18.638-76.375,1.271-36.8.638-73.6,1.271l-119.422,1.906q-79.839,1.267-159.692,2.541Q410.726,1638.21,0,1644.555v-50.826Q1049.7,1593.415,2099.606,1593.095Z" transform="translate(0.329 -452.631)" fill="#091626" fill-rule="evenodd"/>
        <path id="Color_Fill_3" data-name="Color Fill 3" d="M0,1872.139V1759.05l83.757-11.436,99.34-9.529,96.744-5.718q35.386-1.592,70.772-3.177l64.279-1.906q54.535-.638,109.08-1.271,57.131.638,114.274,1.271,23.043.638,46.1,1.271,31.809,1.267,63.63,2.541,52.582,3.174,105.185,6.353c45,6.931,89.951,5.286,132.454,12.71,73.427,12.82,144.963,17.941,205.823,41.3,15.343,5.889,56.65,19.434,50.644,43.2-3.662,14.5-23.134,22.315-36.36,27.954l-23.375,9.529Z" transform="translate(0.329 -498.512)" fill="#cddcf0" fill-rule="evenodd"/>
        <path id="Path_16" data-name="Path 16" d="M290.095,1539.025v-2.541l631.1-.632v2.541Z" transform="translate(-95.63 -432.872)" fill="#f2f5f9" stroke="#f2f5f9" stroke-width="9.566" fill-rule="evenodd"/>
        <path id="Path_17" data-name="Path 17" d="M115.977,1531.253l-.011,1.019-131.5-.254.009-1.017Z" transform="translate(21.357 -431.198)" fill="#f2f5f9" stroke="#f2f5f9" stroke-width="9.566" fill-rule="evenodd"/>
        <path id="Color_Fill_2" data-name="Color Fill 2" d="M324.2-.258c3.046,21.786,1.079,53.346-2.6,76.874q-2.6,42.884-5.195,85.767-7.467,123.559-14.932,247.145-18.18,301.747-36.36,603.556-32.14-.314-64.28-.636Q239.139,506.783,277.45,1.013h2.6C283.132-1.857,316.676-.388,324.2-.258Z" transform="translate(-66.104 97.524)" fill="#1d324e" fill-rule="evenodd"/>
        <path id="Path_18" data-name="Path 18" d="M353.72-4l2.6.151L294.635,1006.318l-2.592-.152Z" transform="translate(-96.274 98.646)" fill="#f2f5f9" stroke="#f2f5f9" stroke-width="9.566" fill-rule="evenodd"/>
        <ellipse id="Ellipse_8" data-name="Ellipse 8" cx="483.871" cy="479.287" rx="483.871" ry="479.287" transform="translate(482.768 176.297)" fill="none" stroke="#1d324e" stroke-width="59.387"/>
        <path id="Color_Fill_6_copy" data-name="Color Fill 6 copy" d="M2053.315,48.462-45.6,46.157c.927-22.194.048-48.087,0-73.3L650.1-43.66q76.708,13.024,153.438,26.048l76.379-1.271,73.6-1.271,119.416-1.906L1232.625-24.6,2054-37.31Q2053.655,5.573,2053.315,48.462Z" transform="translate(45.929 43.66)" fill="#091626" fill-rule="evenodd"/>
        <path id="Color_Fill_6_copy-2" data-name="Color Fill 6 copy" d="M2053.315,48.462-43.514,47.827C-44.336,25.42-45.552-1.93-45.6-27.142L650.1-43.66q76.708,13.024,153.438,26.048l76.379-1.271,73.6-1.271,119.416-1.906L1232.625-24.6,2054-37.31Q2053.655,5.573,2053.315,48.462Z" transform="translate(45.929 69.856)" fill="#fff" fill-rule="evenodd"/>
        <path id="Color_Fill_6_copy-3" data-name="Color Fill 6 copy" d="M2054.208,48.818-45.569,47.832c-.818-22.406.048-49.764,0-74.975L650.119-43.66q76.706,13.024,153.435,26.048l76.377-1.271,73.6-1.271,119.414-1.906L1232.63-24.6l821.359-12.71C2053.761-8.72,2054.431,20.226,2054.208,48.818Z" transform="translate(45.922 82.468)" fill="#1d324e" fill-rule="evenodd"/>
        <path id="Color_Fill_3-2" data-name="Color Fill 3" d="M1194.9,80.315V18.16l-80.538-6.285-95.522-5.239L925.82,3.493,857.769,1.746,795.96.7Q743.523.347,691.073,0,636.142.351,581.192.7q-22.157.351-44.327.7-30.586.7-61.184,1.4L374.544,6.287c-43.266,3.81-86.494,2.9-127.362,6.985-70.6,7.047-139.387,9.861-197.911,22.7C34.514,39.206-5.205,46.648.569,59.707,4.09,67.676,22.814,71.975,35.532,75.072l22.476,5.239Z" transform="translate(1195.235 1420.279) rotate(180)" fill="#cddcf0" fill-rule="evenodd"/>
      </g>
    </g>
  </g>
</svg>
