<svg xmlns="http://www.w3.org/2000/svg">
<defs>
<font id="DeathStar" horiz-adv-x="50" >
  <font-face 
    font-family="Death Star"
    font-weight="400"
    font-stretch="normal"
    units-per-em="2048"
    panose-1="2 0 5 0 0 0 0 0 0 0"
    ascent="1638"
    descent="-410"
    x-height="1449"
    cap-height="1449"
    bbox="-90 -83 3436 1699"
    underline-thickness="150"
    underline-position="-142"
    unicode-range="U+001D-2265"
  />
<missing-glyph horiz-adv-x="2448" 
d="M467 417h-66v325h66v-96c7 7 15 13 24 17s19 6 28 6c53 0 80 -34 80 -102v-150h-66v145c0 27 -11 41 -33 41s-33 -14 -33 -41v-145zM733 480c6 0 13 2 22 5c7 3 13 8 18 13s9 12 12 19c3 6 4 14 4 24s-1 18 -4 23c-3 7 -7 14 -12 19c-4 6 -10 11 -18 14c-5 3 -13 4 -22 4
s-17 -1 -22 -4c-8 -3 -14 -8 -18 -14c-5 -5 -9 -12 -12 -19c-3 -9 -5 -16 -5 -23c0 -6 2 -14 5 -24c3 -7 7 -14 12 -19s11 -10 18 -13c9 -3 16 -5 22 -5zM797 636l60 35v-254h-65v33h-2c-11 -22 -33 -33 -66 -33h-4c-15 0 -28 3 -41 9s-25 15 -38 26c-11 11 -19 24 -25 39
c-6 13 -9 28 -9 43v9c0 14 3 28 8 43c7 17 16 31 25 41c11 12 23 21 38 28c13 7 28 10 46 10c31 0 55 -10 73 -29zM876 417v254h65v-41c5 13 10 22 13 27c5 7 10 13 15 16c7 3 15 6 22 7c15 1 24 2 28 2l-21 -76c-18 0 -31 -4 -38 -12c-7 -9 -11 -23 -11 -41v-136h-73z
M1026 417v325h72v-185h1l53 113h87l-63 -124l76 -129h-89l-64 110h-1v-110h-72zM1243 445l37 50c15 -15 32 -22 52 -22c21 0 32 6 32 19c0 7 -6 12 -18 15c-4 2 -10 4 -19 5c-7 1 -14 3 -21 6l-10 4l-10 4c-3 2 -6 4 -8 6c-3 2 -6 5 -9 8c-5 5 -8 12 -11 21
c-3 6 -4 16 -4 29c0 14 2 25 7 34c5 10 12 18 20 24c8 7 17 12 28 15c9 3 20 4 35 4c14 0 28 -3 42 -9c13 -6 25 -14 36 -24l-39 -41c-11 9 -24 14 -38 14c-16 0 -24 -5 -24 -14s6 -15 17 -18c3 -1 7 -2 13 -3l8 -2l9 -2c11 -3 22 -7 31 -12s17 -13 24 -23c5 -7 8 -17 8 -31
v-9c0 -15 -2 -26 -7 -35c-5 -10 -12 -18 -21 -25c-7 -7 -17 -12 -30 -16c-13 -3 -25 -5 -35 -5c-15 0 -24 0 -27 1c-9 1 -16 3 -23 6l-11 5l-11 5l-11 8zM1506 417h-67v325h67v-96c6 7 14 13 23 17s19 6 28 6c54 0 81 -34 81 -102v-150h-67v145c0 27 -11 41 -33 41

<glyph glyph-name="A_J" unicode="AJ" horiz-adv-x="2297" 
d="M680 521h274l-137 362zM1549 0h-398l-55 143h-559l-54 -143h-483l574 1449h486l400 -1046h66c12 1 25 3 38 6c41 7 79 20 114 38c111 58 167 157 167 298v704h402v-704c0 -128 -23 -243 -69 -344c-35 -77 -81 -144 -140 -200c-89 -85 -198 -143 -328 -176
c-33 -8 -87 -16 -161 -25z" />
    <glyph glyph-name="C_S" unicode="CS" horiz-adv-x="2388" 
d="M1994 0h-1269c-201 0 -372 71 -513 212s-212 312 -212 513c0 200 71 371 212 512s312 212 513 212h563v-402h-563c-91 0 -167 -31 -230 -94c-62 -63 -93 -139 -93 -228s32 -165 95 -228s139 -94 228 -94h1154l-467 487c-43 52 -64 118 -64 197c0 98 33 183 100 254
c67 72 148 108 243 108h627v-402h-512c3 -4 160 -167 469 -489c42 -62 63 -127 63 -196c0 -97 -34 -182 -101 -254c-68 -72 -149 -108 -243 -108z" />
    <glyph glyph-name="C_T" unicode="CT" horiz-adv-x="2225" 
d="M1400 1047h-675c-91 0 -167 -31 -230 -94c-62 -63 -93 -139 -93 -228s32 -165 95 -228s139 -94 228 -94h563v-403h-563c-201 0 -372 71 -513 212s-212 312 -212 513c0 200 71 371 212 512s312 212 513 212h1450v-402h-372v-1047h-403v1047z" />
    <glyph glyph-name="C_Z" unicode="CZ" horiz-adv-x="2591" 
d="M2012 1047h-1287c-91 0 -167 -31 -230 -94c-62 -63 -93 -139 -93 -228s32 -165 95 -228s139 -94 228 -94h563v-403h-563c-201 0 -372 71 -513 212s-212 312 -212 513c0 200 71 371 212 512s312 212 513 212h1816v-393l-623 -653h623v-403h-1151v393z" />
    <glyph glyph-name="E_J" unicode="EJ" horiz-adv-x="2034" 
d="M1266 0h-1266v1449h1050v-402h-647v-121h647v-403h-647v-120h860c12 1 25 3 38 6c41 7 79 20 114 38c111 58 167 157 167 298v704h402v-704c0 -128 -23 -243 -69 -344c-35 -77 -81 -144 -140 -200c-89 -85 -198 -143 -328 -176c-46 -11 -91 -18 -134 -22z" />
    <glyph glyph-name="E_S" unicode="ES" horiz-adv-x="2173" 
d="M1779 0h-1779v1449h1050v-402h-647v-121h647v-403h-647v-120h1261c-295 300 -451 462 -467 487c-43 63 -64 129 -64 197c0 98 33 183 100 254c67 72 148 108 243 108h627v-402h-512c2 -2 77 -78 224 -229c148 -150 230 -237 245 -260c42 -62 63 -127 63 -196
c0 -97 -34 -182 -101 -254c-68 -72 -149 -108 -243 -108z" />
    <glyph glyph-name="E_T" unicode="ET" horiz-adv-x="2117" 
d="M1292 1047h-889v-121h647v-403h-647v-120h647v-403h-1050v1449h2067v-402h-372v-1047h-403v1047z" />
    <glyph glyph-name="E_T_T" unicode="ETT" horiz-adv-x="2917" 
d="M2092 1047h-397v-1047h-403v1047h-889v-121h647v-403h-647v-120h647v-403h-1050v1449h2867v-402h-372v-1047h-403v1047z" />
    <glyph glyph-name="F_F" unicode="FF" horiz-adv-x="2198" 
d="M1098 0v1047h-695v-121h546v-403h-546v-523h-403v1449h2148v-402h-647v-121h546v-403h-546v-523h-403z" />
    <glyph glyph-name="F_H" unicode="FH" horiz-adv-x="2387" 
d="M1101 0v1047h-698v-121h546v-403h-546v-523h-403v1449h1504v-523h431v523h402v-1449h-402v523h-431v-523h-403z" />
    <glyph glyph-name="F_I" unicode="FI" horiz-adv-x="1554" 
d="M1101 0v1047h-698v-121h546v-403h-546v-523h-403v1449h1504v-1449h-403z" />
    <glyph glyph-name="F_L" unicode="FL" horiz-adv-x="2251" 
d="M1101 0v1047h-696v-121h546v-403h-546v-523h-405v1449h1506v-1046h695v-403h-1100z" />
    <glyph glyph-name="F_F_I" unicode="FFI" horiz-adv-x="2654" 
d="M1503 0h-405v1047h-695v-121h546v-403h-546v-523h-403v1449h2604v-1449h-403v1047h-698v-121h546v-403h-546v-523z" />
    <glyph glyph-name="F_F_L" unicode="FFL" horiz-adv-x="3349" 
d="M2199 0v1047h-696v-121h546v-403h-546v-523h-405v1047h-695v-121h546v-403h-546v-523h-403v1449h2604v-1046h695v-403h-1100z" />
    <glyph glyph-name="F_T" unicode="FT" horiz-adv-x="2117" 
d="M0 1449h2067v-402h-372v-1047h-403v1047h-889v-121h546v-403h-546v-523h-403v1449z" />
    <glyph glyph-name="H_T" unicode="HT" horiz-adv-x="2119" 
d="M833 1449h1236v-402h-372v-1047h-403v1047h-58v-1047h-403v523h-431v-523h-402v1449h402v-523h431v523z" />
    <glyph glyph-name="G_T" unicode="GT" horiz-adv-x="2225" 
d="M725 1449h1450v-402h-372v-1047h-403v1047h-675c-91 0 -167 -31 -230 -94c-62 -63 -93 -139 -93 -228c0 -90 32 -166 95 -228c63 -63 139 -94 228 -94h167v308h403v-711h-570c-201 0 -372 71 -513 212s-212 312 -212 513c0 200 71 371 212 512s312 212 513 212z" />
    <glyph glyph-name="G_Z" unicode="GZ" horiz-adv-x="2591" 
d="M725 1449h1816v-393l-623 -653h623v-403h-1151v393l622 654h-1287c-91 0 -167 -31 -230 -94c-62 -63 -93 -139 -93 -228c0 -90 32 -166 95 -228c63 -63 139 -94 228 -94h167v308h403v-711h-570c-201 0 -372 71 -513 212s-212 312 -212 513c0 200 71 371 212 512
s312 212 513 212z" />
    <glyph glyph-name="K_A" unicode="KA" horiz-adv-x="2707" 
d="M1723 521h274l-137 362zM1112 403h91l414 1046h486l554 -1449h-463l-55 143h-559l-54 -143h-483l1 2c-226 13 -406 89 -540 230c-15 16 -29 33 -42 50c-22 27 -42 56 -59 87v-369h-403v1449h403v-566l417 566h521l-617 -819c18 -49 43 -89 74 -122
c68 -70 173 -105 314 -105z" />
    <glyph glyph-name="L_A" unicode="LA" horiz-adv-x="2291" 
d="M1307 521h274l-137 362zM403 403h384l414 1046h486l554 -1449h-463l-55 143h-559l-54 -143h-1110v1449h403v-1046z" />
    <glyph glyph-name="L_S" unicode="LS" horiz-adv-x="1851" 
d="M1457 0h-1457v1449h403v-1046h939l-467 487c-43 52 -64 118 -64 197c0 98 33 183 100 254c67 72 148 108 243 108h627v-402h-512c3 -4 160 -167 469 -489c42 -62 63 -127 63 -196c0 -97 -34 -182 -101 -254c-68 -72 -149 -108 -243 -108z" />
    <glyph glyph-name="L_T" unicode="LT" horiz-adv-x="1904" 
d="M1482 0h-1482v1449h403v-1046h676v644h-372v402h1147v-402h-372v-1047z" />
    <glyph glyph-name="R_A" unicode="RA" horiz-adv-x="2707" 
d="M1723 521h274l-137 362zM1526 0h-884l-239 259v-259h-403v1449h684c148 -1 274 -55 378 -160s156 -231 156 -379c0 -108 -30 -207 -89 -297c-58 -87 -135 -157 -230 -210h304l414 1046h486l554 -1449h-463l-55 143h-559zM403 790h245c27 0 51 10 70 29s29 43 29 70
s-10 51 -29 70s-43 29 -70 29h-245v-198z" />
    <glyph glyph-name="R_I" unicode="RI" horiz-adv-x="1738" 
d="M403 790h245c27 0 51 10 70 29s29 43 29 70s-10 51 -29 70s-43 29 -70 29h-245v-198zM1673 0h-1031l-239 259v-259h-403v1449h684c148 -1 274 -55 378 -160s156 -231 156 -379c0 -108 -30 -207 -89 -297c-58 -87 -135 -157 -230 -210h371v1046h403v-1449z" />
    <glyph glyph-name="R_M" unicode="RM" horiz-adv-x="2903" 
d="M403 790h245c27 0 51 10 70 29s29 43 29 70s-10 51 -29 70s-43 29 -70 29h-245v-198zM1671 0h-1029l-239 259v-259h-403v1449h684c148 -1 274 -55 378 -160s156 -231 156 -379c0 -108 -30 -207 -89 -297c-58 -87 -135 -157 -230 -210h369v1046h453l339 -655l290 655h503
v-1449h-403v636l-390 -630l-389 630v-636z" />
    <glyph glyph-name="R_N" unicode="RN" horiz-adv-x="2660" 
d="M403 790h245c27 0 51 10 70 29s29 43 29 70s-10 51 -29 70s-43 29 -70 29h-245v-198zM1672 0h-1030l-239 259v-259h-403v1449h684c148 -1 274 -55 378 -160s156 -231 156 -379c0 -108 -30 -207 -89 -297c-58 -87 -135 -157 -230 -210h370v1046h401l537 -753v753h403
v-1449h-403l-535 754v-754z" />
    <glyph glyph-name="R_S" unicode="RS" horiz-adv-x="2318" 
d="M1924 0h-857h-425l-239 259v-259h-403v1449h684c148 -1 274 -55 378 -160s156 -231 156 -379c0 -108 -30 -207 -89 -297c-58 -87 -135 -157 -230 -210h168h742l-467 487c-43 52 -64 118 -64 197c0 98 33 183 100 254c67 72 148 108 243 108h627v-402h-512
c3 -4 160 -167 469 -489c42 -62 63 -127 63 -196c0 -97 -34 -182 -101 -254c-68 -72 -149 -108 -243 -108zM403 790h245c27 0 51 10 70 29s29 43 29 70s-10 51 -29 70s-43 29 -70 29h-245v-198z" />
    <glyph glyph-name="S_I" unicode="SI" horiz-adv-x="1644" 
d="M351 1449h1243v-1449h-403v1047h-725c3 -4 160 -167 469 -489c42 -62 63 -127 63 -196c0 -97 -34 -182 -101 -254c-68 -72 -149 -108 -243 -108h-654v403h539l-467 487c-43 52 -64 118 -64 197c0 98 33 183 100 254c67 72 148 108 243 108z" />
    <glyph glyph-name="S_L" unicode="SL" horiz-adv-x="2340" 
d="M1190 0v1047h-724c3 -4 160 -167 469 -489c42 -62 63 -127 63 -196c0 -97 -34 -182 -101 -254c-68 -72 -149 -108 -243 -108h-654v403h539l-467 487c-43 52 -64 118 -64 197c0 98 33 183 100 254c67 72 148 108 243 108h1243v-1046h696v-403h-1100z" />
    <glyph glyph-name="S_T" unicode="ST" horiz-adv-x="2016" 
d="M351 1449h1615v-402h-372v-1047h-403v1047h-725c3 -4 160 -167 469 -489c42 -62 63 -127 63 -196c0 -97 -34 -182 -101 -254c-68 -72 -149 -108 -243 -108h-654v403h539l-467 487c-43 52 -64 118 -64 197c0 98 33 183 100 254c67 72 148 108 243 108z" />
    <glyph glyph-name="S_L_A" unicode="SLA" horiz-adv-x="3486" 
d="M2502 521h274l-137 362zM2305 0h-1115v1047h-724c3 -4 160 -167 469 -489c42 -62 63 -127 63 -196c0 -97 -34 -182 -101 -254c-68 -72 -149 -108 -243 -108h-654v403h539l-467 487c-43 52 -64 118 -64 197c0 98 33 183 100 254c67 72 148 108 243 108h1247v-1046h384
l414 1046h486l554 -1449h-463l-55 143h-559z" />
    <glyph glyph-name="T_T" unicode="TT" horiz-adv-x="1997" 
d="M0 1449h1947v-402h-372v-1047h-403v1047h-397v-1047h-403v1047h-372v402z" />
    <glyph glyph-name="T_H" unicode="TH" horiz-adv-x="2165" 
d="M0 1449h1282v-523h431v523h402v-1449h-402v523h-431v-523h-403v1047h-104v-1047h-403v1047h-372v402z" />
    <glyph glyph-name="T_I" unicode="TI" horiz-adv-x="1645" 
d="M0 1449h1595v-1449h-403v1047h-417v-1047h-403v1047h-372v402z" />
    <glyph glyph-name="T_Z" unicode="TZ" horiz-adv-x="2208" 
d="M1629 1047h-854v-1047h-403v1047h-372v402h2158v-393l-623 -653h623v-403h-1151v393z" />
    <glyph glyph-name=".notdef" horiz-adv-x="2448" 
d="M467 417h-66v325h66v-96c7 7 15 13 24 17s19 6 28 6c53 0 80 -34 80 -102v-150h-66v145c0 27 -11 41 -33 41s-33 -14 -33 -41v-145zM733 480c6 0 13 2 22 5c7 3 13 8 18 13s9 12 12 19c3 6 4 14 4 24s-1 18 -4 23c-3 7 -7 14 -12 19c-4 6 -10 11 -18 14c-5 3 -13 4 -22 4
s-17 -1 -22 -4c-8 -3 -14 -8 -18 -14c-5 -5 -9 -12 -12 -19c-3 -9 -5 -16 -5 -23c0 -6 2 -14 5 -24c3 -7 7 -14 12 -19s11 -10 18 -13c9 -3 16 -5 22 -5zM797 636l60 35v-254h-65v33h-2c-11 -22 -33 -33 -66 -33h-4c-15 0 -28 3 -41 9s-25 15 -38 26c-11 11 -19 24 -25 39
c-6 13 -9 28 -9 43v9c0 14 3 28 8 43c7 17 16 31 25 41c11 12 23 21 38 28c13 7 28 10 46 10c31 0 55 -10 73 -29zM876 417v254h65v-41c5 13 10 22 13 27c5 7 10 13 15 16c7 3 15 6 22 7c15 1 24 2 28 2l-21 -76c-18 0 -31 -4 -38 -12c-7 -9 -11 -23 -11 -41v-136h-73z
M1026 417v325h72v-185h1l53 113h87l-63 -124l76 -129h-89l-64 110h-1v-110h-72zM1243 445l37 50c15 -15 32 -22 52 -22c21 0 32 6 32 19c0 7 -6 12 -18 15c-4 2 -10 4 -19 5c-7 1 -14 3 -21 6l-10 4l-10 4c-3 2 -6 4 -8 6c-3 2 -6 5 -9 8c-5 5 -8 12 -11 21
c-3 6 -4 16 -4 29c0 14 2 25 7 34c5 10 12 18 20 24c8 7 17 12 28 15c9 3 20 4 35 4c14 0 28 -3 42 -9c13 -6 25 -14 36 -24l-39 -41c-11 9 -24 14 -38 14c-16 0 -24 -5 -24 -14s6 -15 17 -18c3 -1 7 -2 13 -3l8 -2l9 -2c11 -3 22 -7 31 -12s17 -13 24 -23c5 -7 8 -17 8 -31
v-9c0 -15 -2 -26 -7 -35c-5 -10 -12 -18 -21 -25c-7 -7 -17 -12 -30 -16c-13 -3 -25 -5 -35 -5c-15 0 -24 0 -27 1c-9 1 -16 3 -23 6l-11 5l-11 5l-11 8zM1506 417h-67v325h67v-96c6 7 14 13 23 17s19 6 28 6c54 0 81 -34 81 -102v-150h-67v145c0 27 -11 41 -33 41
c-21 0 -32 -14 -32 -41v-145zM1818 500c12 11 18 25 18 42c0 6 -2 13 -5 22s-8 15 -13 19c-4 5 -10 10 -19 13s-16 5 -23 5c-6 0 -13 -2 -22 -5c-7 -3 -13 -7 -19 -13c-5 -5 -10 -12 -13 -19c-3 -9 -5 -16 -5 -22c0 -17 6 -31 18 -42c13 -12 27 -18 41 -18c15 0 29 6 42 18z
M1656 493c-7 17 -10 33 -10 46v3c0 17 4 33 11 50c8 17 17 30 28 40c14 11 28 20 42 26c15 6 32 9 49 9s34 -3 50 -9c13 -5 27 -14 42 -26c12 -11 22 -25 29 -40c7 -13 10 -30 10 -50s-3 -37 -10 -50c-7 -15 -17 -29 -29 -40c-13 -12 -27 -21 -42 -27
c-14 -7 -31 -10 -50 -10c-18 0 -34 3 -48 10c-16 7 -30 16 -43 27c-12 11 -22 25 -29 41zM2082 660v-74c-15 11 -31 17 -47 17c-17 0 -31 -6 -42 -17s-17 -25 -17 -42c0 -7 2 -16 5 -26c4 -9 8 -16 12 -22s10 -11 18 -14c9 -3 17 -5 25 -5c19 0 34 6 47 18v-72
c-9 -5 -17 -8 -25 -9c-15 -1 -22 -2 -23 -2h-9c-16 0 -31 3 -44 9c-16 7 -30 16 -42 28c-11 11 -20 25 -27 40c-6 13 -9 27 -9 42v4c0 19 3 37 9 54c7 16 16 30 28 42s26 21 42 27s33 9 52 9c4 1 8 1 12 1c13 0 25 -3 35 -8zM2102 417v325h72v-185h1l52 113h88l-64 -124
l76 -129h-88l-64 110h-1v-110h-72zM2384 759c-6 6 -13 9 -22 9s-16 -3 -22 -9s-9 -13 -9 -22s3 -16 9 -22s13 -9 22 -9s16 3 22 9s9 13 9 22s-3 16 -9 22zM2387 711c-7 -7 -16 -11 -25 -11c-10 0 -19 4 -26 11s-10 15 -10 26c0 10 3 18 10 25s16 11 26 11c9 0 18 -4 25 -11
s11 -16 11 -25c0 -10 -4 -19 -11 -26zM2351 753v-13h17l3 3c1 1 1 2 1 3c0 2 -1 4 -2 5s-3 2 -6 2h-13zM2351 717h-6v40h18c5 0 7 0 8 -1c2 -1 4 -2 5 -3c1 -4 2 -6 2 -7c0 -3 -1 -5 -3 -7s-5 -3 -9 -3c1 -1 3 -2 4 -2l2 -3l2 -3l7 -11h-7l-5 9l-2 3l-2 2l-3 3
c-1 1 -1 1 -2 1h-9v-18zM1266 1430l-1 15v14l-6 -21c4 -4 6 -7 7 -8zM1467 1190v-2c0 -21 -10 -51 -31 -90c-3 -17 -10 -30 -21 -41c-11 -27 -30 -56 -59 -89l-3 -4l-2 -3c-3 -3 -6 -6 -8 -7l-6 -7l-5 -5l-8 -8l-3 -3l-2 -2l-1 -1c-3 -3 -8 -13 -17 -28l-13 -31l-16 -26
l-11 -12l-5 -10l-1 -1l-1 -2l-3 -3c-1 -1 -1 -1 -2 -1h-1l-1 1c-1 -1 -2 -2 -3 -2h-1c-1 1 -1 1 -1 2c-1 -1 -2 -1 -3 -1h-1c-1 1 -2 3 -2 5v3l3 11l9 21c5 9 7 15 7 18v1c-1 5 -2 8 -2 9c0 11 9 17 27 20l1 2v4c0 11 2 22 7 31c1 5 4 12 9 22c9 19 18 30 28 34
c1 7 3 13 6 18c0 1 0 1 1 2s2 3 3 5c3 4 6 8 9 13c6 7 10 13 12 20c1 1 1 3 1 7v6l1 6c0 7 1 13 3 18v1c0 8 7 18 20 29l3 4l3 4c-5 1 -9 9 -12 22c-1 4 -2 10 -3 18c-1 7 -2 13 -3 16c-7 1 -12 6 -17 13v-4c0 -13 -3 -20 -10 -20s-16 6 -25 18c0 -9 -3 -17 -8 -22
c-4 -5 -9 -7 -15 -7c-15 1 -22 11 -22 31c-11 -14 -19 -21 -24 -21c-1 0 -3 1 -4 2c-2 3 -4 16 -6 40c-11 -14 -19 -21 -26 -21c-2 0 -4 1 -5 2c-4 3 -6 10 -6 20c0 1 0 3 1 6v5l1 6c-5 -5 -10 -7 -17 -7c-5 0 -11 2 -16 6c-3 5 -5 9 -5 12v2c1 5 6 10 14 14
c-20 0 -33 3 -38 8c4 4 9 6 16 7c9 1 14 2 17 4c3 1 5 3 8 6l-8 -2c-2 0 -4 1 -5 2c-3 2 -5 6 -5 13v3c-9 -13 -15 -19 -19 -19c-1 0 -2 1 -2 3l2 14l1 6l1 6l2 8c-7 -7 -14 -14 -19 -20c-4 -5 -6 -7 -6 -8l-1 2v2c0 7 2 16 6 27c-13 -13 -22 -19 -28 -19c-3 0 -5 3 -5 9
c0 1 0 3 1 6v5l1 6c-9 -17 -17 -28 -25 -31v5c0 5 2 12 6 20c3 5 6 11 8 16l1 3l1 3l1 2v1l-3 -3l-3 -4c-3 -3 -7 -7 -10 -11c-6 -8 -11 -13 -16 -15v-1c1 0 2 4 3 11l1 6l1 8c1 6 1 12 2 17c-6 -6 -12 -9 -18 -9h-2c-6 1 -9 5 -10 13c0 5 3 12 8 19c6 7 9 13 9 18
c-13 -7 -22 -12 -25 -13c-1 -1 -4 -1 -9 -1s-8 2 -10 6c-1 1 -1 3 -1 7c0 5 3 11 9 18c7 8 14 13 22 14l-7 -1h-6c-3 -1 -6 -1 -7 -1c-11 0 -18 4 -19 11v2c0 6 4 11 12 15l2 1l2 1l7 3l5 2l4 2c-16 7 -24 13 -24 17c0 1 0 1 1 2s13 5 35 12l-1 1l-1 2c-2 1 -4 3 -6 4l-3 3
l-3 3l-3 2c-4 5 -6 10 -6 13s0 5 1 6s2 1 5 1s9 -2 18 -5s15 -5 18 -5h3c-1 3 -6 10 -15 22c-3 5 -4 8 -4 11c0 4 2 6 7 6h1c7 0 13 -4 20 -13c9 -11 15 -17 18 -18c-12 55 -20 82 -23 82l-1 -1c16 -9 32 -33 49 -73c-7 21 -11 43 -12 68l-1 6v5c0 15 3 23 8 23h2l3 -1h-1
v-1c0 -5 7 -24 21 -58l1 -3l1 -3c1 -2 2 -4 3 -7c2 -7 5 -14 8 -22c7 -12 11 -24 13 -36c-11 43 -16 82 -16 115c0 35 7 56 21 65c7 -5 10 -15 10 -31v-8c0 -5 0 -9 -1 -11l-1 -5v-11c1 -9 3 -23 6 -41l3 -13l2 -12l1 -9l1 -6c0 73 10 125 30 157c6 -3 9 -12 9 -29
c0 -9 -1 -21 -3 -35c-6 -45 -9 -69 -9 -74v-1c0 1 0 3 1 4l2 6l2 10l3 11l3 14l4 15c3 9 5 17 7 22c13 41 25 61 37 61c1 0 2 0 3 -1c-1 -16 -7 -38 -20 -66s-20 -51 -22 -68c9 27 21 51 38 74c21 29 44 46 68 51c-1 -14 -21 -38 -60 -72c-23 -37 -35 -74 -35 -111v-13l1 -7
c1 -10 4 -19 8 -27c9 48 36 98 80 150c21 25 42 47 64 65h11c-27 -15 -53 -43 -78 -85c36 26 78 39 125 40l-3 -11c-81 -2 -130 -32 -147 -90c-5 -13 -7 -30 -7 -49c0 -25 5 -55 15 -88l4 -2l2 -2c9 -9 19 -28 31 -58c0 5 3 10 8 15c5 4 11 6 16 6h2v-1l17 14
c-7 -6 -12 -11 -14 -14h3l2 -1h1c5 3 7 6 7 9v-1l-2 -6l6 4l-8 -6l1 -1l8 4l-7 -5h1c3 1 6 4 9 7c-1 -3 -3 -5 -7 -8l17 2c1 -1 2 -2 2 -3v-1l-2 -2h6c1 0 1 0 1 -1s0 -2 -1 -3c2 0 3 -1 3 -3v-3c5 0 7 -1 8 -4v-2c0 -1 -1 -3 -3 -5c-4 -4 -6 -7 -6 -10v-1l2 -4l2 -4l2 -5
l2 -4c5 -5 7 -8 8 -9l1 1v-1c1 1 2 1 3 1c6 0 11 -3 16 -10c7 -7 11 -16 13 -28c1 -2 1 -6 1 -12c0 -9 -2 -17 -6 -23l1 -7v-6c1 -4 1 -7 1 -8zM390 507l-321 -201l52 105l-121 100l366 230v-89l-86 -54zM222 562l-17 -11l-5 -3l71 -59l11 23zM202 461l-61 50l-22 -14
l71 -59z" />
    <glyph glyph-name="uni0000" horiz-adv-x="0" 
 />
    <glyph glyph-name="uni0000" horiz-adv-x="0" 
 />
    <glyph glyph-name="CR" horiz-adv-x="508" 
 />
    <glyph glyph-name="space" unicode=" " horiz-adv-x="366" 
 />
    <glyph glyph-name="space" unicode="&#xa0;" horiz-adv-x="366" 
 />
    <glyph glyph-name="exclam" unicode="!" horiz-adv-x="453" 
d="M0 439v1010h403v-1010h-403zM0 0v361h403v-361h-403z" />
    <glyph glyph-name="quotedbl" unicode="&#x22;" horiz-adv-x="911" 
d="M458 920v530h403v-530h-403zM0 920v530h403v-530h-403z" />
    <glyph glyph-name="numbersign" unicode="#" horiz-adv-x="795" 
d="M0 1052h82l13 76h-50v199h86l22 122h232l-22 -122h82l22 122h232l-22 -122h68v-199h-104l-14 -76h73v-199h-109l-22 -128h-232l23 128h-83l-22 -128h-232l23 128h-46v199zM409 1128h-82l-14 -76h83z" />
    <glyph glyph-name="dollar" unicode="$" horiz-adv-x="549" 
d="M176 1384h1v64h146v-64h166v-201h-256l25 -25c132 -135 202 -208 210 -220c21 -31 31 -63 31 -98c0 -49 -17 -91 -50 -127c-34 -36 -75 -54 -122 -54h-4v-69h-146v69h-177v202h270l-234 243c-21 32 -32 65 -32 99c0 49 17 91 50 127c34 36 75 54 122 54z" />
    <glyph glyph-name="percent" unicode="%" horiz-adv-x="901" 
d="M92 725l435 724h231l-435 -724h-231zM702 890h-34c-1 0 -2 0 -3 1c-1 0 -1 1 -2 2v4v32v3c1 1 1 2 2 3s2 1 3 1h34c1 0 2 0 3 -1s1 -2 2 -3v-3v-32v-4l-2 -2c-1 -1 -2 -1 -3 -1zM731 1100h-92c-41 0 -71 -13 -92 -38c-19 -22 -28 -52 -28 -90v-119c0 -38 9 -68 28 -90
c21 -25 51 -38 92 -38h92c41 0 71 13 92 38c19 22 28 52 28 90v119c0 37 -9 67 -28 90c-21 25 -51 38 -92 38zM183 1239h-34c-1 0 -2 0 -3 1c-1 0 -1 1 -2 2v4v32v3c1 1 1 2 2 3s2 1 3 1h34c1 0 2 0 3 -1s1 -2 2 -3v-3v-32v-4l-2 -2c-1 -1 -2 -1 -3 -1zM212 1449h-92
c-41 0 -71 -13 -92 -38c-19 -22 -28 -52 -28 -90v-119c0 -38 9 -68 28 -90c21 -25 51 -38 92 -38h92c41 0 71 13 92 38c19 22 28 52 28 90v119c0 37 -9 67 -28 90c-21 25 -51 38 -92 38z" />
    <glyph glyph-name="ampersand" unicode="&#x26;" horiz-adv-x="1275" 
d="M446 401h387v136h-387c-17 -1 -30 -9 -40 -24c-9 -13 -14 -27 -14 -44c0 -19 5 -35 16 -48c10 -13 23 -20 38 -20zM833 1047h392v-1047h-682c-170 0 -296 28 -379 83c-109 73 -164 201 -164 386c0 88 18 170 55 245c-37 69 -55 157 -55 265c0 128 36 238 108 331
s158 139 258 139h329v-402h-249c-15 -1 -28 -8 -38 -21c-11 -13 -16 -28 -16 -47c0 -15 4 -29 11 -42c11 -17 25 -26 43 -27h387v137z" />
    <glyph glyph-name="quotesingle" unicode="'" horiz-adv-x="453" 
d="M0 918v530h403v-530h-403z" />
    <glyph glyph-name="parenleft" unicode="(" horiz-adv-x="550" 
d="M500 403v-403h-59c-149 0 -262 46 -339 139c-68 82 -102 193 -102 332v508c0 139 34 249 102 331c77 93 190 139 339 139h59v-402h-54c-13 0 -24 -4 -33 -11c-7 -6 -12 -14 -16 -23c-4 -11 -6 -23 -5 -34v-508c-1 -11 1 -23 5 -34c4 -10 9 -18 16 -24c9 -7 20 -10 33 -10
h54z" />
    <glyph glyph-name="parenright" unicode=")" horiz-adv-x="550" 
d="M0 0v403h54c13 0 24 3 33 10c7 6 12 14 16 24c4 11 6 23 5 34v508c1 11 -1 23 -5 34c-4 9 -9 17 -16 23c-9 7 -20 11 -33 11h-54v402h59c149 0 262 -46 339 -139c68 -82 102 -192 102 -331v-508c0 -139 -34 -250 -102 -332c-77 -93 -190 -139 -339 -139h-59z" />
    <glyph glyph-name="asterisk" unicode="*" horiz-adv-x="621" 
d="M401 950l-42 41v-110h-144v111l-45 -45l-102 102l43 43h-111v145h113l-43 43l103 102l42 -42v108h144v-107l42 41l102 -102l-43 -43h111v-145h-109l41 -40z" />
    <glyph glyph-name="plus" unicode="+" horiz-adv-x="951" 
d="M249 274v249h-249v403h249v249h403v-249h249v-403h-249v-249h-403z" />
    <glyph glyph-name="comma" unicode="," horiz-adv-x="613" 
d="M0 0l140 361h423l-140 -361h-423z" />
    <glyph glyph-name="hyphen" unicode="-" horiz-adv-x="611" 
d="M0 523v403h561v-403h-561z" />
    <glyph glyph-name="hyphen" unicode="&#xad;" horiz-adv-x="611" 
d="M0 523v403h561v-403h-561z" />
    <glyph glyph-name="period" unicode="." horiz-adv-x="453" 
d="M0 0v361h403v-361h-403z" />
    <glyph glyph-name="slash" unicode="/" horiz-adv-x="773" 
d="M0 0l260 1449h463l-260 -1449h-463z" />
    <glyph glyph-name="zero" unicode="0" horiz-adv-x="1267" 
d="M446 403h326c13 0 24 3 32 10c7 6 13 14 16 24c4 11 6 23 5 34v508c1 11 -1 23 -5 34c-3 9 -9 17 -16 23c-8 7 -19 11 -32 11h-326c-13 0 -24 -4 -33 -11c-7 -6 -12 -14 -16 -23c-4 -11 -6 -23 -5 -34v-508c-1 -11 1 -23 5 -34c4 -10 9 -18 16 -24c9 -7 20 -10 33 -10z
M441 1449h335c149 0 262 -46 339 -139c68 -82 102 -192 102 -331v-508c0 -139 -34 -250 -102 -332c-77 -93 -190 -139 -339 -139h-335c-149 0 -262 46 -339 139c-68 82 -102 193 -102 332v508c0 139 34 249 102 331c77 93 190 139 339 139z" />
    <glyph glyph-name="one" unicode="1" horiz-adv-x="453" 
d="M0 0v1449h403v-1449h-403z" />
    <glyph glyph-name="two" unicode="2" horiz-adv-x="1048" 
d="M655 599l-132 -132l-64 -64h539v-403h-996c-1 112 -2 233 -2 362c0 69 21 134 63 196c16 24 37 50 64 79l36 38l37 38c36 37 99 101 190 192c15 15 32 32 50 49l43 43l50 50h-512v402h626c95 0 176 -36 243 -108c67 -71 101 -156 101 -254c0 -68 -22 -134 -65 -197
c-17 -25 -38 -52 -65 -81l-37 -39l-37 -38z" />
    <glyph glyph-name="three" unicode="3" horiz-adv-x="1057" 
d="M0 1449h464c169 0 295 -27 378 -82c110 -73 165 -202 165 -386c0 -89 -18 -171 -55 -246c37 -69 55 -157 55 -264c0 -129 -36 -239 -109 -332c-72 -93 -158 -139 -258 -139h-640v403h561c15 0 27 7 38 20c10 13 15 29 15 48c0 15 -4 29 -11 41c-11 18 -25 27 -42 27h-561
v374h561c16 0 29 8 40 23c9 13 13 28 13 45c0 19 -5 35 -15 48c-11 13 -23 20 -38 20h-561v400z" />
    <glyph glyph-name="four" unicode="4" horiz-adv-x="1092" 
d="M639 916v533h403v-1449h-403v513h-639v936h403v-533h236z" />
    <glyph glyph-name="five" unicode="5" horiz-adv-x="1056" 
d="M403 913h147c76 2 152 -15 228 -51c67 -31 119 -75 157 -131c47 -69 71 -156 71 -260c0 -139 -34 -250 -102 -332c-77 -93 -190 -139 -339 -139h-565v403h561c15 0 27 7 37 20c11 13 16 29 16 48c0 15 -4 29 -11 41c-11 18 -25 27 -42 27h-561v910h962v-402h-559v-134z
" />
    <glyph glyph-name="six" unicode="6" horiz-adv-x="1241" 
d="M446 403h299c15 0 27 7 38 20s16 29 16 48c0 15 -4 29 -11 41c-8 13 -19 22 -32 25h-14h-286h-64v-66c-1 -11 1 -23 5 -34c8 -23 24 -34 49 -34zM742 913c5 0 9 0 14 -1c10 -1 20 -1 31 -2c13 -1 27 -3 40 -6c35 -6 68 -15 99 -27c87 -32 153 -83 198 -152
s67 -153 67 -254c0 -139 -34 -250 -102 -332c-77 -93 -190 -139 -339 -139h-309c-149 0 -262 46 -339 139c-68 82 -102 193 -102 332v18v490c0 139 34 249 102 331c77 93 190 139 339 139h643v-402h-638c-13 0 -24 -4 -33 -11c-7 -6 -12 -14 -16 -23c-4 -11 -6 -23 -5 -34
v-66h343h2h5z" />
    <glyph glyph-name="seven" unicode="7" horiz-adv-x="1056" 
d="M0 1047v402h1006l-442 -1449h-423l308 1047h-449z" />
    <glyph glyph-name="eight" unicode="8" horiz-adv-x="1241" 
d="M446 403h299c15 0 27 7 38 20s16 29 16 48c0 15 -4 29 -11 41c-9 13 -19 22 -32 25h-15h-292h-14c-13 -3 -24 -12 -32 -25c-7 -12 -11 -26 -11 -41c0 -19 5 -35 16 -48c10 -13 23 -20 38 -20zM446 1047c-15 -1 -28 -8 -38 -21c-11 -13 -16 -28 -16 -47
c0 -15 4 -29 11 -42c8 -13 19 -22 32 -25c5 1 10 1 14 1h5h2h279h2h4c5 0 10 0 15 -1c13 3 23 12 32 25c7 13 11 27 11 42c0 19 -5 34 -16 47s-23 20 -38 21h-299zM441 1449h309c149 0 262 -46 339 -139c68 -82 102 -192 102 -331c0 -101 -22 -185 -67 -254
c45 -69 67 -153 67 -254c0 -139 -34 -250 -102 -332c-77 -93 -190 -139 -339 -139h-309c-149 0 -262 46 -339 139c-68 82 -102 193 -102 332c0 101 22 185 67 254c-45 69 -67 153 -67 254c0 139 34 249 102 331c77 93 190 139 339 139z" />
    <glyph glyph-name="nine" unicode="9" horiz-adv-x="1241" 
d="M745 1047h-300c-15 -1 -27 -8 -37 -21c-11 -13 -16 -28 -16 -47c0 -15 4 -29 11 -42c8 -13 18 -22 31 -25c5 1 10 1 15 1h286c1 0 22 0 64 -1v67c1 11 -1 23 -5 34c-8 23 -24 34 -49 34zM449 537h-15c-9 1 -19 2 -30 3c-13 1 -27 3 -40 5c-35 6 -68 15 -99 27
c-87 33 -153 84 -198 153c-45 68 -67 153 -67 254c0 139 34 249 102 331c77 93 190 139 339 139h309c149 0 262 -46 339 -139c68 -82 102 -192 102 -331v-19v-489c0 -139 -34 -250 -102 -332c-77 -93 -190 -139 -339 -139h-643v403h638c13 0 24 3 33 10c7 6 12 14 16 24
c4 11 6 23 5 34v66h-343h-2h-5z" />
    <glyph glyph-name="colon" unicode=":" horiz-adv-x="453" 
d="M0 0v361h403v-361h-403zM0 1086v361h403v-361h-403z" />
    <glyph glyph-name="semicolon" unicode=";" horiz-adv-x="613" 
d="M160 1086v361h403v-361h-403zM0 0l140 361h423l-140 -361h-423z" />
    <glyph glyph-name="semicolon" unicode="&#x37e;" horiz-adv-x="613" 
d="M160 1086v361h403v-361h-403zM0 0l140 361h423l-140 -361h-423z" />
    <glyph glyph-name="less" unicode="&#x3c;" horiz-adv-x="941" 
d="M0 502v448l891 497v-443l-496 -280l496 -280v-444z" />
    <glyph glyph-name="equal" unicode="=" horiz-adv-x="925" 
d="M0 273v403h875v-403h-875zM0 773v403h875v-403h-875z" />
    <glyph glyph-name="greater" unicode="&#x3e;" horiz-adv-x="941" 
d="M891 950v-448l-891 -502v444l496 280l-496 280v443z" />
    <glyph glyph-name="question" unicode="?" horiz-adv-x="1056" 
d="M0 1449h565c149 0 262 -46 339 -139c68 -82 102 -192 102 -331c0 -189 -76 -320 -228 -392c-76 -35 -152 -52 -228 -50h-147v-98h-403v471h561c17 1 31 10 42 27c7 13 11 27 11 42c0 19 -5 34 -16 47c-10 13 -22 20 -37 21h-561v402zM0 0v361h403v-361h-403z" />
    <glyph glyph-name="at" unicode="@" horiz-adv-x="1584" 
d="M908 403h180c25 0 41 11 49 34c4 11 6 23 5 34v66h-245c-13 -3 -23 -12 -31 -25c-7 -12 -11 -26 -11 -41c0 -19 5 -35 16 -48c10 -13 22 -20 37 -20zM441 1449h652c149 0 262 -46 339 -139c68 -82 102 -192 102 -331v-508c0 -139 -34 -250 -102 -332
c-77 -93 -190 -139 -339 -139h-189c-149 0 -262 46 -339 139c-68 82 -102 193 -102 332c0 101 22 185 67 254s111 120 198 152c31 12 64 21 99 27c13 3 27 5 40 6c11 1 21 1 30 2c5 1 10 1 15 1h230v66c1 11 -1 23 -5 34c-4 9 -9 17 -16 23c-9 7 -20 11 -33 11h-642
c-13 0 -24 -4 -33 -11c-7 -6 -12 -14 -16 -23c-4 -11 -6 -23 -5 -34v-978h-392v978c0 139 34 249 102 331c77 93 190 139 339 139z" />
    <glyph glyph-name="A" unicode="A" horiz-adv-x="1664" 
d="M680 521h274l-137 362zM574 1449h486l554 -1449h-463l-55 143h-559l-54 -143h-483z" />
    <glyph glyph-name="B" unicode="B" horiz-adv-x="1350" 
d="M795 913c18 0 33 8 45 23c10 13 15 28 15 45c0 19 -6 35 -18 48c-11 13 -25 20 -42 20h-391v-136h391zM404 403h391c17 0 31 7 42 20c12 13 18 29 18 48c0 15 -4 29 -13 41c-12 18 -28 27 -47 27h-391v-136zM0 1449h684c193 0 336 -27 429 -82c125 -73 187 -202 187 -386
c0 -89 -21 -171 -62 -246c41 -69 62 -157 62 -264c0 -129 -41 -239 -122 -331s-179 -139 -294 -140h-884v1449z" />
    <glyph glyph-name="C" unicode="C" horiz-adv-x="1338" 
d="M1288 1449v-402h-563c-91 0 -167 -31 -230 -94c-62 -63 -93 -139 -93 -228s32 -165 95 -228s139 -94 228 -94h563v-403h-563c-201 0 -372 71 -513 212s-212 312 -212 513c0 200 71 371 212 512s312 212 513 212h563z" />
    <glyph glyph-name="D" unicode="D" horiz-adv-x="1409" 
d="M403 403h231c89 0 165 31 228 94s95 139 95 228s-31 165 -93 228c-63 63 -139 94 -230 94h-231v-644zM0 1449h634c200 0 371 -71 512 -212c142 -141 213 -312 213 -512c0 -201 -71 -372 -213 -513c-141 -141 -312 -212 -512 -212h-634v1449z" />
    <glyph glyph-name="E" unicode="E" horiz-adv-x="1100" 
d="M0 1449h1050v-402h-647v-121h647v-403h-647v-120h647v-403h-1050v1449z" />
    <glyph glyph-name="F" unicode="F" horiz-adv-x="1100" 
d="M0 1449h1050v-402h-647v-121h546v-403h-546v-523h-403v1449z" />
    <glyph glyph-name="G" unicode="G" horiz-adv-x="1345" 
d="M892 403v308h403v-711h-570c-201 0 -372 71 -513 212s-212 312 -212 513c0 200 71 371 212 512s312 212 513 212h563v-402h-563c-91 0 -167 -31 -230 -94c-62 -63 -93 -139 -93 -228s32 -165 95 -228s139 -94 228 -94h167z" />
    <glyph glyph-name="H" unicode="H" horiz-adv-x="1286" 
d="M834 926v523h402v-1449h-402v523h-431v-523h-403v1449h403v-523h431z" />
    <glyph glyph-name="I" unicode="I" horiz-adv-x="453" 
d="M0 0v1449h403v-1449h-403z" />
    <glyph glyph-name="J" unicode="J" horiz-adv-x="1036" 
d="M584 745v704h402v-704c0 -128 -23 -243 -69 -344c-35 -77 -81 -144 -140 -200c-88 -85 -197 -143 -328 -176c-44 -11 -89 -18 -134 -22c-16 -1 -32 -2 -47 -3h-17h-12h-239v403h250h1h3h11c12 1 25 3 38 6c41 7 79 20 114 38c111 58 167 157 167 298z" />
    <glyph glyph-name="K" unicode="K" horiz-adv-x="1391" 
d="M820 1449h521l-617 -819l196 -227h858v-403h-1053l-322 369v-369h-403v1449h403v-566z" />
    <glyph glyph-name="L" unicode="L" horiz-adv-x="1150" 
d="M403 1449v-1046h697v-403h-1100v1449h403z" />
    <glyph glyph-name="M" unicode="M" horiz-adv-x="1635" 
d="M792 794l290 655h503v-1449h-403v636l-390 -630l-389 630v-636h-403v1449h453z" />
    <glyph glyph-name="N" unicode="N" horiz-adv-x="1391" 
d="M938 696v753h403v-1449h-403l-535 754v-754h-403v1449h401z" />
    <glyph glyph-name="O" unicode="O" horiz-adv-x="1610" 
d="M725 403h110c89 0 165 31 228 94s95 139 95 228s-31 165 -93 228c-63 63 -139 94 -230 94h-110c-91 0 -167 -31 -230 -94c-62 -63 -93 -139 -93 -228s32 -165 95 -228s139 -94 228 -94zM725 1449h110c201 0 372 -71 513 -212s212 -312 212 -512
c0 -201 -71 -372 -212 -513s-312 -212 -513 -212h-110c-201 0 -372 71 -513 212s-212 312 -212 513c0 200 71 371 212 512s312 212 513 212z" />
    <glyph glyph-name="P" unicode="P" horiz-adv-x="1268" 
d="M0 1449h684c148 -1 274 -55 378 -160s156 -231 156 -379s-52 -275 -156 -380s-230 -158 -378 -159h-281v-371h-403v1449zM403 790h245c27 0 51 10 70 29s29 43 29 70s-10 51 -29 70s-43 29 -70 29h-245v-198z" />
    <glyph glyph-name="Q" unicode="Q" horiz-adv-x="1610" 
d="M733 403l-81 94l303 265l165 -191c25 46 38 97 38 154c0 89 -31 165 -93 228c-63 63 -139 94 -230 94h-110c-91 0 -167 -31 -230 -94c-62 -63 -93 -139 -93 -228s32 -165 95 -228s139 -94 228 -94h8zM1151 -83l-98 114c-69 -21 -141 -31 -218 -31h-110
c-201 0 -372 71 -513 212s-212 312 -212 513c0 200 71 371 212 512s312 212 513 212h110c201 0 372 -71 513 -212s212 -312 212 -512c0 -180 -57 -336 -170 -468l64 -75z" />
    <glyph glyph-name="R" unicode="R" horiz-adv-x="1268" 
d="M1062 1289c104 -105 156 -231 156 -379c0 -108 -30 -207 -89 -297c-58 -87 -135 -157 -230 -210h789v-403h-1046l-239 259v-259h-403v1449h684c148 -1 274 -55 378 -160zM403 790h245c27 0 51 10 70 29s29 43 29 70s-10 51 -29 70s-43 29 -70 29h-245v-198z" />
    <glyph glyph-name="S" unicode="S" horiz-adv-x="1048" 
d="M1058 1047h-592c3 -4 160 -167 469 -489c42 -62 63 -127 63 -196c0 -97 -34 -182 -101 -254c-68 -72 -149 -108 -243 -108h-744v403h629l-467 487c-43 52 -64 118 -64 197c0 98 33 183 100 254c67 72 148 108 243 108h707v-402z" />
    <glyph glyph-name="T" unicode="T" horiz-adv-x="1197" 
d="M0 1449h1147v-402h-372v-1047h-403v1047h-372v402z" />
    <glyph glyph-name="U" unicode="U" horiz-adv-x="1283" 
d="M830 616v839h403v-839c0 -170 -60 -315 -181 -435c-121 -121 -266 -181 -436 -181s-315 60 -435 181c-121 120 -181 265 -181 435v839h403v-839c0 -59 21 -109 62 -151c42 -41 92 -62 151 -62s110 21 152 62c41 42 62 92 62 151z" />
    <glyph glyph-name="V" unicode="V" horiz-adv-x="1664" 
d="M797 567l334 882h483l-574 -1449h-486l-554 1449h463z" />
    <glyph glyph-name="W" unicode="W" horiz-adv-x="1782" 
d="M1156 915l123 534h453l-353 -1449h-446l-73 540l-132 -540h-396l-332 1449h433l122 -534l123 534h356z" />
    <glyph glyph-name="X" unicode="X" horiz-adv-x="1461" 
d="M1411 1449l-5 -8l-446 -716l446 -717l5 -8h-510l-195 315l-196 -315h-510l5 8l446 717l-446 716l-5 8h510l196 -315l195 315h510z" />
    <glyph glyph-name="Y" unicode="Y" horiz-adv-x="1583" 
d="M766 953l298 496h469l-532 -887l-33 -56v-506h-403v506l-33 56l-532 887h469z" />
    <glyph glyph-name="Z" unicode="Z" horiz-adv-x="1201" 
d="M0 1047v402h1151v-393l-623 -653h623v-403h-1151v393l622 654h-622z" />
    <glyph glyph-name="bracketleft" unicode="[" horiz-adv-x="573" 
d="M523 403v-403h-523v1449h523v-402h-120v-644h120z" />
    <glyph glyph-name="backslash" unicode="\" horiz-adv-x="773" 
d="M463 1449l260 -1449h-463l-260 1449h463z" />
    <glyph glyph-name="bracketright" unicode="]" horiz-adv-x="573" 
d="M0 0v403h120v644h-120v402h523v-1449h-523z" />
    <glyph glyph-name="asciicircum" unicode="^" horiz-adv-x="1216" 
d="M472 575h-472l346 874h486l334 -874h-460l-117 308z" />
    <glyph glyph-name="underscore" unicode="_" horiz-adv-x="896" 
d="M0 0v403h846v-403h-846z" />
    <glyph glyph-name="grave" unicode="`" 
 />
    <glyph glyph-name="a" unicode="a" horiz-adv-x="1664" 
d="M680 521h274l-137 362zM574 1449h486l554 -1449h-463l-55 143h-559l-54 -143h-483z" />
    <glyph glyph-name="b" unicode="b" horiz-adv-x="1350" 
d="M795 913c18 0 33 8 45 23c10 13 15 28 15 45c0 19 -6 35 -18 48c-11 13 -25 20 -42 20h-391v-136h391zM404 403h391c17 0 31 7 42 20c12 13 18 29 18 48c0 15 -4 29 -13 41c-12 18 -28 27 -47 27h-391v-136zM0 1449h684c193 0 336 -27 429 -82c125 -73 187 -202 187 -386
c0 -89 -21 -171 -62 -246c41 -69 62 -157 62 -264c0 -129 -41 -239 -122 -331s-179 -139 -294 -140h-884v1449z" />
    <glyph glyph-name="c" unicode="c" horiz-adv-x="1338" 
d="M1288 1449v-402h-563c-91 0 -167 -31 -230 -94c-62 -63 -93 -139 -93 -228s32 -165 95 -228s139 -94 228 -94h563v-403h-563c-201 0 -372 71 -513 212s-212 312 -212 513c0 200 71 371 212 512s312 212 513 212h563z" />
    <glyph glyph-name="d" unicode="d" horiz-adv-x="1409" 
d="M403 403h231c89 0 165 31 228 94s95 139 95 228s-31 165 -93 228c-63 63 -139 94 -230 94h-231v-644zM0 1449h634c200 0 371 -71 512 -212c142 -141 213 -312 213 -512c0 -201 -71 -372 -213 -513c-141 -141 -312 -212 -512 -212h-634v1449z" />
    <glyph glyph-name="e" unicode="e" horiz-adv-x="1100" 
d="M0 1449h1050v-402h-647v-121h647v-403h-647v-120h647v-403h-1050v1449z" />
    <glyph glyph-name="f" unicode="f" horiz-adv-x="1100" 
d="M0 1449h1050v-402h-647v-121h546v-403h-546v-523h-403v1449z" />
    <glyph glyph-name="g" unicode="g" horiz-adv-x="1345" 
d="M892 403v308h403v-711h-570c-201 0 -372 71 -513 212s-212 312 -212 513c0 200 71 371 212 512s312 212 513 212h563v-402h-563c-91 0 -167 -31 -230 -94c-62 -63 -93 -139 -93 -228s32 -165 95 -228s139 -94 228 -94h167z" />
    <glyph glyph-name="h" unicode="h" horiz-adv-x="1286" 
d="M834 926v523h402v-1449h-402v523h-431v-523h-403v1449h403v-523h431z" />
    <glyph glyph-name="i" unicode="i" horiz-adv-x="453" 
d="M0 0v1449h403v-1449h-403z" />
    <glyph glyph-name="j" unicode="j" horiz-adv-x="1036" 
d="M584 745v704h402v-704c0 -128 -23 -243 -69 -344c-35 -77 -81 -144 -140 -200c-88 -85 -197 -143 -328 -176c-44 -11 -89 -18 -134 -22c-16 -1 -32 -2 -47 -3h-17h-12h-239v403h250h1h3h11c12 1 25 3 38 6c41 7 79 20 114 38c111 58 167 157 167 298z" />
    <glyph glyph-name="k" unicode="k" horiz-adv-x="1391" 
d="M820 1449h521l-617 -819c18 -49 43 -89 74 -122c68 -70 173 -105 314 -105h229v-403h-229c-258 0 -461 77 -608 232c-15 16 -29 33 -42 50c-22 27 -42 56 -59 87v-369h-403v1449h403v-566z" />
    <glyph glyph-name="l" unicode="l" horiz-adv-x="1150" 
d="M403 1449v-1046h697v-403h-1100v1449h403z" />
    <glyph glyph-name="m" unicode="m" horiz-adv-x="1635" 
d="M792 794l290 655h503v-1449h-403v636l-390 -630l-389 630v-636h-403v1449h453z" />
    <glyph glyph-name="n" unicode="n" horiz-adv-x="1391" 
d="M938 696v753h403v-1449h-403l-535 754v-754h-403v1449h401z" />
    <glyph glyph-name="o" unicode="o" horiz-adv-x="1610" 
d="M725 403h110c89 0 165 31 228 94s95 139 95 228s-31 165 -93 228c-63 63 -139 94 -230 94h-110c-91 0 -167 -31 -230 -94c-62 -63 -93 -139 -93 -228s32 -165 95 -228s139 -94 228 -94zM725 1449h110c201 0 372 -71 513 -212s212 -312 212 -512
c0 -201 -71 -372 -212 -513s-312 -212 -513 -212h-110c-201 0 -372 71 -513 212s-212 312 -212 513c0 200 71 371 212 512s312 212 513 212z" />
    <glyph glyph-name="p" unicode="p" horiz-adv-x="1268" 
d="M0 1449h684c148 -1 274 -55 378 -160s156 -231 156 -379s-52 -275 -156 -380s-230 -158 -378 -159h-281v-371h-403v1449zM403 790h245c27 0 51 10 70 29s29 43 29 70s-10 51 -29 70s-43 29 -70 29h-245v-198z" />
    <glyph glyph-name="q" unicode="q" horiz-adv-x="1610" 
d="M733 403l-81 94l303 265l165 -191c25 46 38 97 38 154c0 89 -31 165 -93 228c-63 63 -139 94 -230 94h-110c-91 0 -167 -31 -230 -94c-62 -63 -93 -139 -93 -228s32 -165 95 -228s139 -94 228 -94h8zM1151 -83l-98 114c-69 -21 -141 -31 -218 -31h-110
c-201 0 -372 71 -513 212s-212 312 -212 513c0 200 71 371 212 512s312 212 513 212h110c201 0 372 -71 513 -212s212 -312 212 -512c0 -180 -57 -336 -170 -468l64 -75z" />
    <glyph glyph-name="r" unicode="r" horiz-adv-x="1268" 
d="M1062 1289c104 -105 156 -231 156 -379c0 -108 -30 -207 -89 -297c-58 -87 -135 -152 -230 -195c49 -10 105 -15 168 -15h121v-403h-121c-283 0 -496 76 -637 228c-9 10 -18 20 -27 31v-259h-403v1449h684c148 -1 274 -55 378 -160zM403 790h245c27 0 51 10 70 29
s29 43 29 70s-10 51 -29 70s-43 29 -70 29h-245v-198z" />
    <glyph glyph-name="s" unicode="s" horiz-adv-x="1048" 
d="M978 1047h-512c3 -4 160 -167 469 -489c42 -62 63 -127 63 -196c0 -97 -34 -182 -101 -254c-68 -72 -149 -108 -243 -108h-654v403h539l-467 487c-43 52 -64 118 -64 197c0 98 33 183 100 254c67 72 148 108 243 108h627v-402z" />
    <glyph glyph-name="t" unicode="t" horiz-adv-x="1197" 
d="M0 1449h1147v-402h-372v-1047h-403v1047h-372v402z" />
    <glyph glyph-name="u" unicode="u" horiz-adv-x="1283" 
d="M830 616v839h403v-839c0 -170 -60 -315 -181 -435c-121 -121 -266 -181 -436 -181s-315 60 -435 181c-121 120 -181 265 -181 435v839h403v-839c0 -59 21 -109 62 -151c42 -41 92 -62 151 -62s110 21 152 62c41 42 62 92 62 151z" />
    <glyph glyph-name="v" unicode="v" horiz-adv-x="1664" 
d="M797 567l334 882h483l-574 -1449h-486l-554 1449h463z" />
    <glyph glyph-name="w" unicode="w" horiz-adv-x="1782" 
d="M1156 915l123 534h453l-353 -1449h-446l-73 540l-132 -540h-396l-332 1449h433l122 -534l123 534h356z" />
    <glyph glyph-name="x" unicode="x" horiz-adv-x="1461" 
d="M1411 1449l-5 -8l-446 -716l446 -717l5 -8h-510l-195 315l-196 -315h-510l5 8l446 717l-446 716l-5 8h510l196 -315l195 315h510z" />
    <glyph glyph-name="y" unicode="y" horiz-adv-x="1583" 
d="M766 953l298 496h469l-532 -887l-33 -56v-506h-403v506l-33 56l-532 887h469z" />
    <glyph glyph-name="z" unicode="z" horiz-adv-x="1201" 
d="M0 1047v402h1151v-393l-623 -653h623v-403h-1151v393l622 654h-622z" />
    <glyph glyph-name="braceleft" unicode="{" 
 />
    <glyph glyph-name="bar" unicode="|" horiz-adv-x="453" 
d="M0 0v1449h403v-1449h-403z" />
    <glyph glyph-name="braceright" unicode="}" 
 />
    <glyph glyph-name="asciitilde" unicode="~" 
 />
    <glyph glyph-name="exclamdown" unicode="&#xa1;" 
 />
    <glyph glyph-name="cent" unicode="&#xa2;" 
 />
    <glyph glyph-name="sterling" unicode="&#xa3;" horiz-adv-x="555" 
d="M35 725v256h-35v129h35v107c1 65 24 120 70 165s101 68 166 68s120 -23 166 -68c45 -45 68 -100 68 -165v-51h-200v34c0 9 -3 17 -10 24s-15 11 -24 11s-17 -4 -24 -11s-10 -15 -10 -24v-90h108v-129h-108v-54h268v-202h-470z" />
    <glyph glyph-name="currency" unicode="&#xa4;" 
 />
    <glyph glyph-name="yen" unicode="&#xa5;" 
 />
    <glyph glyph-name="brokenbar" unicode="&#xa6;" 
 />
    <glyph glyph-name="section" unicode="&#xa7;" 
 />
    <glyph glyph-name="dieresis" unicode="&#xa8;" 
 />
    <glyph glyph-name="copyright" unicode="&#xa9;" 
 />
    <glyph glyph-name="ordfeminine" unicode="&#xaa;" 
 />
    <glyph glyph-name="guillemotleft" unicode="&#xab;" 
 />
    <glyph glyph-name="logicalnot" unicode="&#xac;" 
 />
    <glyph glyph-name="registered" unicode="&#xae;" 
 />
    <glyph glyph-name="overscore" unicode="&#xaf;" 
 />
    <glyph glyph-name="degree" unicode="&#xb0;" 
 />
    <glyph glyph-name="plusminus" unicode="&#xb1;" 
 />
    <glyph glyph-name="uni00B2" unicode="&#xb2;" 
 />
    <glyph glyph-name="uni00B3" unicode="&#xb3;" 
 />
    <glyph glyph-name="acute" unicode="&#xb4;" 
 />
    <glyph glyph-name="mu" unicode="&#xb5;" 
 />
    <glyph glyph-name="paragraph" unicode="&#xb6;" 
 />
    <glyph glyph-name="middot" unicode="&#xb7;" 
 />
    <glyph glyph-name="middot" unicode="&#x2219;" 
 />
    <glyph glyph-name="cedilla" unicode="&#xb8;" 
 />
    <glyph glyph-name="uni00B9" unicode="&#xb9;" 
 />
    <glyph glyph-name="ordmasculine" unicode="&#xba;" 
 />
    <glyph glyph-name="guillemotright" unicode="&#xbb;" 
 />
    <glyph glyph-name="onequarter" unicode="&#xbc;" 
 />
    <glyph glyph-name="onehalf" unicode="&#xbd;" 
 />
    <glyph glyph-name="threequarters" unicode="&#xbe;" 
 />
    <glyph glyph-name="questiondown" unicode="&#xbf;" 
 />
    <glyph glyph-name="Agrave" unicode="&#xc0;" 
 />
    <glyph glyph-name="Aacute" unicode="&#xc1;" 
 />
    <glyph glyph-name="Acircumflex" unicode="&#xc2;" 
 />
    <glyph glyph-name="Atilde" unicode="&#xc3;" 
 />
    <glyph glyph-name="Adieresis" unicode="&#xc4;" 
 />
    <glyph glyph-name="Aring" unicode="&#xc5;" 
 />
    <glyph glyph-name="AE" unicode="&#xc6;" 
 />
    <glyph glyph-name="Ccedilla" unicode="&#xc7;" 
 />
    <glyph glyph-name="Egrave" unicode="&#xc8;" 
 />
    <glyph glyph-name="Eacute" unicode="&#xc9;" 
 />
    <glyph glyph-name="Ecircumflex" unicode="&#xca;" 
 />
    <glyph glyph-name="Edieresis" unicode="&#xcb;" 
 />
    <glyph glyph-name="Igrave" unicode="&#xcc;" 
 />
    <glyph glyph-name="Iacute" unicode="&#xcd;" 
 />
    <glyph glyph-name="Icircumflex" unicode="&#xce;" 
 />
    <glyph glyph-name="Idieresis" unicode="&#xcf;" 
 />
    <glyph glyph-name="Eth" unicode="&#xd0;" 
 />
    <glyph glyph-name="Ntilde" unicode="&#xd1;" 
 />
    <glyph glyph-name="Ograve" unicode="&#xd2;" 
 />
    <glyph glyph-name="Oacute" unicode="&#xd3;" 
 />
    <glyph glyph-name="Ocircumflex" unicode="&#xd4;" 
 />
    <glyph glyph-name="Otilde" unicode="&#xd5;" 
 />
    <glyph glyph-name="Odieresis" unicode="&#xd6;" 
 />
    <glyph glyph-name="multiply" unicode="&#xd7;" 
 />
    <glyph glyph-name="Oslash" unicode="&#xd8;" 
 />
    <glyph glyph-name="Ugrave" unicode="&#xd9;" 
 />
    <glyph glyph-name="Uacute" unicode="&#xda;" 
 />
    <glyph glyph-name="Ucircumflex" unicode="&#xdb;" 
 />
    <glyph glyph-name="Udieresis" unicode="&#xdc;" 
 />
    <glyph glyph-name="Yacute" unicode="&#xdd;" 
 />
    <glyph glyph-name="Thorn" unicode="&#xde;" 
 />
    <glyph glyph-name="germandbls" unicode="&#xdf;" horiz-adv-x="1325" 
d="M1110 1367c110 -73 165 -202 165 -386c0 -89 -18 -171 -55 -246c37 -69 55 -157 55 -264c0 -129 -36 -239 -108 -332s-158 -139 -258 -139h-361v403h281c15 0 27 7 38 20s16 29 16 48c0 15 -4 29 -12 41c-11 18 -25 27 -42 27h-281v374h281c16 0 29 8 40 23
c9 13 14 28 14 45c0 19 -5 34 -16 47s-23 20 -38 20h-343c-22 0 -40 -4 -55 -11c-11 -5 -20 -13 -27 -24c-8 -11 -12 -23 -12 -34v-979h-392v979c0 139 34 249 102 331c77 93 190 139 339 139h291c169 0 295 -27 378 -82z" />
    <glyph glyph-name="agrave" unicode="&#xe0;" 
 />
    <glyph glyph-name="aacute" unicode="&#xe1;" 
 />
    <glyph glyph-name="acircumflex" unicode="&#xe2;" 
 />
    <glyph glyph-name="atilde" unicode="&#xe3;" 
 />
    <glyph glyph-name="adieresis" unicode="&#xe4;" 
 />
    <glyph glyph-name="aring" unicode="&#xe5;" 
 />
    <glyph glyph-name="ae" unicode="&#xe6;" 
 />
    <glyph glyph-name="ccedilla" unicode="&#xe7;" 
 />
    <glyph glyph-name="egrave" unicode="&#xe8;" 
 />
    <glyph glyph-name="eacute" unicode="&#xe9;" 
 />
    <glyph glyph-name="ecircumflex" unicode="&#xea;" 
 />
    <glyph glyph-name="edieresis" unicode="&#xeb;" 
 />
    <glyph glyph-name="igrave" unicode="&#xec;" 
 />
    <glyph glyph-name="iacute" unicode="&#xed;" 
 />
    <glyph glyph-name="icircumflex" unicode="&#xee;" 
 />
    <glyph glyph-name="idieresis" unicode="&#xef;" 
 />
    <glyph glyph-name="eth" unicode="&#xf0;" 
 />
    <glyph glyph-name="ntilde" unicode="&#xf1;" 
 />
    <glyph glyph-name="ograve" unicode="&#xf2;" 
 />
    <glyph glyph-name="oacute" unicode="&#xf3;" 
 />
    <glyph glyph-name="ocircumflex" unicode="&#xf4;" 
 />
    <glyph glyph-name="otilde" unicode="&#xf5;" 
 />
    <glyph glyph-name="odieresis" unicode="&#xf6;" 
 />
    <glyph glyph-name="divide" unicode="&#xf7;" 
 />
    <glyph glyph-name="oslash" unicode="&#xf8;" 
 />
    <glyph glyph-name="ugrave" unicode="&#xf9;" 
 />
    <glyph glyph-name="uacute" unicode="&#xfa;" 
 />
    <glyph glyph-name="ucircumflex" unicode="&#xfb;" 
 />
    <glyph glyph-name="udieresis" unicode="&#xfc;" 
 />
    <glyph glyph-name="yacute" unicode="&#xfd;" 
 />
    <glyph glyph-name="thorn" unicode="&#xfe;" 
 />
    <glyph glyph-name="ydieresis" unicode="&#xff;" 
 />
    <glyph glyph-name="dotlessi" unicode="&#x131;" 
 />
    <glyph glyph-name="circumflex" unicode="&#x2c6;" 
 />
    <glyph glyph-name="caron" unicode="&#x2c7;" 
 />
    <glyph glyph-name="uni02C9" unicode="&#x2c9;" 
 />
    <glyph glyph-name="breve" unicode="&#x2d8;" 
 />
    <glyph glyph-name="dotaccent" unicode="&#x2d9;" 
 />
    <glyph glyph-name="ring" unicode="&#x2da;" 
 />
    <glyph glyph-name="ogonek" unicode="&#x2db;" 
 />
    <glyph glyph-name="tilde" unicode="&#x2dc;" 
 />
    <glyph glyph-name="hungarumlaut" unicode="&#x2dd;" 
 />
    <glyph glyph-name="endash" unicode="&#x2013;" 
 />
    <glyph glyph-name="emdash" unicode="&#x2014;" 
 />
    <glyph glyph-name="quoteleft" unicode="&#x2018;" 
 />
    <glyph glyph-name="quoteright" unicode="&#x2019;" 
 />
    <glyph glyph-name="quotesinglbase" unicode="&#x201a;" 
 />
    <glyph glyph-name="quotedblleft" unicode="&#x201c;" 
 />
    <glyph glyph-name="quotedblright" unicode="&#x201d;" 
 />
    <glyph glyph-name="quotedblbase" unicode="&#x201e;" 
 />
    <glyph glyph-name="dagger" unicode="&#x2020;" 
 />
    <glyph glyph-name="daggerdbl" unicode="&#x2021;" 
 />
    <glyph glyph-name="bullet" unicode="&#x2022;" 
 />
    <glyph glyph-name="ellipsis" unicode="&#x2026;" 
 />
    <glyph glyph-name="guilsinglleft" unicode="&#x2039;" 
 />
    <glyph glyph-name="guilsinglright" unicode="&#x203a;" 
 />
    <glyph glyph-name="fraction" unicode="&#x2044;" 
 />
    <glyph glyph-name="fraction" unicode="&#x2215;" 
 />
    <glyph glyph-name="franc" unicode="&#x20a3;" 
 />
    <glyph glyph-name="lira" unicode="&#x20a4;" 
 />
    <glyph glyph-name="peseta" unicode="&#x20a7;" 
 />
    <glyph glyph-name="Euro" unicode="&#x20ac;" 
 />
    <glyph glyph-name="uni2116" unicode="&#x2116;" 
 />
    <glyph glyph-name="trademark" unicode="&#x2122;" 
 />
    <glyph glyph-name="partialdiff" unicode="&#x2202;" 
 />
    <glyph glyph-name="increment" unicode="&#x2206;" 
 />
    <glyph glyph-name="product" unicode="&#x220f;" 
 />
    <glyph glyph-name="summation" unicode="&#x2211;" 
 />
    <glyph glyph-name="minus" unicode="&#x2212;" 
 />
    <glyph glyph-name="radical" unicode="&#x221a;" 
 />
    <glyph glyph-name="infinity" unicode="&#x221e;" 
 />
    <glyph glyph-name="integral" unicode="&#x222b;" 
 />
    <glyph glyph-name="approxequal" unicode="&#x2248;" 
 />
    <glyph glyph-name="lessequal" unicode="&#x2264;" 
 />
    <glyph glyph-name="greaterequal" unicode="&#x2265;" 
 />
    <glyph glyph-name="alt_K" horiz-adv-x="1404" 
d="M820 1449h521l-617 -819l196 -227h818v-403h-1013l-322 369v-369h-403v1449h403v-566z" />
    <glyph glyph-name="alt_R" horiz-adv-x="1738" 
d="M1062 1289c104 -105 156 -231 156 -379c0 -108 -30 -207 -89 -297c-58 -87 -135 -157 -230 -210h789v-403h-1046l-239 259v-259h-403v1449h684c148 -1 274 -55 378 -160zM403 790h245c27 0 51 10 70 29s29 43 29 70s-10 51 -29 70s-43 29 -70 29h-245v-198z" />
    <glyph glyph-name="alt_S1" horiz-adv-x="2003" 
d="M1129 0h-1129v402h475v1h536c-13 15 -169 177 -468 488c-42 62 -63 127 -63 196c0 97 34 182 101 254c68 72 149 108 243 108h1249v-402l-1131 -1c13 -15 169 -177 468 -488c42 -62 63 -127 63 -196c0 -97 -34 -182 -101 -254c-68 -72 -149 -108 -243 -108z" />
    <glyph glyph-name="alt_S2" horiz-adv-x="1528" 
d="M0 402h1012c-3 4 -160 167 -469 489c-42 62 -63 127 -63 196c0 97 34 182 101 254c68 72 149 108 243 108h654v-403h-539l467 -487c43 -52 64 -118 64 -197c0 -98 -33 -183 -100 -254c-67 -72 -148 -108 -243 -108h-1127v402z" />
    <glyph glyph-name="alt_S3" horiz-adv-x="1047" 
d="M1478 1047h-1012c3 -4 160 -167 469 -489c42 -62 63 -127 63 -196c0 -97 -34 -182 -101 -254c-68 -72 -149 -108 -243 -108h-654v403h539l-467 487c-43 52 -64 118 -64 197c0 98 33 183 100 254c67 72 148 108 243 108h1127v-402z" />
    <glyph glyph-name="alt_RS" horiz-adv-x="2798" 
d="M1924 0h-857h-425l-239 259v-259h-403v1449h684c148 -1 274 -55 378 -160s156 -231 156 -379c0 -108 -30 -207 -89 -297c-58 -87 -135 -157 -230 -210h168h742l-467 487c-43 52 -64 118 -64 197c0 98 33 183 100 254c67 72 148 108 243 108h1127v-402h-1012
c3 -4 160 -167 469 -489c42 -62 63 -127 63 -196c0 -97 -34 -182 -101 -254c-68 -72 -149 -108 -243 -108zM403 790h245c27 0 51 10 70 29s29 43 29 70s-10 51 -29 70s-43 29 -70 29h-245v-198z" />
    <glyph glyph-name="alt_ST" horiz-adv-x="2516" 
d="M851 1449h1615v-402h-372v-1047h-403v1047h-725c3 -4 160 -167 469 -489c42 -62 63 -127 63 -196c0 -97 -34 -182 -101 -254c-68 -72 -149 -108 -243 -108h-1154v403h1039l-467 487c-43 52 -64 118 -64 197c0 98 33 183 100 254c67 72 148 108 243 108z" />
    </font>
</defs>
</svg>
